Ubuntu-Bold.ufo
<glyph name="dollar" format="2">
  <advance width="568"/>
  <unicode hex="0024"/>
  <outline>
    <contour>
      <point x="221" y="-109" type="line"/>
      <point x="347" y="-109" type="line"/>
      <point x="347" y="13" type="line"/>
      <point x="478" y="34"/>
      <point x="523" y="115"/>
      <point x="523" y="196" type="curve" smooth="yes"/>
      <point x="523" y="314"/>
      <point x="435" y="366"/>
      <point x="318" y="409" type="curve"/>
      <point x="242" y="435"/>
      <point x="207" y="451"/>
      <point x="207" y="493" type="curve" smooth="yes"/>
      <point x="207" y="528"/>
      <point x="233" y="551"/>
      <point x="297" y="551" type="curve" smooth="yes"/>
      <point x="361" y="551"/>
      <point x="421" y="536"/>
      <point x="465" y="517" type="curve"/>
      <point x="496" y="637" type="line"/>
      <point x="467" y="650"/>
      <point x="416" y="665"/>
      <point x="347" y="672" type="curve"/>
      <point x="347" y="776" type="line"/>
      <point x="221" y="776" type="line"/>
      <point x="221" y="668" type="line"/>
      <point x="103" y="646"/>
      <point x="54" y="570"/>
      <point x="54" y="481" type="curve" smooth="yes"/>
      <point x="54" y="366"/>
      <point x="145" y="326"/>
      <point x="232" y="294" type="curve"/>
      <point x="323" y="262"/>
      <point x="370" y="243"/>
      <point x="370" y="193" type="curve" smooth="yes"/>
      <point x="370" y="153"/>
      <point x="345" y="130"/>
      <point x="264" y="130" type="curve" smooth="yes"/>
      <point x="192" y="130"/>
      <point x="125" y="152"/>
      <point x="78" y="175" type="curve"/>
      <point x="35" y="60" type="line"/>
      <point x="64" y="45"/>
      <point x="124" y="18"/>
      <point x="221" y="10" type="curve"/>
    </contour>
  </outline>
</glyph>
<glyph name="ampersand" format="2">
	<unicode hex="0026"/>
	<advance width="705"/>
	<outline>
		<contour>
			<point x="35" y="184" type="qcurve"/>
			<point x="35" y="222"/>
			<point x="57" y="285"/>
			<point x="94" y="336"/>
			<point x="143" y="375"/>
			<point x="170" y="390" type="qcurve"/>
			<point x="146" y="419"/>
			<point x="108" y="486"/>
			<point x="108" y="526" type="qcurve"/>
			<point x="108" y="614"/>
			<point x="214" y="709"/>
			<point x="307" y="709" type="qcurve"/>
			<point x="354" y="709"/>
			<point x="424" y="684"/>
			<point x="471" y="641"/>
			<point x="495" y="584"/>
			<point x="495" y="551" type="qcurve"/>
			<point x="495" y="490"/>
			<point x="426" y="395"/>
			<point x="373" y="363" type="qcurve"/>
			<point x="485" y="251" type="line"/>
			<point x="494" y="271"/>
			<point x="511" y="332"/>
			<point x="513" y="355" type="qcurve"/>
			<point x="637" y="339" type="line"/>
			<point x="635" y="320"/>
			<point x="625" y="275"/>
			<point x="610" y="229"/>
			<point x="591" y="183"/>
			<point x="580" y="164" type="qcurve"/>
			<point x="612" y="128"/>
			<point x="673" y="43"/>
			<point x="695" y="0" type="qcurve"/>
			<point x="542" y="0" type="line"/>
			<point x="534" y="13"/>
			<point x="506" y="52"/>
			<point x="492" y="66" type="qcurve"/>
			<point x="452" y="34"/>
			<point x="346" y="-9"/>
			<point x="280" y="-9" type="qcurve"/>
			<point x="210" y="-9"/>
			<point x="116" y="26"/>
			<point x="59" y="81"/>
			<point x="35" y="150"/>
		</contour>
		<contour>
			<point x="174" y="199" type="qcurve"/>
			<point x="174" y="184"/>
			<point x="186" y="152"/>
			<point x="213" y="125"/>
			<point x="255" y="108"/>
			<point x="285" y="108" type="qcurve"/>
			<point x="327" y="108"/>
			<point x="390" y="130"/>
			<point x="411" y="148" type="qcurve"/>
			<point x="251" y="309" type="line"/>
			<point x="237" y="302"/>
			<point x="210" y="282"/>
			<point x="188" y="255"/>
			<point x="174" y="221"/>
		</contour>
		<contour>
			<point x="368" y="544" type="qcurve"/>
			<point x="368" y="567"/>
			<point x="338" y="603"/>
			<point x="303" y="603" type="qcurve"/>
			<point x="271" y="603"/>
			<point x="236" y="564"/>
			<point x="236" y="533" type="qcurve"/>
			<point x="236" y="507"/>
			<point x="266" y="458"/>
			<point x="290" y="436" type="qcurve"/>
			<point x="322" y="454"/>
			<point x="368" y="504"/>
		</contour>
	</outline>
</glyph>
<glyph name="quotesingle" format="2">
	<unicode hex="0027"/>
	<advance width="247"/>
	<outline>
		<contour>
			<point x="197" y="760" type="line"/>
			<point x="197" y="686" type="line"/>
			<point x="197" y="638"/>
			<point x="182" y="524"/>
			<point x="173" y="466" type="qcurve"/>
			<point x="74" y="466" type="line"/>
			<point x="63" y="524"/>
			<point x="50" y="638"/>
			<point x="50" y="687" type="qcurve"/>
			<point x="50" y="760" type="line"/>
		</contour>
	</outline>
</glyph>
<glyph name="parenleft" format="2">
  <advance width="356"/>
  <unicode hex="0028"/>
  <outline>
    <contour>
      <point x="217" y="299" type="curve" smooth="yes"/>
      <point x="217" y="455"/>
      <point x="272" y="603"/>
      <point x="351" y="716" type="curve"/>
      <point x="247" y="783" type="line"/>
      <point x="135" y="652"/>
      <point x="70" y="483"/>
      <point x="70" y="299" type="curve" smooth="yes"/>
      <point x="70" y="115"/>
      <point x="135" y="-54"/>
      <point x="247" y="-185" type="curve"/>
      <point x="351" y="-118" type="line"/>
      <point x="272" y="-5"/>
      <point x="217" y="143"/>
    </contour>
  </outline>
</glyph>
<glyph name="plus" format="2">
  <advance width="568"/>
  <unicode hex="002B"/>
  <outline>
    <contour>
      <point x="49" y="236" type="line"/>
      <point x="216" y="236" type="line"/>
      <point x="216" y="51" type="line"/>
      <point x="352" y="51" type="line"/>
      <point x="352" y="236" type="line"/>
      <point x="519" y="236" type="line"/>
      <point x="519" y="361" type="line"/>
      <point x="352" y="361" type="line"/>
      <point x="352" y="546" type="line"/>
      <point x="216" y="546" type="line"/>
      <point x="216" y="361" type="line"/>
      <point x="49" y="361" type="line"/>
    </contour>
  </outline>
</glyph>
<glyph name="slash" format="2">
	<unicode hex="002F"/>
	<advance width="437"/>
	<outline>
		<contour>
			<point x="128" y="-185" type="line"/>
			<point x="-25" y="-185" type="line"/>
			<point x="311" y="783" type="line"/>
			<point x="462" y="783" type="line"/>
		</contour>
	</outline>
</glyph>
<glyph name="zero" format="2">
	<unicode hex="0030"/>
	<advance width="568"/>
	<outline>
		<contour>
			<point x="534" y="348" type="qcurve"/>
			<point x="534" y="173"/>
			<point x="401" y="-14"/>
			<point x="284" y="-14" type="qcurve"/>
			<point x="167" y="-14"/>
			<point x="34" y="173"/>
			<point x="34" y="348" type="qcurve"/>
			<point x="34" y="435"/>
			<point x="69" y="569"/>
			<point x="135" y="661"/>
			<point x="227" y="709"/>
			<point x="284" y="709" type="qcurve"/>
			<point x="401" y="709"/>
			<point x="534" y="522"/>
		</contour>
		<contour>
			<point x="382" y="348" type="qcurve"/>
			<point x="382" y="400"/>
			<point x="372" y="485"/>
			<point x="350" y="547"/>
			<point x="312" y="581"/>
			<point x="284" y="581" type="qcurve"/>
			<point x="256" y="581"/>
			<point x="219" y="547"/>
			<point x="196" y="485"/>
			<point x="186" y="400"/>
			<point x="186" y="348" type="qcurve"/>
			<point x="186" y="296"/>
			<point x="196" y="210"/>
			<point x="219" y="148"/>
			<point x="256" y="114"/>
			<point x="284" y="114" type="qcurve"/>
			<point x="312" y="114"/>
			<point x="350" y="148"/>
			<point x="372" y="210"/>
			<point x="382" y="296"/>
		</contour>
	</outline>
</glyph>
<glyph name="six" format="2">
	<unicode hex="0036"/>
	<advance width="568"/>
	<outline>
		<contour>
			<point x="274" y="326" type="qcurve"/>
			<point x="252" y="326"/>
			<point x="202" y="318"/>
			<point x="188" y="311" type="qcurve"/>
			<point x="188" y="307"/>
			<point x="187" y="291"/>
			<point x="187" y="285" type="qcurve"/>
			<point x="187" y="249"/>
			<point x="197" y="185"/>
			<point x="221" y="137"/>
			<point x="261" y="110"/>
			<point x="291" y="110" type="qcurve"/>
			<point x="316" y="110"/>
			<point x="351" y="131"/>
			<point x="374" y="163"/>
			<point x="385" y="202"/>
			<point x="385" y="220" type="qcurve"/>
			<point x="385" y="271"/>
			<point x="334" y="326"/>
		</contour>
		<contour>
			<point x="293" y="442" type="qcurve"/>
			<point x="358" y="442"/>
			<point x="449" y="407"/>
			<point x="507" y="347"/>
			<point x="533" y="267"/>
			<point x="533" y="222" type="qcurve"/>
			<point x="533" y="182"/>
			<point x="504" y="98"/>
			<point x="445" y="30"/>
			<point x="354" y="-14"/>
			<point x="292" y="-14" type="qcurve"/>
			<point x="167" y="-14"/>
			<point x="37" y="144"/>
			<point x="37" y="283" type="qcurve"/>
			<point x="37" y="383"/>
			<point x="99" y="537"/>
			<point x="214" y="642"/>
			<point x="377" y="697"/>
			<point x="479" y="698" type="qcurve"/>
			<point x="481" y="667"/>
			<point x="485" y="608"/>
			<point x="487" y="576" type="qcurve"/>
			<point x="436" y="575"/>
			<point x="347" y="558"/>
			<point x="274" y="522"/>
			<point x="220" y="465"/>
			<point x="205" y="424" type="qcurve"/>
			<point x="227" y="434"/>
			<point x="273" y="442"/>
		</contour>
	</outline>
</glyph>
<glyph name="seven" format="2">
  <advance width="568"/>
  <unicode hex="0037"/>
  <outline>
    <contour>
      <point x="293" y="0" type="line"/>
      <point x="309" y="241"/>
      <point x="443" y="493"/>
      <point x="528" y="586" type="curve"/>
      <point x="528" y="694" type="line"/>
      <point x="43" y="694" type="line"/>
      <point x="43" y="567" type="line"/>
      <point x="344" y="567" type="line"/>
      <point x="250" y="435"/>
      <point x="158" y="194"/>
      <point x="142" y="0" type="curve"/>
    </contour>
  </outline>
</glyph>
<glyph name="eight" format="2">
  <advance width="568"/>
  <unicode hex="0038"/>
  <outline>
    <contour>
      <point x="283" y="-14" type="curve" smooth="yes"/>
      <point x="447" y="-14"/>
      <point x="530" y="74"/>
      <point x="530" y="193" type="curve" smooth="yes"/>
      <point x="530" y="265"/>
      <point x="500" y="316"/>
      <point x="424" y="365" type="curve"/>
      <point x="475" y="397"/>
      <point x="513" y="456"/>
      <point x="513" y="520" type="curve" smooth="yes"/>
      <point x="513" y="607"/>
      <point x="448" y="709"/>
      <point x="284" y="709" type="curve" smooth="yes"/>
      <point x="145" y="709"/>
      <point x="54" y="615"/>
      <point x="54" y="507" type="curve" smooth="yes"/>
      <point x="54" y="436"/>
      <point x="81" y="398"/>
      <point x="138" y="351" type="curve"/>
      <point x="86" y="312"/>
      <point x="39" y="261"/>
      <point x="39" y="181" type="curve" smooth="yes"/>
      <point x="39" y="103"/>
      <point x="97" y="-14"/>
    </contour>
    <contour>
      <point x="284" y="106" type="curve" smooth="yes"/>
      <point x="212" y="106"/>
      <point x="184" y="154"/>
      <point x="184" y="187" type="curve" smooth="yes"/>
      <point x="184" y="239"/>
      <point x="213" y="275"/>
      <point x="250" y="303" type="curve"/>
      <point x="325" y="279"/>
      <point x="384" y="249"/>
      <point x="384" y="187" type="curve" smooth="yes"/>
      <point x="384" y="146"/>
      <point x="353" y="106"/>
    </contour>
    <contour>
      <point x="303" y="406" type="curve"/>
      <point x="227" y="433"/>
      <point x="199" y="471"/>
      <point x="199" y="514" type="curve" smooth="yes"/>
      <point x="199" y="546"/>
      <point x="225" y="589"/>
      <point x="284" y="589" type="curve" smooth="yes"/>
      <point x="345" y="589"/>
      <point x="369" y="544"/>
      <point x="369" y="516" type="curve" smooth="yes"/>
      <point x="369" y="465"/>
      <point x="346" y="433"/>
    </contour>
  </outline>
</glyph>
<glyph name="less" format="2">
	<unicode hex="003C"/>
	<advance width="568"/>
	<outline>
		<contour>
			<point x="50" y="361" type="line"/>
			<point x="480" y="542" type="line"/>
			<point x="519" y="421" type="line"/>
			<point x="205" y="299" type="line"/>
			<point x="519" y="177" type="line"/>
			<point x="480" y="56" type="line"/>
			<point x="50" y="237" type="line"/>
		</contour>
	</outline>
</glyph>
<glyph name="K" format="2">
  <advance width="684"/>
  <unicode hex="004B"/>
  <outline>
    <contour>
      <point x="674" y="0" type="line"/>
      <point x="579" y="153"/>
      <point x="476" y="282"/>
      <point x="365" y="374" type="curve"/>
      <point x="470" y="479"/>
      <point x="563" y="581"/>
      <point x="658" y="693" type="curve"/>
      <point x="473" y="693" type="line"/>
      <point x="402" y="614"/>
      <point x="317" y="516"/>
      <point x="236" y="431" type="curve"/>
      <point x="236" y="693" type="line"/>
      <point x="80" y="693" type="line"/>
      <point x="80" y="0" type="line"/>
      <point x="236" y="0" type="line"/>
      <point x="236" y="293" type="line"/>
      <point x="332" y="219"/>
      <point x="433" y="90"/>
      <point x="489" y="0" type="curve"/>
    </contour>
  </outline>
</glyph>
<glyph name="L" format="2">
  <advance width="563"/>
  <unicode hex="004C"/>
  <outline>
    <contour>
      <point x="236" y="134" type="line"/>
      <point x="236" y="693" type="line"/>
      <point x="80" y="693" type="line"/>
      <point x="80" y="0" type="line"/>
      <point x="543" y="0" type="line"/>
      <point x="543" y="134" type="line"/>
    </contour>
  </outline>
</glyph>
<glyph name="N" format="2">
  <advance width="756"/>
  <unicode hex="004E"/>
  <anchor x="378" y="0" name="bottom"/>
  <anchor x="378" y="693" name="top"/>
  <outline>
    <contour>
      <point x="80" y="0" type="line"/>
      <point x="234" y="0" type="line"/>
      <point x="234" y="454" type="line"/>
      <point x="351" y="317"/>
      <point x="456" y="159"/>
      <point x="545" y="0" type="curve"/>
      <point x="676" y="0" type="line"/>
      <point x="676" y="693" type="line"/>
      <point x="521" y="693" type="line"/>
      <point x="521" y="284" type="line"/>
      <point x="425" y="429"/>
      <point x="296" y="604"/>
      <point x="207" y="693" type="curve"/>
      <point x="80" y="693" type="line"/>
    </contour>
  </outline>
</glyph>
<glyph name="O" format="2">
	<unicode hex="004F"/>
	<advance width="790"/>
	<outline>
		<contour>
			<point x="211" y="347" type="qcurve"/>
			<point x="211" y="296"/>
			<point x="236" y="214"/>
			<point x="283" y="155"/>
			<point x="351" y="123"/>
			<point x="395" y="123" type="qcurve"/>
			<point x="438" y="123"/>
			<point x="507" y="155"/>
			<point x="554" y="214"/>
			<point x="579" y="296"/>
			<point x="579" y="347" type="qcurve"/>
			<point x="579" y="398"/>
			<point x="554" y="481"/>
			<point x="507" y="540"/>
			<point x="438" y="572"/>
			<point x="395" y="572" type="qcurve"/>
			<point x="351" y="572"/>
			<point x="283" y="539"/>
			<point x="236" y="480"/>
			<point x="211" y="397"/>
		</contour>
		<contour>
			<point x="740" y="347" type="qcurve"/>
			<point x="740" y="258"/>
			<point x="687" y="123"/>
			<point x="595" y="32"/>
			<point x="468" y="-14"/>
			<point x="395" y="-14" type="qcurve"/>
			<point x="324" y="-14"/>
			<point x="198" y="32"/>
			<point x="104" y="123"/>
			<point x="50" y="258"/>
			<point x="50" y="347" type="qcurve"/>
			<point x="50" y="436"/>
			<point x="106" y="571"/>
			<point x="201" y="663"/>
			<point x="326" y="709"/>
			<point x="395" y="709" type="qcurve"/>
			<point x="466" y="709"/>
			<point x="592" y="663"/>
			<point x="686" y="571"/>
			<point x="740" y="436"/>
		</contour>
	</outline>
</glyph>
<glyph name="P" format="2">
	<unicode hex="0050"/>
	<advance width="644"/>
	<outline>
		<contour>
			<point x="288" y="701" type="qcurve"/>
			<point x="443" y="701"/>
			<point x="609" y="592"/>
			<point x="609" y="468" type="qcurve"/>
			<point x="609" y="343"/>
			<point x="441" y="232"/>
			<point x="285" y="232" type="qcurve"/>
			<point x="236" y="232" type="line"/>
			<point x="236" y="0" type="line"/>
			<point x="80" y="0" type="line"/>
			<point x="80" y="683" type="line"/>
			<point x="131" y="693"/>
			<point x="245" y="701"/>
		</contour>
		<contour>
			<point x="298" y="568" type="qcurve"/>
			<point x="281" y="568"/>
			<point x="248" y="566"/>
			<point x="236" y="565" type="qcurve"/>
			<point x="236" y="365" type="line"/>
			<point x="285" y="365" type="line"/>
			<point x="366" y="365"/>
			<point x="448" y="409"/>
			<point x="448" y="469" type="qcurve"/>
			<point x="448" y="498"/>
			<point x="427" y="536"/>
			<point x="388" y="559"/>
			<point x="332" y="568"/>
		</contour>
	</outline>
</glyph>
<glyph name="Q" format="2">
  <advance width="790"/>
  <unicode hex="0051"/>
  <outline>
    <contour>
      <point x="211" y="347" type="curve" smooth="yes"/>
      <point x="211" y="480"/>
      <point x="279" y="572"/>
      <point x="395" y="572" type="curve" smooth="yes"/>
      <point x="511" y="572"/>
      <point x="579" y="483"/>
      <point x="579" y="347" type="curve" smooth="yes"/>
      <point x="579" y="212"/>
      <point x="511" y="123"/>
      <point x="395" y="123" type="curve" smooth="yes"/>
      <point x="279" y="123"/>
      <point x="211" y="212"/>
    </contour>
    <contour>
      <point x="740" y="347" type="curve" smooth="yes"/>
      <point x="740" y="584"/>
      <point x="585" y="709"/>
      <point x="395" y="709" type="curve" smooth="yes"/>
      <point x="211" y="709"/>
      <point x="50" y="584"/>
      <point x="50" y="347" type="curve" smooth="yes"/>
      <point x="50" y="133"/>
      <point x="175" y="11"/>
      <point x="340" y="-10" type="curve"/>
      <point x="372" y="-122"/>
      <point x="455" y="-180"/>
      <point x="663" y="-188" type="curve"/>
      <point x="695" y="-74" type="line"/>
      <point x="588" y="-66"/>
      <point x="508" y="-55"/>
      <point x="495" y="-2" type="curve"/>
      <point x="639" y="33"/>
      <point x="740" y="153"/>
    </contour>
  </outline>
</glyph>
<glyph name="R" format="2">
  <advance width="667"/>
  <unicode hex="0052"/>
  <anchor x="334" y="0" name="bottom"/>
  <anchor x="334" y="693" name="top"/>
  <outline>
    <contour>
      <point x="80" y="0" type="line"/>
      <point x="236" y="0" type="line"/>
      <point x="236" y="253" type="line"/>
      <point x="313" y="253" type="line"/>
      <point x="313" y="253"/>
      <point x="313" y="253"/>
      <point x="313" y="253" type="curve"/>
      <point x="366" y="190"/>
      <point x="421" y="91"/>
      <point x="472" y="0" type="curve"/>
      <point x="647" y="0" type="line"/>
      <point x="599" y="102"/>
      <point x="532" y="213"/>
      <point x="475" y="283" type="curve"/>
      <point x="559" y="318"/>
      <point x="605" y="376"/>
      <point x="605" y="473" type="curve" smooth="yes"/>
      <point x="605" y="629"/>
      <point x="491" y="701"/>
      <point x="283" y="701" type="curve" smooth="yes"/>
      <point x="226" y="701"/>
      <point x="148" y="696"/>
      <point x="80" y="683" type="curve"/>
    </contour>
    <contour>
      <point x="236" y="377" type="line"/>
      <point x="236" y="565" type="line"/>
      <point x="252" y="566"/>
      <point x="269" y="568"/>
      <point x="292" y="568" type="curve" smooth="yes"/>
      <point x="392" y="568"/>
      <point x="444" y="542"/>
      <point x="444" y="474" type="curve" smooth="yes"/>
      <point x="444" y="403"/>
      <point x="397" y="377"/>
      <point x="280" y="377" type="curve" smooth="yes"/>
    </contour>
  </outline>
</glyph>
<glyph name="U" format="2">
	<unicode hex="0055"/>
	<advance width="707"/>
	<outline>
		<contour>
			<point x="351" y="-14" type="qcurve"/>
			<point x="278" y="-14"/>
			<point x="172" y="27"/>
			<point x="103" y="100"/>
			<point x="70" y="201"/>
			<point x="70" y="262" type="qcurve"/>
			<point x="70" y="693" type="line"/>
			<point x="226" y="693" type="line"/>
			<point x="226" y="275" type="line"/>
			<point x="226" y="233"/>
			<point x="245" y="174"/>
			<point x="278" y="137"/>
			<point x="325" y="121"/>
			<point x="353" y="121" type="qcurve"/>
			<point x="410" y="121"/>
			<point x="481" y="191"/>
			<point x="481" y="275" type="qcurve"/>
			<point x="481" y="693" type="line"/>
			<point x="637" y="693" type="line"/>
			<point x="637" y="262" type="line"/>
			<point x="637" y="201"/>
			<point x="603" y="99"/>
			<point x="533" y="26"/>
			<point x="425" y="-14"/>
		</contour>
	</outline>
</glyph>
<glyph name="V" format="2">
	<unicode hex="0056"/>
	<advance width="722"/>
	<outline>
		<contour>
			<point x="286" y="0" type="line"/>
			<point x="245" y="87"/>
			<point x="165" y="275"/>
			<point x="93" y="459"/>
			<point x="32" y="627"/>
			<point x="10" y="693" type="qcurve"/>
			<point x="182" y="693" type="line"/>
			<point x="202" y="633"/>
			<point x="249" y="494"/>
			<point x="298" y="356"/>
			<point x="344" y="230"/>
			<point x="364" y="184" type="qcurve"/>
			<point x="383" y="230"/>
			<point x="430" y="356"/>
			<point x="479" y="494"/>
			<point x="526" y="633"/>
			<point x="546" y="693" type="qcurve"/>
			<point x="712" y="693" type="line"/>
			<point x="689" y="627"/>
			<point x="629" y="459"/>
			<point x="557" y="275"/>
			<point x="477" y="87"/>
			<point x="436" y="0" type="qcurve"/>
		</contour>
	</outline>
</glyph>
<glyph name="Y" format="2">
  <advance width="661"/>
  <unicode hex="0059"/>
  <outline>
    <contour>
      <point x="334" y="408" type="curve"/>
      <point x="278" y="503"/>
      <point x="229" y="597"/>
      <point x="186" y="693" type="curve"/>
      <point x="5" y="693" type="line"/>
      <point x="81" y="544"/>
      <point x="162" y="404"/>
      <point x="253" y="263" type="curve"/>
      <point x="253" y="0" type="line"/>
      <point x="409" y="0" type="line"/>
      <point x="409" y="265" type="line"/>
      <point x="500" y="406"/>
      <point x="580" y="544"/>
      <point x="656" y="693" type="curve"/>
      <point x="484" y="693" type="line"/>
      <point x="441" y="597"/>
      <point x="390" y="503"/>
    </contour>
  </outline>
</glyph>
<glyph name="backslash" format="2">
	<unicode hex="005C"/>
	<advance width="437"/>
	<outline>
		<contour>
			<point x="-25" y="783" type="line"/>
			<point x="126" y="783" type="line"/>
			<point x="462" y="-185" type="line"/>
			<point x="309" y="-185" type="line"/>
		</contour>
	</outline>
</glyph>
<glyph name="asciicircum" format="2">
  <advance width="568"/>
  <unicode hex="005E"/>
  <outline>
    <contour>
      <point x="343" y="697" type="line"/>
      <point x="225" y="697" type="line"/>
      <point x="18" y="350" type="line"/>
      <point x="143" y="289" type="line"/>
      <point x="284" y="534" type="line"/>
      <point x="425" y="289" type="line"/>
      <point x="550" y="350" type="line"/>
    </contour>
  </outline>
</glyph>
<glyph name="grave" format="2">
  <advance width="286"/>
  <unicode hex="0060"/>
  <outline>
    <contour>
      <point x="20" y="715" type="line"/>
      <point x="185" y="576" type="line"/>
      <point x="253" y="637" type="line"/>
      <point x="111" y="799" type="line"/>
    </contour>
  </outline>
</glyph>
<glyph name="b" format="2">
  <advance width="604"/>
  <unicode hex="0062"/>
  <outline>
    <contour>
      <point x="407" y="267" type="curve" smooth="yes"/>
      <point x="407" y="175"/>
      <point x="365" y="114"/>
      <point x="284" y="114" type="curve" smooth="yes"/>
      <point x="257" y="114"/>
      <point x="234" y="116"/>
      <point x="219" y="119" type="curve"/>
      <point x="219" y="390" type="line"/>
      <point x="238" y="402"/>
      <point x="270" y="411"/>
      <point x="301" y="411" type="curve" smooth="yes"/>
      <point x="372" y="411"/>
      <point x="407" y="363"/>
    </contour>
    <contour>
      <point x="559" y="263" type="curve" smooth="yes"/>
      <point x="559" y="428"/>
      <point x="478" y="537"/>
      <point x="329" y="537" type="curve" smooth="yes"/>
      <point x="288" y="537"/>
      <point x="252" y="529"/>
      <point x="219" y="514" type="curve"/>
      <point x="219" y="776" type="line"/>
      <point x="70" y="752" type="line"/>
      <point x="70" y="17" type="line"/>
      <point x="123" y="1"/>
      <point x="213" y="-13"/>
      <point x="285" y="-13" type="curve" smooth="yes"/>
      <point x="458" y="-13"/>
      <point x="559" y="95"/>
    </contour>
  </outline>
</glyph>
<glyph name="d" format="2">
  <advance width="604"/>
  <unicode hex="0064"/>
  <outline>
    <contour>
      <point x="197" y="267" type="curve" smooth="yes"/>
      <point x="197" y="363"/>
      <point x="232" y="411"/>
      <point x="303" y="411" type="curve" smooth="yes"/>
      <point x="334" y="411"/>
      <point x="366" y="402"/>
      <point x="385" y="390" type="curve"/>
      <point x="385" y="119" type="line"/>
      <point x="370" y="116"/>
      <point x="347" y="114"/>
      <point x="320" y="114" type="curve" smooth="yes"/>
      <point x="239" y="114"/>
      <point x="197" y="175"/>
    </contour>
    <contour>
      <point x="534" y="776" type="line"/>
      <point x="385" y="752" type="line"/>
      <point x="385" y="514" type="line"/>
      <point x="352" y="529"/>
      <point x="321" y="537"/>
      <point x="280" y="537" type="curve" smooth="yes"/>
      <point x="132" y="537"/>
      <point x="45" y="432"/>
      <point x="45" y="260" type="curve" smooth="yes"/>
      <point x="45" y="92"/>
      <point x="146" y="-13"/>
      <point x="319" y="-13" type="curve" smooth="yes"/>
      <point x="391" y="-13"/>
      <point x="481" y="1"/>
      <point x="534" y="17" type="curve"/>
    </contour>
  </outline>
</glyph>
<glyph name="e" format="2">
  <advance width="584"/>
  <unicode hex="0065"/>
  <outline>
    <contour>
      <point x="45" y="259" type="curve" smooth="yes"/>
      <point x="45" y="104"/>
      <point x="133" y="-14"/>
      <point x="323" y="-14" type="curve" smooth="yes"/>
      <point x="398" y="-14"/>
      <point x="476" y="3"/>
      <point x="508" y="19" type="curve"/>
      <point x="488" y="140" type="line"/>
      <point x="455" y="125"/>
      <point x="398" y="114"/>
      <point x="343" y="114" type="curve" smooth="yes"/>
      <point x="258" y="114"/>
      <point x="205" y="153"/>
      <point x="198" y="214" type="curve"/>
      <point x="536" y="214" type="line"/>
      <point x="537" y="230"/>
      <point x="539" y="253"/>
      <point x="539" y="270" type="curve" smooth="yes"/>
      <point x="539" y="447"/>
      <point x="446" y="540"/>
      <point x="297" y="540" type="curve" smooth="yes"/>
      <point x="169" y="540"/>
      <point x="45" y="445"/>
    </contour>
    <contour>
      <point x="198" y="316" type="line"/>
      <point x="206" y="368"/>
      <point x="231" y="417"/>
      <point x="299" y="417" type="curve" smooth="yes"/>
      <point x="367" y="417"/>
      <point x="392" y="366"/>
      <point x="395" y="316" type="curve"/>
    </contour>
  </outline>
</glyph>
<glyph name="q" format="2">
	<unicode hex="0071"/>
	<advance width="604"/>
	<outline>
		<contour>
			<point x="197" y="259" type="qcurve"/>
			<point x="197" y="116"/>
			<point x="303" y="116" type="qcurve"/>
			<point x="326" y="116"/>
			<point x="371" y="128"/>
			<point x="385" y="137" type="qcurve"/>
			<point x="385" y="406" type="line"/>
			<point x="374" y="408"/>
			<point x="340" y="411"/>
			<point x="320" y="411" type="qcurve"/>
			<point x="259" y="411"/>
			<point x="197" y="328"/>
		</contour>
		<contour>
			<point x="45" y="263" type="qcurve"/>
			<point x="45" y="324"/>
			<point x="82" y="425"/>
			<point x="152" y="498"/>
			<point x="254" y="538"/>
			<point x="319" y="538" type="qcurve"/>
			<point x="346" y="538"/>
			<point x="405" y="533"/>
			<point x="462" y="525"/>
			<point x="514" y="514"/>
			<point x="534" y="508" type="qcurve"/>
			<point x="534" y="-185" type="line"/>
			<point x="385" y="-185" type="line"/>
			<point x="385" y="13" type="line"/>
			<point x="360" y="2"/>
			<point x="306" y="-10"/>
			<point x="275" y="-10" type="qcurve"/>
			<point x="163" y="-10"/>
			<point x="45" y="137"/>
		</contour>
	</outline>
</glyph>
<glyph name="s" format="2">
  <advance width="485"/>
  <unicode hex="0073"/>
  <outline>
    <contour>
      <point x="221" y="107" type="curve" smooth="yes"/>
      <point x="169" y="107"/>
      <point x="115" y="119"/>
      <point x="64" y="139" type="curve"/>
      <point x="39" y="18" type="line"/>
      <point x="63" y="7"/>
      <point x="127" y="-14"/>
      <point x="220" y="-14" type="curve" smooth="yes"/>
      <point x="363" y="-14"/>
      <point x="444" y="40"/>
      <point x="444" y="144" type="curve" smooth="yes"/>
      <point x="444" y="232"/>
      <point x="410" y="273"/>
      <point x="279" y="321" type="curve" smooth="yes"/>
      <point x="214" y="345"/>
      <point x="200" y="358"/>
      <point x="200" y="381" type="curve" smooth="yes"/>
      <point x="200" y="407"/>
      <point x="223" y="420"/>
      <point x="270" y="420" type="curve" smooth="yes"/>
      <point x="321" y="420"/>
      <point x="360" y="409"/>
      <point x="395" y="397" type="curve"/>
      <point x="421" y="513" type="line"/>
      <point x="386" y="526"/>
      <point x="323" y="540"/>
      <point x="259" y="540" type="curve" smooth="yes"/>
      <point x="131" y="540"/>
      <point x="53" y="479"/>
      <point x="53" y="380" type="curve" smooth="yes"/>
      <point x="53" y="278"/>
      <point x="114" y="243"/>
      <point x="207" y="208" type="curve" smooth="yes"/>
      <point x="267" y="185"/>
      <point x="296" y="170"/>
      <point x="296" y="146" type="curve" smooth="yes"/>
      <point x="296" y="115"/>
      <point x="276" y="107"/>
    </contour>
  </outline>
</glyph>
<glyph name="u" format="2">
	<unicode hex="0075"/>
	<advance width="589"/>
	<outline>
		<contour>
			<point x="519" y="18" type="line"/>
			<point x="481" y="7"/>
			<point x="361" y="-12"/>
			<point x="295" y="-12" type="qcurve"/>
			<point x="228" y="-12"/>
			<point x="139" y="24"/>
			<point x="87" y="89"/>
			<point x="65" y="179"/>
			<point x="65" y="233" type="qcurve"/>
			<point x="65" y="526" type="line"/>
			<point x="214" y="526" type="line"/>
			<point x="214" y="251" type="line"/>
			<point x="214" y="179"/>
			<point x="252" y="115"/>
			<point x="304" y="115" type="qcurve"/>
			<point x="320" y="115"/>
			<point x="356" y="118"/>
			<point x="370" y="120" type="qcurve"/>
			<point x="370" y="526" type="line"/>
			<point x="519" y="526" type="line"/>
		</contour>
	</outline>
</glyph>
<glyph name="y" format="2">
  <advance width="547"/>
  <unicode hex="0079"/>
  <outline>
    <contour>
      <point x="383" y="526" type="line"/>
      <point x="356" y="422"/>
      <point x="315" y="275"/>
      <point x="280" y="179" type="curve"/>
      <point x="243" y="275"/>
      <point x="195" y="422"/>
      <point x="168" y="526" type="curve"/>
      <point x="10" y="526" type="line"/>
      <point x="70" y="319"/>
      <point x="140" y="155"/>
      <point x="208" y="22" type="curve"/>
      <point x="188" y="-29"/>
      <point x="163" y="-59"/>
      <point x="110" y="-59" type="curve" smooth="yes"/>
      <point x="83" y="-59"/>
      <point x="62" y="-56"/>
      <point x="31" y="-45" type="curve"/>
      <point x="5" y="-164" type="line"/>
      <point x="30" y="-175"/>
      <point x="71" y="-185"/>
      <point x="118" y="-185" type="curve" smooth="yes"/>
      <point x="230" y="-185"/>
      <point x="280" y="-136"/>
      <point x="336" y="-17" type="curve" smooth="yes"/>
      <point x="413" y="150"/>
      <point x="477" y="323"/>
      <point x="537" y="526" type="curve"/>
    </contour>
  </outline>
</glyph>
<glyph name="asciitilde" format="2">
	<unicode hex="007E"/>
	<advance width="568"/>
	<outline>
		<contour>
			<point x="386" y="196" type="qcurve"/>
			<point x="356" y="196"/>
			<point x="303" y="220"/>
			<point x="254" y="248"/>
			<point x="209" y="272"/>
			<point x="187" y="272" type="qcurve"/>
			<point x="179" y="272"/>
			<point x="162" y="268"/>
			<point x="146" y="253"/>
			<point x="131" y="224"/>
			<point x="125" y="199" type="qcurve"/>
			<point x="23" y="227" type="line"/>
			<point x="28" y="255"/>
			<point x="50" y="317"/>
			<point x="87" y="369"/>
			<point x="143" y="403"/>
			<point x="182" y="403" type="qcurve"/>
			<point x="212" y="403"/>
			<point x="265" y="379"/>
			<point x="314" y="351"/>
			<point x="359" y="327"/>
			<point x="381" y="327" type="qcurve"/>
			<point x="389" y="327"/>
			<point x="406" y="331"/>
			<point x="422" y="346"/>
			<point x="437" y="375"/>
			<point x="443" y="400" type="qcurve"/>
			<point x="545" y="372" type="line"/>
			<point x="540" y="344"/>
			<point x="518" y="282"/>
			<point x="480" y="230"/>
			<point x="425" y="196"/>
		</contour>
	</outline>
</glyph>
<glyph name="exclamdown" format="2">
  <advance width="286"/>
  <unicode hex="00A1"/>
  <outline>
    <contour>
      <point x="223" y="4" type="line"/>
      <point x="223" y="112"/>
      <point x="214" y="201"/>
      <point x="201" y="297" type="curve"/>
      <point x="87" y="297" type="line"/>
      <point x="74" y="201"/>
      <point x="64" y="112"/>
      <point x="64" y="4" type="curve" smooth="yes"/>
      <point x="64" y="-180" type="line"/>
      <point x="223" y="-180" type="line"/>
    </contour>
    <contour>
      <point x="236" y="434" type="curve" smooth="yes"/>
      <point x="236" y="493"/>
      <point x="191" y="526"/>
      <point x="143" y="526" type="curve" smooth="yes"/>
      <point x="95" y="526"/>
      <point x="50" y="493"/>
      <point x="50" y="434" type="curve" smooth="yes"/>
      <point x="50" y="375"/>
      <point x="95" y="342"/>
      <point x="143" y="342" type="curve" smooth="yes"/>
      <point x="191" y="342"/>
      <point x="236" y="375"/>
    </contour>
  </outline>
</glyph>
<glyph name="cent" format="2">
	<unicode hex="00A2"/>
	<advance width="568"/>
	<outline>
		<contour>
			<point x="224" y="37" type="line"/>
			<point x="132" y="62"/>
			<point x="45" y="200"/>
			<point x="45" y="293" type="qcurve"/>
			<point x="45" y="337"/>
			<point x="69" y="418"/>
			<point x="116" y="484"/>
			<point x="182" y="533"/>
			<point x="224" y="546" type="qcurve"/>
			<point x="224" y="692" type="line"/>
			<point x="366" y="692" type="line"/>
			<point x="366" y="557" type="line"/>
			<point x="392" y="553"/>
			<point x="439" y="541"/>
			<point x="462" y="531" type="qcurve"/>
			<point x="429" y="412" type="line"/>
			<point x="408" y="420"/>
			<point x="359" y="432"/>
			<point x="328" y="432" type="qcurve"/>
			<point x="265" y="432"/>
			<point x="197" y="357"/>
			<point x="197" y="293" type="qcurve"/>
			<point x="197" y="225"/>
			<point x="261" y="154"/>
			<point x="334" y="154" type="qcurve"/>
			<point x="361" y="154"/>
			<point x="423" y="164"/>
			<point x="449" y="175" type="qcurve"/>
			<point x="470" y="53" type="line"/>
			<point x="450" y="45"/>
			<point x="398" y="32"/>
			<point x="366" y="28" type="qcurve"/>
			<point x="366" y="-109" type="line"/>
			<point x="224" y="-109" type="line"/>
		</contour>
	</outline>
</glyph>
<glyph name="ordfeminine" format="2">
	<unicode hex="00AA"/>
	<advance width="399"/>
	<outline>
		<contour>
			<point x="200" y="393" type="qcurve"/>
			<point x="216" y="393"/>
			<point x="245" y="395"/>
			<point x="254" y="396" type="qcurve"/>
			<point x="254" y="474" type="line"/>
			<point x="247" y="476"/>
			<point x="221" y="479"/>
			<point x="210" y="479" type="qcurve"/>
			<point x="180" y="479"/>
			<point x="136" y="463"/>
			<point x="136" y="437" type="qcurve"/>
			<point x="136" y="411"/>
			<point x="171" y="393"/>
		</contour>
		<contour>
			<point x="191" y="708" type="qcurve"/>
			<point x="239" y="708"/>
			<point x="304" y="687"/>
			<point x="344" y="647"/>
			<point x="361" y="591"/>
			<point x="361" y="555" type="qcurve"/>
			<point x="361" y="328" type="line"/>
			<point x="338" y="323"/>
			<point x="251" y="308"/>
			<point x="193" y="308" type="qcurve"/>
			<point x="114" y="308"/>
			<point x="24" y="364"/>
			<point x="24" y="434" type="qcurve"/>
			<point x="24" y="468"/>
			<point x="51" y="513"/>
			<point x="96" y="541"/>
			<point x="157" y="553"/>
			<point x="190" y="553" type="qcurve"/>
			<point x="210" y="553"/>
			<point x="243" y="549"/>
			<point x="254" y="547" type="qcurve"/>
			<point x="254" y="557" type="line"/>
			<point x="254" y="585"/>
			<point x="220" y="616"/>
			<point x="179" y="616" type="qcurve"/>
			<point x="151" y="616"/>
			<point x="95" y="608"/>
			<point x="75" y="601" type="qcurve"/>
			<point x="60" y="690" type="line"/>
			<point x="79" y="696"/>
			<point x="154" y="708"/>
		</contour>
	</outline>
</glyph>
<glyph name="twosuperior" format="2">
	<unicode hex="00B2"/>
	<advance width="363"/>
	<outline>
		<contour>
			<point x="312" y="586" type="qcurve"/>
			<point x="312" y="564"/>
			<point x="298" y="528"/>
			<point x="275" y="497"/>
			<point x="245" y="470"/>
			<point x="230" y="457" type="qcurve"/>
			<point x="213" y="443"/>
			<point x="177" y="408"/>
			<point x="166" y="393" type="qcurve"/>
			<point x="322" y="393" type="line"/>
			<point x="322" y="302" type="line"/>
			<point x="35" y="302" type="line"/>
			<point x="34" y="310"/>
			<point x="34" y="323"/>
			<point x="34" y="330" type="qcurve"/>
			<point x="34" y="379"/>
			<point x="87" y="458"/>
			<point x="138" y="501" type="qcurve"/>
			<point x="165" y="524"/>
			<point x="198" y="558"/>
			<point x="198" y="576" type="qcurve"/>
			<point x="198" y="591"/>
			<point x="180" y="609"/>
			<point x="163" y="609" type="qcurve"/>
			<point x="134" y="609"/>
			<point x="85" y="586"/>
			<point x="68" y="572" type="qcurve"/>
			<point x="16" y="650" type="line"/>
			<point x="42" y="672"/>
			<point x="123" y="709"/>
			<point x="168" y="709" type="qcurve"/>
			<point x="207" y="709"/>
			<point x="262" y="691"/>
			<point x="296" y="658"/>
			<point x="312" y="613"/>
		</contour>
	</outline>
</glyph>
<glyph name="threesuperior" format="2">
  <advance width="363"/>
  <unicode hex="00B3"/>
  <outline>
    <contour>
      <point x="149" y="388" type="curve" smooth="yes"/>
      <point x="112" y="388"/>
      <point x="85" y="391"/>
      <point x="40" y="410" type="curve"/>
      <point x="17" y="321" type="line"/>
      <point x="47" y="306"/>
      <point x="105" y="294"/>
      <point x="150" y="294" type="curve" smooth="yes"/>
      <point x="275" y="294"/>
      <point x="320" y="351"/>
      <point x="320" y="424" type="curve" smooth="yes"/>
      <point x="320" y="465"/>
      <point x="302" y="500"/>
      <point x="259" y="520" type="curve"/>
      <point x="290" y="544"/>
      <point x="301" y="569"/>
      <point x="301" y="597" type="curve" smooth="yes"/>
      <point x="301" y="657"/>
      <point x="267" y="709"/>
      <point x="159" y="709" type="curve" smooth="yes"/>
      <point x="111" y="709"/>
      <point x="56" y="691"/>
      <point x="23" y="670" type="curve"/>
      <point x="61" y="591" type="line"/>
      <point x="89" y="604"/>
      <point x="120" y="616"/>
      <point x="151" y="616" type="curve" smooth="yes"/>
      <point x="180" y="616"/>
      <point x="195" y="605"/>
      <point x="195" y="584" type="curve" smooth="yes"/>
      <point x="195" y="560"/>
      <point x="173" y="548"/>
      <point x="142" y="548" type="curve" smooth="yes"/>
      <point x="101" y="548" type="line"/>
      <point x="101" y="466" type="line"/>
      <point x="142" y="466" type="line" smooth="yes"/>
      <point x="189" y="466"/>
      <point x="212" y="452"/>
      <point x="212" y="425" type="curve" smooth="yes"/>
      <point x="212" y="404"/>
      <point x="196" y="388"/>
    </contour>
  </outline>
</glyph>
<glyph name="acute" format="2">
	<unicode hex="00B4"/>
	<advance width="286"/>
	<outline>
		<contour>
			<point x="259" y="715" type="line"/>
			<point x="94" y="576" type="line"/>
			<point x="26" y="637" type="line"/>
			<point x="168" y="799" type="line"/>
		</contour>
	</outline>
	<guideline y="579"/>
	<guideline y="789"/>
</glyph>
<glyph name="cedilla" format="2">
  <advance width="326"/>
  <unicode hex="00B8"/>
  <outline>
    <contour>
      <point x="215" y="-40" type="curve"/>
      <point x="222" y="-24"/>
      <point x="236" y="5"/>
      <point x="244" y="20" type="curve"/>
      <point x="145" y="20" type="line"/>
      <point x="138" y="8"/>
      <point x="114" y="-41"/>
      <point x="106" y="-67" type="curve"/>
      <point x="118" y="-70" type="line" smooth="yes"/>
      <point x="149" y="-77"/>
      <point x="162" y="-91"/>
      <point x="161" y="-107" type="curve" smooth="yes"/>
      <point x="160" y="-126"/>
      <point x="144" y="-132"/>
      <point x="125" y="-132" type="curve" smooth="yes"/>
      <point x="101" y="-132"/>
      <point x="72" y="-124"/>
      <point x="63" y="-121" type="curve"/>
      <point x="45" y="-208" type="line"/>
      <point x="74" y="-216"/>
      <point x="104" y="-221"/>
      <point x="133" y="-221" type="curve" smooth="yes"/>
      <point x="216" y="-221"/>
      <point x="271" y="-187"/>
      <point x="271" y="-123" type="curve" smooth="yes"/>
      <point x="271" y="-92"/>
      <point x="258" y="-61"/>
    </contour>
  </outline>
</glyph>
<glyph name="AE" format="2">
  <advance width="994"/>
  <unicode hex="00C6"/>
  <outline>
    <contour>
      <point x="490" y="0" type="line"/>
      <point x="959" y="0" type="line"/>
      <point x="959" y="131" type="line"/>
      <point x="641" y="131" type="line"/>
      <point x="641" y="298" type="line"/>
      <point x="901" y="298" type="line"/>
      <point x="901" y="426" type="line"/>
      <point x="641" y="426" type="line"/>
      <point x="641" y="562" type="line"/>
      <point x="936" y="562" type="line"/>
      <point x="936" y="693" type="line"/>
      <point x="436" y="693" type="line"/>
      <point x="311" y="518"/>
      <point x="173" y="292"/>
      <point x="10" y="0" type="curve"/>
      <point x="181" y="0" type="line"/>
      <point x="205" y="51"/>
      <point x="242" y="113"/>
      <point x="270" y="164" type="curve"/>
      <point x="490" y="164" type="line"/>
    </contour>
    <contour>
      <point x="490" y="288" type="line"/>
      <point x="333" y="288" type="line"/>
      <point x="379" y="363"/>
      <point x="447" y="481"/>
      <point x="490" y="542" type="curve"/>
    </contour>
  </outline>
</glyph>
<glyph name="Ccedilla" format="2">
	<unicode hex="00C7"/>
	<advance width="648"/>
	<outline>
		<contour>
			<point x="432" y="-13" type="qcurve"/>
			<point x="428" y="-21"/>
			<point x="422" y="-35"/>
			<point x="420" y="-40" type="qcurve"/>
			<point x="452" y="-56"/>
			<point x="476" y="-100"/>
			<point x="476" y="-123" type="qcurve"/>
			<point x="476" y="-171"/>
			<point x="400" y="-221"/>
			<point x="338" y="-221" type="qcurve"/>
			<point x="316" y="-221"/>
			<point x="272" y="-214"/>
			<point x="250" y="-208" type="qcurve"/>
			<point x="268" y="-121" type="line"/>
			<point x="275" y="-123"/>
			<point x="312" y="-132"/>
			<point x="330" y="-132" type="qcurve"/>
			<point x="344" y="-132"/>
			<point x="365" y="-121"/>
			<point x="366" y="-107" type="qcurve"/>
			<point x="367" y="-95"/>
			<point x="346" y="-75"/>
			<point x="323" y="-70" type="qcurve"/>
			<point x="311" y="-67" type="line"/>
			<point x="315" y="-55"/>
			<point x="328" y="-24"/>
			<point x="334" y="-10" type="qcurve"/>
			<point x="194" y="7"/>
			<point x="50" y="190"/>
			<point x="50" y="347" type="qcurve"/>
			<point x="50" y="433"/>
			<point x="104" y="568"/>
			<point x="198" y="661"/>
			<point x="328" y="709"/>
			<point x="404" y="709" type="qcurve"/>
			<point x="448" y="709"/>
			<point x="520" y="696"/>
			<point x="574" y="679"/>
			<point x="610" y="661"/>
			<point x="618" y="656" type="qcurve"/>
			<point x="573" y="530" type="line"/>
			<point x="541" y="547"/>
			<point x="456" y="571"/>
			<point x="402" y="571" type="qcurve"/>
			<point x="366" y="571"/>
			<point x="297" y="547"/>
			<point x="244" y="494"/>
			<point x="212" y="410"/>
			<point x="212" y="350" type="qcurve"/>
			<point x="212" y="302"/>
			<point x="233" y="219"/>
			<point x="280" y="159"/>
			<point x="356" y="124"/>
			<point x="410" y="124" type="qcurve"/>
			<point x="444" y="124"/>
			<point x="498" y="132"/>
			<point x="540" y="143"/>
			<point x="572" y="157"/>
			<point x="585" y="163" type="qcurve"/>
			<point x="628" y="38" type="line"/>
			<point x="599" y="20"/>
			<point x="498" y="-9"/>
		</contour>
	</outline>
</glyph>
<glyph name="multiply" format="2">
  <advance width="568"/>
  <unicode hex="00D7"/>
  <outline>
    <contour>
      <point x="284" y="386" type="line"/>
      <point x="149" y="522" type="line"/>
      <point x="62" y="435" type="line"/>
      <point x="198" y="299" type="line"/>
      <point x="62" y="164" type="line"/>
      <point x="149" y="77" type="line"/>
      <point x="284" y="213" type="line"/>
      <point x="420" y="77" type="line"/>
      <point x="507" y="164" type="line"/>
      <point x="371" y="299" type="line"/>
      <point x="507" y="435" type="line"/>
      <point x="420" y="522" type="line"/>
    </contour>
  </outline>
</glyph>
<glyph name="ccedilla" format="2">
  <advance width="500"/>
  <unicode hex="00E7"/>
  <outline>
    <contour>
      <point x="340" y="-13" type="line"/>
      <point x="393" y="-10"/>
      <point x="439" y="0"/>
      <point x="470" y="13" type="curve"/>
      <point x="449" y="135" type="line"/>
      <point x="414" y="120"/>
      <point x="370" y="114"/>
      <point x="334" y="114" type="curve" smooth="yes"/>
      <point x="233" y="114"/>
      <point x="197" y="168"/>
      <point x="197" y="263" type="curve" smooth="yes"/>
      <point x="197" y="352"/>
      <point x="240" y="412"/>
      <point x="328" y="412" type="curve" smooth="yes"/>
      <point x="369" y="412"/>
      <point x="402" y="403"/>
      <point x="430" y="392" type="curve"/>
      <point x="461" y="511" type="line"/>
      <point x="417" y="530"/>
      <point x="372" y="540"/>
      <point x="316" y="540" type="curve" smooth="yes"/>
      <point x="146" y="540"/>
      <point x="45" y="415"/>
      <point x="45" y="263" type="curve" smooth="yes"/>
      <point x="45" y="129"/>
      <point x="105" y="20"/>
      <point x="244" y="-7" type="curve"/>
      <point x="235" y="-26"/>
      <point x="224" y="-50"/>
      <point x="219" y="-67" type="curve"/>
      <point x="231" y="-70" type="line" smooth="yes"/>
      <point x="262" y="-77"/>
      <point x="275" y="-91"/>
      <point x="274" y="-107" type="curve" smooth="yes"/>
      <point x="273" y="-126"/>
      <point x="257" y="-132"/>
      <point x="238" y="-132" type="curve" smooth="yes"/>
      <point x="214" y="-132"/>
      <point x="185" y="-124"/>
      <point x="176" y="-121" type="curve"/>
      <point x="158" y="-208" type="line"/>
      <point x="187" y="-216"/>
      <point x="217" y="-221"/>
      <point x="246" y="-221" type="curve" smooth="yes"/>
      <point x="329" y="-221"/>
      <point x="384" y="-187"/>
      <point x="384" y="-123" type="curve" smooth="yes"/>
      <point x="384" y="-92"/>
      <point x="371" y="-61"/>
      <point x="328" y="-40" type="curve"/>
    </contour>
  </outline>
</glyph>
<glyph name="eth" format="2">
	<unicode hex="00F0"/>
	<advance width="601"/>
	<outline>
		<contour>
			<point x="483" y="603" type="line"/>
			<point x="518" y="543"/>
			<point x="558" y="403"/>
			<point x="558" y="324" type="qcurve"/>
			<point x="558" y="249"/>
			<point x="527" y="125"/>
			<point x="463" y="36"/>
			<point x="364" y="-14"/>
			<point x="296" y="-14" type="qcurve"/>
			<point x="233" y="-14"/>
			<point x="139" y="26"/>
			<point x="76" y="93"/>
			<point x="45" y="183"/>
			<point x="45" y="234" type="qcurve"/>
			<point x="45" y="289"/>
			<point x="76" y="381"/>
			<point x="138" y="445"/>
			<point x="232" y="481"/>
			<point x="295" y="481" type="qcurve"/>
			<point x="321" y="481"/>
			<point x="378" y="466"/>
			<point x="398" y="456" type="qcurve"/>
			<point x="386" y="509"/>
			<point x="355" y="559" type="qcurve"/>
			<point x="244" y="522" type="line"/>
			<point x="215" y="606" type="line"/>
			<point x="295" y="633" type="line"/>
			<point x="278" y="650"/>
			<point x="240" y="680"/>
			<point x="220" y="694" type="qcurve"/>
			<point x="303" y="780" type="line"/>
			<point x="338" y="760"/>
			<point x="401" y="709"/>
			<point x="428" y="678" type="qcurve"/>
			<point x="543" y="717" type="line"/>
			<point x="572" y="633" type="line"/>
		</contour>
		<contour>
			<point x="406" y="313" type="qcurve"/>
			<point x="406" y="315"/>
			<point x="406" y="324"/>
			<point x="405" y="329" type="qcurve"/>
			<point x="380" y="349"/>
			<point x="329" y="362"/>
			<point x="305" y="362" type="qcurve"/>
			<point x="273" y="362"/>
			<point x="231" y="342"/>
			<point x="205" y="308"/>
			<point x="195" y="262"/>
			<point x="195" y="236" type="qcurve"/>
			<point x="195" y="182"/>
			<point x="244" y="115"/>
			<point x="296" y="115" type="qcurve"/>
			<point x="329" y="115"/>
			<point x="372" y="148"/>
			<point x="397" y="203"/>
			<point x="406" y="275"/>
		</contour>
	</outline>
</glyph>
<glyph name="divide" format="2">
  <advance width="568"/>
  <unicode hex="00F7"/>
  <outline>
    <contour>
      <point x="370" y="501" type="curve" smooth="yes"/>
      <point x="370" y="556"/>
      <point x="329" y="585"/>
      <point x="285" y="585" type="curve" smooth="yes"/>
      <point x="241" y="585"/>
      <point x="200" y="556"/>
      <point x="200" y="501" type="curve" smooth="yes"/>
      <point x="200" y="446"/>
      <point x="241" y="417"/>
      <point x="285" y="417" type="curve" smooth="yes"/>
      <point x="329" y="417"/>
      <point x="370" y="446"/>
    </contour>
    <contour>
      <point x="370" y="96" type="curve" smooth="yes"/>
      <point x="370" y="151"/>
      <point x="329" y="180"/>
      <point x="285" y="180" type="curve" smooth="yes"/>
      <point x="241" y="180"/>
      <point x="200" y="151"/>
      <point x="200" y="96" type="curve" smooth="yes"/>
      <point x="200" y="41"/>
      <point x="241" y="12"/>
      <point x="285" y="12" type="curve" smooth="yes"/>
      <point x="329" y="12"/>
      <point x="370" y="41"/>
    </contour>
    <contour>
      <point x="49" y="236" type="line"/>
      <point x="519" y="236" type="line"/>
      <point x="519" y="361" type="line"/>
      <point x="49" y="361" type="line"/>
    </contour>
  </outline>
</glyph>
<glyph name="oslash" format="2">
	<unicode hex="00F8"/>
	<advance width="607"/>
	<outline>
		<contour>
			<point x="562" y="264" type="qcurve"/>
			<point x="562" y="202"/>
			<point x="526" y="99"/>
			<point x="458" y="26"/>
			<point x="363" y="-14"/>
			<point x="304" y="-14" type="qcurve"/>
			<point x="229" y="-14"/>
			<point x="170" y="20" type="qcurve"/>
			<point x="125" y="-39" type="line"/>
			<point x="55" y="14" type="line"/>
			<point x="104" y="77" type="line"/>
			<point x="75" y="113"/>
			<point x="45" y="207"/>
			<point x="45" y="264" type="qcurve"/>
			<point x="45" y="326"/>
			<point x="84" y="428"/>
			<point x="153" y="500"/>
			<point x="248" y="540"/>
			<point x="304" y="540" type="qcurve"/>
			<point x="341" y="540"/>
			<point x="407" y="523"/>
			<point x="435" y="507" type="qcurve"/>
			<point x="481" y="566" type="line"/>
			<point x="551" y="513" type="line"/>
			<point x="502" y="450" type="line"/>
			<point x="531" y="415"/>
			<point x="562" y="321"/>
		</contour>
		<contour>
			<point x="418" y="264" type="qcurve"/>
			<point x="418" y="298"/>
			<point x="410" y="330" type="qcurve"/>
			<point x="249" y="121" type="line"/>
			<point x="273" y="106"/>
			<point x="304" y="106" type="qcurve"/>
			<point x="358" y="106"/>
			<point x="418" y="191"/>
		</contour>
		<contour>
			<point x="189" y="264" type="qcurve"/>
			<point x="189" y="245"/>
			<point x="192" y="212"/>
			<point x="197" y="198" type="qcurve"/>
			<point x="357" y="406" type="line"/>
			<point x="334" y="420"/>
			<point x="304" y="420" type="qcurve"/>
			<point x="250" y="420"/>
			<point x="189" y="337"/>
		</contour>
	</outline>
</glyph>
<glyph name="Aogonek" format="2">
	<unicode hex="0104"/>
	<advance width="721"/>
	<outline>
		<contour>
			<point x="632" y="-221" type="qcurve"/>
			<point x="565" y="-221"/>
			<point x="507" y="-171"/>
			<point x="507" y="-130" type="qcurve"/>
			<point x="507" y="-109"/>
			<point x="525" y="-69"/>
			<point x="540" y="-50" type="qcurve"/>
			<point x="552" y="-35"/>
			<point x="579" y="-10"/>
			<point x="592" y="0" type="qcurve"/>
			<point x="544" y="0" type="line"/>
			<point x="533" y="36"/>
			<point x="506" y="112"/>
			<point x="493" y="150" type="qcurve"/>
			<point x="223" y="150" type="line"/>
			<point x="210" y="112"/>
			<point x="183" y="36"/>
			<point x="172" y="0" type="qcurve"/>
			<point x="10" y="0" type="line"/>
			<point x="49" y="112"/>
			<point x="119" y="302"/>
			<point x="186" y="470"/>
			<point x="251" y="621"/>
			<point x="286" y="693" type="qcurve"/>
			<point x="435" y="693" type="line"/>
			<point x="469" y="622"/>
			<point x="534" y="473"/>
			<point x="601" y="306"/>
			<point x="671" y="114"/>
			<point x="711" y="0" type="qcurve"/>
			<point x="700" y="-8"/>
			<point x="677" y="-30"/>
			<point x="666" y="-41" type="qcurve"/>
			<point x="653" y="-54"/>
			<point x="638" y="-77"/>
			<point x="638" y="-88" type="qcurve"/>
			<point x="638" y="-99"/>
			<point x="651" y="-113"/>
			<point x="668" y="-113" type="qcurve"/>
			<point x="677" y="-113"/>
			<point x="702" y="-110"/>
			<point x="719" y="-105" type="qcurve"/>
			<point x="731" y="-205" type="line"/>
			<point x="711" y="-213"/>
			<point x="655" y="-221"/>
		</contour>
		<contour>
			<point x="357" y="536" type="qcurve"/>
			<point x="352" y="521"/>
			<point x="332" y="469"/>
			<point x="306" y="401"/>
			<point x="275" y="319"/>
			<point x="259" y="274" type="qcurve"/>
			<point x="456" y="274" type="line"/>
			<point x="440" y="319"/>
			<point x="410" y="401"/>
			<point x="383" y="469"/>
			<point x="363" y="521"/>
		</contour>
	</outline>
</glyph>
<glyph name="dcroat" format="2">
	<unicode hex="0111"/>
	<advance width="606"/>
	<outline>
		<contour>
			<point x="534" y="689" type="line"/>
			<point x="596" y="689" type="line"/>
			<point x="596" y="596" type="line"/>
			<point x="534" y="596" type="line"/>
			<point x="534" y="17" type="line"/>
			<point x="514" y="11"/>
			<point x="462" y="0"/>
			<point x="405" y="-8"/>
			<point x="346" y="-13"/>
			<point x="319" y="-13" type="qcurve"/>
			<point x="254" y="-13"/>
			<point x="152" y="25"/>
			<point x="82" y="95"/>
			<point x="45" y="193"/>
			<point x="45" y="253" type="qcurve"/>
			<point x="45" y="314"/>
			<point x="77" y="413"/>
			<point x="137" y="484"/>
			<point x="224" y="523"/>
			<point x="280" y="523" type="qcurve"/>
			<point x="311" y="523"/>
			<point x="360" y="511"/>
			<point x="385" y="500" type="qcurve"/>
			<point x="385" y="596" type="line"/>
			<point x="242" y="596" type="line"/>
			<point x="242" y="689" type="line"/>
			<point x="385" y="689" type="line"/>
			<point x="385" y="752" type="line"/>
			<point x="534" y="776" type="line"/>
		</contour>
		<contour>
			<point x="197" y="260" type="qcurve"/>
			<point x="197" y="197"/>
			<point x="260" y="114"/>
			<point x="320" y="114" type="qcurve"/>
			<point x="360" y="114"/>
			<point x="385" y="119" type="qcurve"/>
			<point x="385" y="376" type="line"/>
			<point x="371" y="385"/>
			<point x="326" y="397"/>
			<point x="303" y="397" type="qcurve"/>
			<point x="249" y="397"/>
			<point x="197" y="326"/>
		</contour>
	</outline>
</glyph>
<glyph name="eogonek" format="2">
  <advance width="584"/>
  <unicode hex="0119"/>
  <outline>
    <contour>
      <point x="402" y="-221" type="curve" smooth="yes"/>
      <point x="433" y="-221"/>
      <point x="474" y="-216"/>
      <point x="501" y="-205" type="curve"/>
      <point x="489" y="-105" type="line"/>
      <point x="466" y="-112"/>
      <point x="450" y="-113"/>
      <point x="438" y="-113" type="curve" smooth="yes"/>
      <point x="415" y="-113"/>
      <point x="408" y="-103"/>
      <point x="408" y="-88" type="curve" smooth="yes"/>
      <point x="408" y="-73"/>
      <point x="419" y="-58"/>
      <point x="436" y="-41" type="curve" smooth="yes"/>
      <point x="457" y="-18"/>
      <point x="488" y="6"/>
      <point x="508" y="19" type="curve"/>
      <point x="488" y="140" type="line"/>
      <point x="455" y="125"/>
      <point x="398" y="114"/>
      <point x="343" y="114" type="curve" smooth="yes"/>
      <point x="258" y="114"/>
      <point x="205" y="153"/>
      <point x="198" y="214" type="curve"/>
      <point x="536" y="214" type="line"/>
      <point x="537" y="230"/>
      <point x="539" y="253"/>
      <point x="539" y="270" type="curve" smooth="yes"/>
      <point x="539" y="447"/>
      <point x="446" y="540"/>
      <point x="297" y="540" type="curve" smooth="yes"/>
      <point x="169" y="540"/>
      <point x="45" y="445"/>
      <point x="45" y="259" type="curve" smooth="yes"/>
      <point x="45" y="104"/>
      <point x="133" y="-14"/>
      <point x="323" y="-14" type="curve" smooth="yes"/>
      <point x="345" y="-14" type="line"/>
      <point x="333" y="-25"/>
      <point x="321" y="-35"/>
      <point x="310" y="-50" type="curve" smooth="yes"/>
      <point x="290" y="-75"/>
      <point x="277" y="-102"/>
      <point x="277" y="-130" type="curve" smooth="yes"/>
      <point x="277" y="-185"/>
      <point x="313" y="-221"/>
    </contour>
    <contour>
      <point x="198" y="316" type="line"/>
      <point x="206" y="368"/>
      <point x="231" y="417"/>
      <point x="299" y="417" type="curve" smooth="yes"/>
      <point x="367" y="417"/>
      <point x="392" y="366"/>
      <point x="395" y="316" type="curve"/>
    </contour>
  </outline>
</glyph>
<glyph name="Iogonek" format="2">
  <advance width="316"/>
  <unicode hex="012E"/>
  <outline>
    <contour>
      <point x="157" y="-221" type="curve" smooth="yes"/>
      <point x="188" y="-221"/>
      <point x="229" y="-216"/>
      <point x="256" y="-205" type="curve"/>
      <point x="244" y="-105" type="line"/>
      <point x="221" y="-112"/>
      <point x="205" y="-113"/>
      <point x="193" y="-113" type="curve" smooth="yes"/>
      <point x="170" y="-113"/>
      <point x="163" y="-103"/>
      <point x="163" y="-88" type="curve" smooth="yes"/>
      <point x="163" y="-59"/>
      <point x="217" y="-16"/>
      <point x="236" y="0" type="curve"/>
      <point x="236" y="693" type="line"/>
      <point x="80" y="693" type="line"/>
      <point x="80" y="0" type="line"/>
      <point x="117" y="0" type="line"/>
      <point x="82" y="-27"/>
      <point x="32" y="-76"/>
      <point x="32" y="-130" type="curve" smooth="yes"/>
      <point x="32" y="-185"/>
      <point x="68" y="-221"/>
    </contour>
  </outline>
</glyph>
<glyph name="lslash" format="2">
  <advance width="364"/>
  <unicode hex="0142"/>
  <outline>
    <contour>
      <point x="35" y="301" type="line"/>
      <point x="97" y="332" type="line"/>
      <point x="97" y="173" type="line" smooth="yes"/>
      <point x="97" y="61"/>
      <point x="135" y="-7"/>
      <point x="307" y="-10" type="curve"/>
      <point x="328" y="113" type="line"/>
      <point x="257" y="118"/>
      <point x="246" y="150"/>
      <point x="246" y="203" type="curve" smooth="yes"/>
      <point x="246" y="406" type="line"/>
      <point x="362" y="464" type="line"/>
      <point x="317" y="556" type="line"/>
      <point x="246" y="520" type="line"/>
      <point x="246" y="776" type="line"/>
      <point x="97" y="752" type="line"/>
      <point x="97" y="446" type="line"/>
      <point x="-10" y="393" type="line"/>
    </contour>
  </outline>
</glyph>
<glyph name="Eng" format="2">
  <advance width="756"/>
  <unicode hex="014A"/>
  <outline>
    <contour>
      <point x="521" y="21" type="line"/>
      <point x="521" y="-32"/>
      <point x="508" y="-61"/>
      <point x="465" y="-61" type="curve" smooth="yes"/>
      <point x="440" y="-61"/>
      <point x="432" y="-60"/>
      <point x="412" y="-53" type="curve"/>
      <point x="392" y="-174" type="line"/>
      <point x="424" y="-185"/>
      <point x="460" y="-187"/>
      <point x="479" y="-187" type="curve" smooth="yes"/>
      <point x="616" y="-187"/>
      <point x="676" y="-122"/>
      <point x="676" y="17" type="curve" smooth="yes"/>
      <point x="676" y="693" type="line"/>
      <point x="521" y="693" type="line"/>
      <point x="521" y="284" type="line"/>
      <point x="425" y="429"/>
      <point x="296" y="604"/>
      <point x="207" y="693" type="curve"/>
      <point x="80" y="693" type="line"/>
      <point x="80" y="0" type="line"/>
      <point x="234" y="0" type="line"/>
      <point x="234" y="454" type="line"/>
      <point x="339" y="329"/>
      <point x="437" y="187"/>
      <point x="521" y="42" type="curve"/>
    </contour>
  </outline>
</glyph>
<glyph name="eng" format="2">
	<unicode hex="014B"/>
	<advance width="589"/>
	<outline>
		<contour>
			<point x="375" y="279" type="line"/>
			<point x="375" y="351"/>
			<point x="337" y="411"/>
			<point x="285" y="411" type="qcurve"/>
			<point x="269" y="411"/>
			<point x="233" y="408"/>
			<point x="219" y="406" type="qcurve"/>
			<point x="219" y="0" type="line"/>
			<point x="70" y="0" type="line"/>
			<point x="70" y="508" type="line"/>
			<point x="108" y="519"/>
			<point x="228" y="538"/>
			<point x="294" y="538" type="qcurve"/>
			<point x="361" y="538"/>
			<point x="450" y="503"/>
			<point x="502" y="439"/>
			<point x="524" y="351"/>
			<point x="524" y="297" type="qcurve"/>
			<point x="524" y="3" type="line"/>
			<point x="524" y="-93"/>
			<point x="440" y="-185"/>
			<point x="337" y="-185" type="qcurve"/>
			<point x="324" y="-185"/>
			<point x="279" y="-181"/>
			<point x="257" y="-173" type="qcurve"/>
			<point x="275" y="-66" type="line"/>
			<point x="286" y="-69"/>
			<point x="307" y="-73"/>
			<point x="320" y="-73" type="qcurve"/>
			<point x="375" y="-73"/>
			<point x="375" y="-2" type="qcurve"/>
		</contour>
	</outline>
</glyph>
<glyph name="OE" format="2">
	<unicode hex="0152"/>
	<advance width="997"/>
	<outline>
		<contour>
			<point x="546" y="0" type="line"/>
			<point x="523" y="-3"/>
			<point x="466" y="-6"/>
			<point x="443" y="-6" type="qcurve"/>
			<point x="355" y="-6"/>
			<point x="210" y="36"/>
			<point x="107" y="123"/>
			<point x="50" y="256"/>
			<point x="50" y="347" type="qcurve"/>
			<point x="50" y="438"/>
			<point x="107" y="570"/>
			<point x="210" y="657"/>
			<point x="355" y="699"/>
			<point x="443" y="699" type="qcurve"/>
			<point x="466" y="699"/>
			<point x="523" y="696"/>
			<point x="546" y="693" type="qcurve"/>
			<point x="939" y="693" type="line"/>
			<point x="939" y="562" type="line"/>
			<point x="644" y="562" type="line"/>
			<point x="644" y="426" type="line"/>
			<point x="904" y="426" type="line"/>
			<point x="904" y="298" type="line"/>
			<point x="644" y="298" type="line"/>
			<point x="644" y="131" type="line"/>
			<point x="962" y="131" type="line"/>
			<point x="962" y="0" type="line"/>
		</contour>
		<contour>
			<point x="441" y="126" type="qcurve"/>
			<point x="453" y="126"/>
			<point x="474" y="126"/>
			<point x="493" y="127" type="qcurve"/>
			<point x="493" y="566" type="line"/>
			<point x="473" y="567"/>
			<point x="455" y="567"/>
			<point x="441" y="567" type="qcurve"/>
			<point x="324" y="567"/>
			<point x="210" y="454"/>
			<point x="210" y="347" type="qcurve"/>
			<point x="210" y="240"/>
			<point x="324" y="126"/>
		</contour>
	</outline>
</glyph>
<glyph name="oe" format="2">
  <advance width="937"/>
  <unicode hex="0153"/>
  <outline>
    <contour>
      <point x="676" y="-14" type="curve" smooth="yes"/>
      <point x="751" y="-14"/>
      <point x="829" y="3"/>
      <point x="861" y="19" type="curve"/>
      <point x="841" y="140" type="line"/>
      <point x="808" y="125"/>
      <point x="751" y="114"/>
      <point x="696" y="114" type="curve" smooth="yes"/>
      <point x="611" y="114"/>
      <point x="558" y="153"/>
      <point x="551" y="214" type="curve"/>
      <point x="889" y="214" type="line"/>
      <point x="890" y="230"/>
      <point x="892" y="253"/>
      <point x="892" y="270" type="curve" smooth="yes"/>
      <point x="892" y="447"/>
      <point x="799" y="540"/>
      <point x="650" y="540" type="curve" smooth="yes"/>
      <point x="590" y="540"/>
      <point x="529" y="517"/>
      <point x="481" y="454" type="curve"/>
      <point x="438" y="511"/>
      <point x="377" y="540"/>
      <point x="300" y="540" type="curve" smooth="yes"/>
      <point x="150" y="540"/>
      <point x="45" y="429"/>
      <point x="45" y="264" type="curve" smooth="yes"/>
      <point x="45" y="98"/>
      <point x="145" y="-14"/>
      <point x="300" y="-14" type="curve" smooth="yes"/>
      <point x="368" y="-14"/>
      <point x="430" y="16"/>
      <point x="474" y="69" type="curve"/>
      <point x="521" y="13"/>
      <point x="591" y="-14"/>
    </contour>
    <contour>
      <point x="410" y="264" type="curve" smooth="yes"/>
      <point x="410" y="172"/>
      <point x="372" y="114"/>
      <point x="304" y="114" type="curve" smooth="yes"/>
      <point x="236" y="114"/>
      <point x="197" y="172"/>
      <point x="197" y="264" type="curve" smooth="yes"/>
      <point x="197" y="356"/>
      <point x="236" y="412"/>
      <point x="304" y="412" type="curve" smooth="yes"/>
      <point x="372" y="412"/>
      <point x="410" y="356"/>
    </contour>
    <contour>
      <point x="551" y="316" type="line"/>
      <point x="559" y="368"/>
      <point x="584" y="417"/>
      <point x="652" y="417" type="curve" smooth="yes"/>
      <point x="720" y="417"/>
      <point x="745" y="366"/>
      <point x="748" y="316" type="curve"/>
    </contour>
  </outline>
</glyph>
<glyph name="Scedilla" format="2">
	<unicode hex="015E"/>
	<advance width="582"/>
	<outline>
		<contour>
			<point x="269" y="119" type="qcurve"/>
			<point x="302" y="119"/>
			<point x="345" y="130"/>
			<point x="371" y="149"/>
			<point x="381" y="175"/>
			<point x="381" y="191" type="qcurve"/>
			<point x="381" y="225"/>
			<point x="317" y="270"/>
			<point x="239" y="296" type="qcurve"/>
			<point x="205" y="308"/>
			<point x="137" y="339"/>
			<point x="83" y="386"/>
			<point x="49" y="453"/>
			<point x="49" y="501" type="qcurve"/>
			<point x="49" y="549"/>
			<point x="85" y="626"/>
			<point x="151" y="680"/>
			<point x="245" y="709"/>
			<point x="304" y="709" type="qcurve"/>
			<point x="374" y="709"/>
			<point x="476" y="679"/>
			<point x="509" y="661" type="qcurve"/>
			<point x="464" y="538" type="line"/>
			<point x="435" y="553"/>
			<point x="364" y="576"/>
			<point x="314" y="576" type="qcurve"/>
			<point x="258" y="576"/>
			<point x="209" y="545"/>
			<point x="209" y="513" type="qcurve"/>
			<point x="209" y="494"/>
			<point x="227" y="468"/>
			<point x="260" y="447"/>
			<point x="303" y="430"/>
			<point x="329" y="421" type="qcurve"/>
			<point x="383" y="401"/>
			<point x="463" y="362"/>
			<point x="516" y="310"/>
			<point x="542" y="240"/>
			<point x="542" y="190" type="qcurve"/>
			<point x="542" y="106"/>
			<point x="440" y="3"/>
			<point x="338" y="-10" type="qcurve"/>
			<point x="329" y="-26"/>
			<point x="324" y="-40" type="qcurve"/>
			<point x="356" y="-56"/>
			<point x="380" y="-100"/>
			<point x="380" y="-123" type="qcurve"/>
			<point x="380" y="-171"/>
			<point x="304" y="-221"/>
			<point x="242" y="-221" type="qcurve"/>
			<point x="220" y="-221"/>
			<point x="176" y="-214"/>
			<point x="154" y="-208" type="qcurve"/>
			<point x="172" y="-121" type="line"/>
			<point x="179" y="-123"/>
			<point x="216" y="-132"/>
			<point x="234" y="-132" type="qcurve"/>
			<point x="248" y="-132"/>
			<point x="269" y="-121"/>
			<point x="270" y="-107" type="qcurve"/>
			<point x="271" y="-95"/>
			<point x="250" y="-75"/>
			<point x="227" y="-70" type="qcurve"/>
			<point x="215" y="-67" type="line"/>
			<point x="219" y="-56"/>
			<point x="231" y="-27"/>
			<point x="237" y="-13" type="qcurve"/>
			<point x="159" y="-9"/>
			<point x="62" y="25"/>
			<point x="37" y="39" type="qcurve"/>
			<point x="81" y="163" type="line"/>
			<point x="112" y="146"/>
			<point x="203" y="119"/>
		</contour>
	</outline>
</glyph>
<glyph name="Uring" format="2">
  <advance width="707"/>
  <unicode hex="016E"/>
  <outline>
    <contour>
      <point x="346" y="-15" type="curve" smooth="yes"/>
      <point x="527" y="-15"/>
      <point x="609" y="103"/>
      <point x="609" y="258" type="curve" smooth="yes"/>
      <point x="609" y="693" type="line"/>
      <point x="512" y="693" type="line"/>
      <point x="512" y="269" type="line" smooth="yes"/>
      <point x="512" y="130"/>
      <point x="445" y="71"/>
      <point x="346" y="71" type="curve" smooth="yes"/>
      <point x="247" y="71"/>
      <point x="180" y="130"/>
      <point x="180" y="269" type="curve" smooth="yes"/>
      <point x="180" y="693" type="line"/>
      <point x="83" y="693" type="line"/>
      <point x="83" y="258" type="line" smooth="yes"/>
      <point x="83" y="103"/>
      <point x="164" y="-15"/>
    </contour>
    <contour>
      <point x="449" y="833" type="curve" smooth="yes"/>
      <point x="449" y="896"/>
      <point x="401" y="935"/>
      <point x="346" y="935" type="curve" smooth="yes"/>
      <point x="291" y="935"/>
      <point x="243" y="896"/>
      <point x="243" y="833" type="curve" smooth="yes"/>
      <point x="243" y="770"/>
      <point x="291" y="731"/>
      <point x="346" y="731" type="curve" smooth="yes"/>
      <point x="401" y="731"/>
      <point x="449" y="770"/>
    </contour>
    <contour>
      <point x="399" y="833" type="curve" smooth="yes"/>
      <point x="399" y="798"/>
      <point x="375" y="778"/>
      <point x="346" y="778" type="curve" smooth="yes"/>
      <point x="317" y="778"/>
      <point x="293" y="798"/>
      <point x="293" y="833" type="curve" smooth="yes"/>
      <point x="293" y="868"/>
      <point x="317" y="888"/>
      <point x="346" y="888" type="curve" smooth="yes"/>
      <point x="375" y="888"/>
      <point x="399" y="868"/>
    </contour>
  </outline>
</glyph>
<glyph name="uogonek" format="2">
	<unicode hex="0173"/>
	<advance width="589"/>
	<outline>
		<contour>
			<point x="422" y="-218" type="qcurve"/>
			<point x="355" y="-218"/>
			<point x="297" y="-168"/>
			<point x="297" y="-127" type="qcurve"/>
			<point x="297" y="-106"/>
			<point x="315" y="-66"/>
			<point x="330" y="-47" type="qcurve"/>
			<point x="338" y="-36"/>
			<point x="357" y="-17"/>
			<point x="366" y="-9" type="qcurve"/>
			<point x="350" y="-11"/>
			<point x="312" y="-12"/>
			<point x="295" y="-12" type="qcurve"/>
			<point x="228" y="-12"/>
			<point x="139" y="24"/>
			<point x="87" y="89"/>
			<point x="65" y="179"/>
			<point x="65" y="233" type="qcurve"/>
			<point x="65" y="526" type="line"/>
			<point x="214" y="526" type="line"/>
			<point x="214" y="251" type="line"/>
			<point x="214" y="179"/>
			<point x="252" y="115"/>
			<point x="304" y="115" type="qcurve"/>
			<point x="320" y="115"/>
			<point x="356" y="118"/>
			<point x="370" y="120" type="qcurve"/>
			<point x="370" y="526" type="line"/>
			<point x="519" y="526" type="line"/>
			<point x="519" y="18" type="line"/>
			<point x="509" y="10"/>
			<point x="473" y="-21"/>
			<point x="456" y="-38" type="qcurve"/>
			<point x="443" y="-51"/>
			<point x="428" y="-74"/>
			<point x="428" y="-85" type="qcurve"/>
			<point x="428" y="-96"/>
			<point x="441" y="-110"/>
			<point x="458" y="-110" type="qcurve"/>
			<point x="467" y="-110"/>
			<point x="492" y="-107"/>
			<point x="509" y="-102" type="qcurve"/>
			<point x="521" y="-202" type="line"/>
			<point x="501" y="-210"/>
			<point x="445" y="-218"/>
		</contour>
	</outline>
</glyph>
<glyph name="uni0180" format="2">
	<unicode hex="0180"/>
	<advance width="604"/>
	<outline>
		<contour>
			<point x="8" y="689" type="line"/>
			<point x="70" y="689" type="line"/>
			<point x="70" y="752" type="line"/>
			<point x="219" y="776" type="line"/>
			<point x="219" y="689" type="line"/>
			<point x="362" y="689" type="line"/>
			<point x="362" y="596" type="line"/>
			<point x="219" y="596" type="line"/>
			<point x="219" y="500" type="line"/>
			<point x="244" y="511"/>
			<point x="298" y="523"/>
			<point x="329" y="523" type="qcurve"/>
			<point x="385" y="523"/>
			<point x="471" y="483"/>
			<point x="529" y="413"/>
			<point x="559" y="314"/>
			<point x="559" y="256" type="qcurve"/>
			<point x="559" y="196"/>
			<point x="522" y="97"/>
			<point x="452" y="26"/>
			<point x="350" y="-13"/>
			<point x="285" y="-13" type="qcurve"/>
			<point x="258" y="-13"/>
			<point x="199" y="-8"/>
			<point x="142" y="0"/>
			<point x="90" y="11"/>
			<point x="70" y="17" type="qcurve"/>
			<point x="70" y="596" type="line"/>
			<point x="8" y="596" type="line"/>
		</contour>
		<contour>
			<point x="407" y="260" type="qcurve"/>
			<point x="407" y="325"/>
			<point x="354" y="397"/>
			<point x="301" y="397" type="qcurve"/>
			<point x="278" y="397"/>
			<point x="233" y="385"/>
			<point x="219" y="376" type="qcurve"/>
			<point x="219" y="119" type="line"/>
			<point x="230" y="117"/>
			<point x="264" y="114"/>
			<point x="284" y="114" type="qcurve"/>
			<point x="314" y="114"/>
			<point x="360" y="136"/>
			<point x="391" y="175"/>
			<point x="407" y="229"/>
		</contour>
	</outline>
</glyph>
<glyph name="uni0186" format="2">
  <advance width="648"/>
  <unicode hex="0186"/>
  <outline>
    <contour>
      <point x="252" y="709" type="curve" smooth="yes"/>
      <point x="147" y="709"/>
      <point x="64" y="684"/>
      <point x="20" y="657" type="curve"/>
      <point x="63" y="532" type="line"/>
      <point x="96" y="548"/>
      <point x="146" y="571"/>
      <point x="238" y="571" type="curve" smooth="yes"/>
      <point x="383" y="571"/>
      <point x="436" y="473"/>
      <point x="436" y="345" type="curve" smooth="yes"/>
      <point x="436" y="185"/>
      <point x="343" y="124"/>
      <point x="246" y="124" type="curve" smooth="yes"/>
      <point x="174" y="124"/>
      <point x="118" y="142"/>
      <point x="75" y="165" type="curve"/>
      <point x="30" y="39" type="line"/>
      <point x="52" y="26"/>
      <point x="126" y="-14"/>
      <point x="244" y="-14" type="curve" smooth="yes"/>
      <point x="447" y="-14"/>
      <point x="598" y="118"/>
      <point x="598" y="348" type="curve" smooth="yes"/>
      <point x="598" y="578"/>
      <point x="477" y="709"/>
    </contour>
  </outline>
</glyph>
<glyph name="uni0187" format="2">
	<unicode hex="0187"/>
	<advance width="720"/>
	<outline>
		<contour>
			<point x="396" y="-14" type="qcurve"/>
			<point x="227" y="-14"/>
			<point x="50" y="174"/>
			<point x="50" y="347" type="qcurve"/>
			<point x="50" y="433"/>
			<point x="104" y="568"/>
			<point x="198" y="661"/>
			<point x="328" y="709"/>
			<point x="404" y="709" type="qcurve"/>
			<point x="436" y="709"/>
			<point x="485" y="703"/>
			<point x="510" y="696" type="qcurve"/>
			<point x="531" y="749"/>
			<point x="599" y="786"/>
			<point x="649" y="786" type="qcurve"/>
			<point x="681" y="786"/>
			<point x="734" y="772"/>
			<point x="750" y="764" type="qcurve"/>
			<point x="714" y="645" type="line"/>
			<point x="702" y="650"/>
			<point x="677" y="656"/>
			<point x="662" y="656" type="qcurve"/>
			<point x="645" y="656"/>
			<point x="607" y="638"/>
			<point x="596" y="603" type="qcurve"/>
			<point x="573" y="530" type="line"/>
			<point x="541" y="547"/>
			<point x="456" y="571"/>
			<point x="402" y="571" type="qcurve"/>
			<point x="366" y="571"/>
			<point x="297" y="547"/>
			<point x="244" y="494"/>
			<point x="212" y="410"/>
			<point x="212" y="350" type="qcurve"/>
			<point x="212" y="302"/>
			<point x="233" y="219"/>
			<point x="280" y="159"/>
			<point x="356" y="124"/>
			<point x="410" y="124" type="qcurve"/>
			<point x="444" y="124"/>
			<point x="498" y="132"/>
			<point x="540" y="143"/>
			<point x="572" y="157"/>
			<point x="585" y="163" type="qcurve"/>
			<point x="628" y="38" type="line"/>
			<point x="595" y="18"/>
			<point x="475" y="-14"/>
		</contour>
	</outline>
</glyph>
<glyph name="uni0188" format="2">
  <advance width="548"/>
  <unicode hex="0188"/>
  <outline>
    <contour>
      <point x="45" y="263" type="curve" smooth="yes"/>
      <point x="45" y="107"/>
      <point x="126" y="-14"/>
      <point x="319" y="-14" type="curve" smooth="yes"/>
      <point x="382" y="-14"/>
      <point x="435" y="-2"/>
      <point x="470" y="13" type="curve"/>
      <point x="449" y="135" type="line"/>
      <point x="414" y="120"/>
      <point x="370" y="114"/>
      <point x="334" y="114" type="curve" smooth="yes"/>
      <point x="233" y="114"/>
      <point x="197" y="168"/>
      <point x="197" y="263" type="curve" smooth="yes"/>
      <point x="197" y="352"/>
      <point x="240" y="412"/>
      <point x="328" y="412" type="curve" smooth="yes"/>
      <point x="369" y="412"/>
      <point x="402" y="403"/>
      <point x="430" y="392" type="curve"/>
      <point x="447" y="456" type="line" smooth="yes"/>
      <point x="458" y="496"/>
      <point x="484" y="502"/>
      <point x="504" y="502" type="curve" smooth="yes"/>
      <point x="523" y="502"/>
      <point x="535" y="499"/>
      <point x="550" y="492" type="curve"/>
      <point x="583" y="603" type="line"/>
      <point x="564" y="612"/>
      <point x="532" y="622"/>
      <point x="495" y="622" type="curve" smooth="yes"/>
      <point x="434" y="622"/>
      <point x="394" y="600"/>
      <point x="369" y="536" type="curve"/>
      <point x="350" y="539"/>
      <point x="335" y="540"/>
      <point x="316" y="540" type="curve" smooth="yes"/>
      <point x="146" y="540"/>
      <point x="45" y="415"/>
    </contour>
  </outline>
</glyph>
<glyph name="uni018E" format="2">
  <advance width="606"/>
  <unicode hex="018E"/>
  <outline>
    <contour>
      <point x="526" y="0" type="line"/>
      <point x="526" y="693" type="line"/>
      <point x="58" y="693" type="line"/>
      <point x="58" y="562" type="line"/>
      <point x="370" y="562" type="line"/>
      <point x="370" y="426" type="line"/>
      <point x="93" y="426" type="line"/>
      <point x="93" y="298" type="line"/>
      <point x="370" y="298" type="line"/>
      <point x="370" y="131" type="line"/>
      <point x="35" y="131" type="line"/>
      <point x="35" y="0" type="line"/>
    </contour>
  </outline>
</glyph>
<glyph name="florin" format="2">
	<unicode hex="0192"/>
	<advance width="422"/>
	<outline>
		<contour>
			<point x="21" y="-185" type="qcurve"/>
			<point x="7" y="-185"/>
			<point x="-48" y="-179"/>
			<point x="-72" y="-171" type="qcurve"/>
			<point x="-52" y="-50" type="line"/>
			<point x="-37" y="-55"/>
			<point x="-12" y="-59"/>
			<point x="7" y="-59" type="qcurve"/>
			<point x="42" y="-59"/>
			<point x="70" y="-17"/>
			<point x="70" y="23" type="qcurve"/>
			<point x="70" y="554" type="line"/>
			<point x="70" y="656"/>
			<point x="185" y="776"/>
			<point x="298" y="776" type="qcurve"/>
			<point x="340" y="776"/>
			<point x="410" y="759"/>
			<point x="429" y="751" type="qcurve"/>
			<point x="400" y="632" type="line"/>
			<point x="380" y="641"/>
			<point x="333" y="650"/>
			<point x="313" y="650" type="qcurve"/>
			<point x="286" y="650"/>
			<point x="249" y="635"/>
			<point x="228" y="609"/>
			<point x="219" y="573"/>
			<point x="219" y="552" type="qcurve"/>
			<point x="219" y="526" type="line"/>
			<point x="403" y="526" type="line"/>
			<point x="403" y="402" type="line"/>
			<point x="219" y="402" type="line"/>
			<point x="219" y="19" type="line"/>
			<point x="219" y="-86"/>
			<point x="118" y="-185"/>
		</contour>
	</outline>
</glyph>
<glyph name="uni0194" format="2">
  <advance width="721"/>
  <unicode hex="0194"/>
  <anchor x="361" y="0" name="bottom"/>
  <anchor x="361" y="693" name="top"/>
  <outline>
    <contour>
      <point x="361" y="-185" type="curve" smooth="yes"/>
      <point x="469" y="-185"/>
      <point x="534" y="-127"/>
      <point x="535" y="-38" type="curve" smooth="yes"/>
      <point x="535" y="5"/>
      <point x="525" y="53"/>
      <point x="474" y="134" type="curve" smooth="yes"/>
      <point x="449" y="173" type="line"/>
      <point x="542" y="345"/>
      <point x="628" y="513"/>
      <point x="711" y="693" type="curve"/>
      <point x="544" y="693" type="line"/>
      <point x="485" y="554"/>
      <point x="426" y="434"/>
      <point x="363" y="301" type="curve"/>
      <point x="299" y="438"/>
      <point x="240" y="556"/>
      <point x="179" y="693" type="curve"/>
      <point x="10" y="693" type="line"/>
      <point x="94" y="522"/>
      <point x="183" y="342"/>
      <point x="274" y="173" type="curve"/>
      <point x="249" y="134" type="line"/>
      <point x="196" y="54"/>
      <point x="187" y="4"/>
      <point x="187" y="-38" type="curve" smooth="yes"/>
      <point x="188" y="-127"/>
      <point x="253" y="-185"/>
    </contour>
    <contour>
      <point x="361" y="-65" type="curve" smooth="yes"/>
      <point x="334" y="-65"/>
      <point x="319" y="-47"/>
      <point x="319" y="-24" type="curve" smooth="yes"/>
      <point x="319" y="15"/>
      <point x="341" y="55"/>
      <point x="361" y="86" type="curve"/>
      <point x="381" y="55"/>
      <point x="403" y="15"/>
      <point x="403" y="-24" type="curve" smooth="yes"/>
      <point x="403" y="-47"/>
      <point x="388" y="-65"/>
    </contour>
  </outline>
</glyph>
<glyph name="uni0195" format="2">
	<unicode hex="0195"/>
	<advance width="881"/>
	<outline>
		<contour>
			<point x="591" y="-14" type="qcurve"/>
			<point x="477" y="-14"/>
			<point x="365" y="102"/>
			<point x="365" y="227" type="qcurve"/>
			<point x="365" y="279" type="line"/>
			<point x="365" y="315"/>
			<point x="359" y="365"/>
			<point x="343" y="397"/>
			<point x="313" y="411"/>
			<point x="288" y="411" type="qcurve"/>
			<point x="268" y="411"/>
			<point x="233" y="404"/>
			<point x="219" y="400" type="qcurve"/>
			<point x="219" y="0" type="line"/>
			<point x="70" y="0" type="line"/>
			<point x="70" y="752" type="line"/>
			<point x="219" y="776" type="line"/>
			<point x="219" y="524" type="line"/>
			<point x="234" y="529"/>
			<point x="281" y="538"/>
			<point x="303" y="538" type="qcurve"/>
			<point x="367" y="538"/>
			<point x="449" y="503"/>
			<point x="496" y="439"/>
			<point x="514" y="351"/>
			<point x="514" y="297" type="qcurve"/>
			<point x="514" y="244" type="line"/>
			<point x="514" y="175"/>
			<point x="545" y="114"/>
			<point x="591" y="114" type="qcurve"/>
			<point x="637" y="114"/>
			<point x="667" y="175"/>
			<point x="667" y="244" type="qcurve"/>
			<point x="667" y="526" type="line"/>
			<point x="816" y="526" type="line"/>
			<point x="816" y="227" type="line"/>
			<point x="816" y="102"/>
			<point x="705" y="-14"/>
		</contour>
	</outline>
</glyph>
<glyph name="uni0198" format="2">
  <advance width="695"/>
  <unicode hex="0198"/>
  <outline>
    <contour>
      <point x="674" y="0" type="line"/>
      <point x="579" y="153"/>
      <point x="474" y="284"/>
      <point x="363" y="376" type="curve"/>
      <point x="406" y="427"/>
      <point x="446" y="473"/>
      <point x="497" y="530" type="curve" smooth="yes"/>
      <point x="517" y="553"/>
      <point x="532" y="572"/>
      <point x="563" y="572" type="curve" smooth="yes"/>
      <point x="590" y="572"/>
      <point x="604" y="564"/>
      <point x="620" y="549" type="curve"/>
      <point x="685" y="653" type="line"/>
      <point x="641" y="694"/>
      <point x="608" y="707"/>
      <point x="557" y="707" type="curve" smooth="yes"/>
      <point x="456" y="707"/>
      <point x="412" y="639"/>
      <point x="366" y="587" type="curve" smooth="yes"/>
      <point x="319" y="534"/>
      <point x="277" y="482"/>
      <point x="236" y="431" type="curve"/>
      <point x="236" y="693" type="line"/>
      <point x="80" y="693" type="line"/>
      <point x="80" y="0" type="line"/>
      <point x="236" y="0" type="line"/>
      <point x="236" y="293" type="line"/>
      <point x="332" y="219"/>
      <point x="433" y="90"/>
      <point x="489" y="0" type="curve"/>
    </contour>
  </outline>
</glyph>
<glyph name="uni0199" format="2">
	<unicode hex="0199"/>
	<advance width="579"/>
	<outline>
		<contour>
			<point x="219" y="336" type="line"/>
			<point x="241" y="360"/>
			<point x="288" y="412"/>
			<point x="332" y="463"/>
			<point x="371" y="509"/>
			<point x="385" y="526" type="qcurve"/>
			<point x="562" y="526" type="line"/>
			<point x="509" y="465"/>
			<point x="408" y="354"/>
			<point x="348" y="295" type="qcurve"/>
			<point x="378" y="268"/>
			<point x="442" y="193"/>
			<point x="502" y="113"/>
			<point x="552" y="33"/>
			<point x="569" y="0" type="qcurve"/>
			<point x="398" y="0" type="line"/>
			<point x="382" y="26"/>
			<point x="341" y="89"/>
			<point x="295" y="152"/>
			<point x="244" y="210"/>
			<point x="219" y="230" type="qcurve"/>
			<point x="219" y="0" type="line"/>
			<point x="70" y="0" type="line"/>
			<point x="70" y="588" type="line"/>
			<point x="70" y="684"/>
			<point x="154" y="776"/>
			<point x="257" y="776" type="qcurve"/>
			<point x="270" y="776"/>
			<point x="315" y="772"/>
			<point x="337" y="764" type="qcurve"/>
			<point x="319" y="657" type="line"/>
			<point x="308" y="660"/>
			<point x="287" y="664"/>
			<point x="274" y="664" type="qcurve"/>
			<point x="219" y="664"/>
			<point x="219" y="593" type="qcurve"/>
		</contour>
	</outline>
</glyph>
<glyph name="uni019B" format="2">
  <advance width="547"/>
  <unicode hex="019B"/>
  <anchor x="274" y="0" name="bottom"/>
  <anchor x="274" y="776" name="top"/>
  <outline>
    <contour>
      <point x="11" y="0" type="curve"/>
      <point x="164" y="0" type="line"/>
      <point x="191" y="104"/>
      <point x="245" y="265"/>
      <point x="282" y="359" type="curve"/>
      <point x="316" y="264"/>
      <point x="358" y="104"/>
      <point x="385" y="0" type="curve"/>
      <point x="544" y="0" type="line"/>
      <point x="506" y="137"/>
      <point x="426" y="401"/>
      <point x="340" y="596" type="curve"/>
      <point x="453" y="637" type="line"/>
      <point x="422" y="720" type="line"/>
      <point x="301" y="676" type="line"/>
      <point x="257" y="749"/>
      <point x="205" y="776"/>
      <point x="125" y="776" type="curve" smooth="yes"/>
      <point x="78" y="776"/>
      <point x="44" y="767"/>
      <point x="19" y="759" type="curve"/>
      <point x="44" y="645" type="line"/>
      <point x="65" y="653"/>
      <point x="82" y="655"/>
      <point x="99" y="655" type="curve" smooth="yes"/>
      <point x="130" y="655"/>
      <point x="148" y="647"/>
      <point x="164" y="627" type="curve"/>
      <point x="60" y="590" type="line"/>
      <point x="91" y="507" type="line"/>
      <point x="205" y="548" type="line"/>
      <point x="209" y="538"/>
      <point x="214" y="527"/>
      <point x="218" y="517" type="curve"/>
      <point x="151" y="385"/>
      <point x="71" y="205"/>
    </contour>
  </outline>
</glyph>
<glyph name="uni019D" format="2">
  <advance width="756"/>
  <unicode hex="019D"/>
  <outline>
    <contour>
      <point x="676" y="0" type="line"/>
      <point x="676" y="693" type="line"/>
      <point x="521" y="693" type="line"/>
      <point x="521" y="284" type="line"/>
      <point x="425" y="429"/>
      <point x="296" y="604"/>
      <point x="207" y="693" type="curve"/>
      <point x="80" y="693" type="line"/>
      <point x="80" y="21" type="line" smooth="yes"/>
      <point x="80" y="-32"/>
      <point x="66" y="-61"/>
      <point x="25" y="-61" type="curve" smooth="yes"/>
      <point x="0" y="-61"/>
      <point x="-8" y="-60"/>
      <point x="-28" y="-53" type="curve"/>
      <point x="-48" y="-174" type="line"/>
      <point x="-16" y="-185"/>
      <point x="20" y="-187"/>
      <point x="39" y="-187" type="curve" smooth="yes"/>
      <point x="176" y="-187"/>
      <point x="234" y="-122"/>
      <point x="234" y="17" type="curve" smooth="yes"/>
      <point x="234" y="454" type="line"/>
      <point x="351" y="317"/>
      <point x="456" y="159"/>
      <point x="545" y="0" type="curve"/>
    </contour>
  </outline>
</glyph>
<glyph name="uni019F" format="2">
  <advance width="790"/>
  <unicode hex="019F"/>
  <outline>
    <contour>
      <point x="740" y="347" type="curve" smooth="yes"/>
      <point x="740" y="584"/>
      <point x="585" y="709"/>
      <point x="395" y="709" type="curve" smooth="yes"/>
      <point x="211" y="709"/>
      <point x="50" y="584"/>
      <point x="50" y="347" type="curve" smooth="yes"/>
      <point x="50" y="110"/>
      <point x="205" y="-14"/>
      <point x="395" y="-14" type="curve" smooth="yes"/>
      <point x="591" y="-14"/>
      <point x="740" y="110"/>
    </contour>
    <contour>
      <point x="395" y="123" type="curve" smooth="yes"/>
      <point x="295" y="123"/>
      <point x="230" y="189"/>
      <point x="214" y="294" type="curve"/>
      <point x="575" y="294" type="line"/>
      <point x="559" y="189"/>
      <point x="495" y="123"/>
    </contour>
    <contour>
      <point x="395" y="572" type="curve" smooth="yes"/>
      <point x="495" y="572"/>
      <point x="557" y="507"/>
      <point x="574" y="404" type="curve"/>
      <point x="215" y="404" type="line"/>
      <point x="232" y="507"/>
      <point x="295" y="572"/>
    </contour>
  </outline>
</glyph>
<glyph name="ohorn" format="2">
  <advance width="607"/>
  <unicode hex="01A1"/>
  <outline>
    <contour>
      <point x="562" y="264" type="curve" smooth="yes"/>
      <point x="562" y="322"/>
      <point x="550" y="372"/>
      <point x="526" y="414" type="curve"/>
      <point x="570" y="461"/>
      <point x="601" y="505"/>
      <point x="601" y="572" type="curve" smooth="yes"/>
      <point x="601" y="591"/>
      <point x="601" y="611"/>
      <point x="597" y="632" type="curve"/>
      <point x="472" y="632" type="line"/>
      <point x="475" y="609"/>
      <point x="474" y="592"/>
      <point x="474" y="577" type="curve" smooth="yes"/>
      <point x="474" y="538"/>
      <point x="463" y="516"/>
      <point x="452" y="497" type="curve"/>
      <point x="410" y="526"/>
      <point x="361" y="540"/>
      <point x="304" y="540" type="curve" smooth="yes"/>
      <point x="155" y="540"/>
      <point x="45" y="429"/>
      <point x="45" y="264" type="curve" smooth="yes"/>
      <point x="45" y="98"/>
      <point x="150" y="-14"/>
      <point x="304" y="-14" type="curve" smooth="yes"/>
      <point x="461" y="-14"/>
      <point x="562" y="98"/>
    </contour>
    <contour>
      <point x="410" y="264" type="curve" smooth="yes"/>
      <point x="410" y="172"/>
      <point x="372" y="114"/>
      <point x="304" y="114" type="curve" smooth="yes"/>
      <point x="236" y="114"/>
      <point x="197" y="172"/>
      <point x="197" y="264" type="curve" smooth="yes"/>
      <point x="197" y="356"/>
      <point x="236" y="412"/>
      <point x="304" y="412" type="curve" smooth="yes"/>
      <point x="372" y="412"/>
      <point x="410" y="356"/>
    </contour>
  </outline>
</glyph>
<glyph name="uni01A4" format="2">
  <advance width="783"/>
  <unicode hex="01A4"/>
  <outline>
    <contour>
      <point x="219" y="0" type="line"/>
      <point x="375" y="0" type="line"/>
      <point x="375" y="232" type="line"/>
      <point x="424" y="232" type="line" smooth="yes"/>
      <point x="632" y="232"/>
      <point x="748" y="301"/>
      <point x="748" y="468" type="curve" smooth="yes"/>
      <point x="748" y="633"/>
      <point x="634" y="701"/>
      <point x="427" y="701" type="curve" smooth="yes"/>
      <point x="279" y="701"/>
      <point x="15" y="703"/>
      <point x="15" y="523" type="curve" smooth="yes"/>
      <point x="15" y="498"/>
      <point x="22" y="465"/>
      <point x="27" y="446" type="curve"/>
      <point x="145" y="462" type="line"/>
      <point x="140" y="483"/>
      <point x="140" y="499"/>
      <point x="140" y="506" type="curve" smooth="yes"/>
      <point x="140" y="537"/>
      <point x="164" y="560"/>
      <point x="219" y="565" type="curve"/>
    </contour>
    <contour>
      <point x="437" y="568" type="curve" smooth="yes"/>
      <point x="529" y="568"/>
      <point x="587" y="546"/>
      <point x="587" y="469" type="curve" smooth="yes"/>
      <point x="587" y="389"/>
      <point x="532" y="365"/>
      <point x="424" y="365" type="curve" smooth="yes"/>
      <point x="375" y="365" type="line"/>
      <point x="375" y="565" type="line"/>
      <point x="391" y="566"/>
      <point x="414" y="568"/>
    </contour>
  </outline>
</glyph>
<glyph name="uni01A8" format="2">
	<unicode hex="01A8"/>
	<advance width="485"/>
	<outline>
		<contour>
			<point x="263" y="107" type="qcurve"/>
			<point x="302" y="107"/>
			<point x="382" y="124"/>
			<point x="420" y="139" type="qcurve"/>
			<point x="445" y="18" type="line"/>
			<point x="427" y="10"/>
			<point x="334" y="-14"/>
			<point x="264" y="-14" type="qcurve"/>
			<point x="157" y="-14"/>
			<point x="40" y="66"/>
			<point x="40" y="144" type="qcurve"/>
			<point x="40" y="177"/>
			<point x="55" y="227"/>
			<point x="92" y="268"/>
			<point x="156" y="303"/>
			<point x="205" y="321" type="qcurve"/>
			<point x="229" y="330"/>
			<point x="260" y="345"/>
			<point x="278" y="358"/>
			<point x="284" y="372"/>
			<point x="284" y="381" type="qcurve"/>
			<point x="284" y="420"/>
			<point x="214" y="420" type="qcurve"/>
			<point x="176" y="420"/>
			<point x="115" y="406"/>
			<point x="89" y="397" type="qcurve"/>
			<point x="63" y="513" type="line"/>
			<point x="89" y="523"/>
			<point x="177" y="540"/>
			<point x="225" y="540" type="qcurve"/>
			<point x="321" y="540"/>
			<point x="431" y="454"/>
			<point x="431" y="380" type="qcurve"/>
			<point x="431" y="342"/>
			<point x="409" y="288"/>
			<point x="369" y="249"/>
			<point x="312" y="221"/>
			<point x="277" y="208" type="qcurve"/>
			<point x="232" y="191"/>
			<point x="188" y="164"/>
			<point x="188" y="146" type="qcurve"/>
			<point x="188" y="123"/>
			<point x="222" y="107"/>
		</contour>
	</outline>
</glyph>
<glyph name="uni01AE" format="2">
	<unicode hex="01AE"/>
	<advance width="614"/>
	<outline>
		<contour>
			<point x="385" y="21" type="line"/>
			<point x="385" y="-19"/>
			<point x="409" y="-61"/>
			<point x="440" y="-61" type="qcurve"/>
			<point x="459" y="-61"/>
			<point x="478" y="-58"/>
			<point x="493" y="-53" type="qcurve"/>
			<point x="513" y="-174" type="line"/>
			<point x="489" y="-182"/>
			<point x="440" y="-187"/>
			<point x="426" y="-187" type="qcurve"/>
			<point x="323" y="-187"/>
			<point x="229" y="-87"/>
			<point x="229" y="17" type="qcurve"/>
			<point x="229" y="560" type="line"/>
			<point x="20" y="560" type="line"/>
			<point x="20" y="693" type="line"/>
			<point x="594" y="693" type="line"/>
			<point x="594" y="560" type="line"/>
			<point x="385" y="560" type="line"/>
		</contour>
	</outline>
</glyph>
<glyph name="uni01B1" format="2">
	<unicode hex="01B1"/>
	<advance width="773"/>
	<outline>
		<contour>
			<point x="387" y="-14" type="qcurve"/>
			<point x="315" y="-14"/>
			<point x="192" y="29"/>
			<point x="102" y="113"/>
			<point x="51" y="235"/>
			<point x="51" y="315" type="qcurve"/>
			<point x="51" y="387"/>
			<point x="103" y="511"/>
			<point x="154" y="564" type="qcurve"/>
			<point x="35" y="564" type="line"/>
			<point x="35" y="693" type="line"/>
			<point x="338" y="693" type="line"/>
			<point x="338" y="577" type="line"/>
			<point x="312" y="554"/>
			<point x="266" y="503"/>
			<point x="232" y="441"/>
			<point x="212" y="366"/>
			<point x="212" y="320" type="qcurve"/>
			<point x="212" y="223"/>
			<point x="306" y="121"/>
			<point x="387" y="121" type="qcurve"/>
			<point x="468" y="121"/>
			<point x="562" y="223"/>
			<point x="562" y="320" type="qcurve"/>
			<point x="562" y="366"/>
			<point x="542" y="441"/>
			<point x="507" y="503"/>
			<point x="461" y="554"/>
			<point x="435" y="577" type="qcurve"/>
			<point x="435" y="693" type="line"/>
			<point x="738" y="693" type="line"/>
			<point x="738" y="564" type="line"/>
			<point x="619" y="564" type="line"/>
			<point x="723" y="457"/>
			<point x="723" y="315" type="qcurve"/>
			<point x="723" y="235"/>
			<point x="672" y="113"/>
			<point x="582" y="29"/>
			<point x="459" y="-14"/>
		</contour>
	</outline>
</glyph>
<glyph name="uni01B4" format="2">
  <advance width="607"/>
  <unicode hex="01B4"/>
  <outline>
    <contour>
      <point x="280" y="179" type="curve"/>
      <point x="243" y="274"/>
      <point x="195" y="422"/>
      <point x="168" y="526" type="curve"/>
      <point x="10" y="526" type="line"/>
      <point x="70" y="321"/>
      <point x="141" y="154"/>
      <point x="208" y="22" type="curve"/>
      <point x="188" y="-29"/>
      <point x="163" y="-59"/>
      <point x="110" y="-59" type="curve" smooth="yes"/>
      <point x="83" y="-59"/>
      <point x="62" y="-56"/>
      <point x="31" y="-45" type="curve"/>
      <point x="5" y="-164" type="line"/>
      <point x="30" y="-175"/>
      <point x="71" y="-185"/>
      <point x="118" y="-185" type="curve" smooth="yes"/>
      <point x="233" y="-185"/>
      <point x="300" y="-129"/>
      <point x="344" y="-12" type="curve" smooth="yes"/>
      <point x="391" y="116"/>
      <point x="428" y="246"/>
      <point x="476" y="374" type="curve" smooth="yes"/>
      <point x="488" y="405"/>
      <point x="503" y="415"/>
      <point x="527" y="415" type="curve" smooth="yes"/>
      <point x="538" y="415"/>
      <point x="551" y="414"/>
      <point x="571" y="405" type="curve"/>
      <point x="602" y="514" type="line"/>
      <point x="567" y="529"/>
      <point x="528" y="534"/>
      <point x="499" y="534" type="curve" smooth="yes"/>
      <point x="411" y="534"/>
      <point x="375" y="497"/>
      <point x="351" y="417" type="curve"/>
      <point x="328" y="345"/>
      <point x="303" y="256"/>
    </contour>
  </outline>
</glyph>
<glyph name="uni01BC" format="2">
  <advance width="556"/>
  <unicode hex="01BC"/>
  <outline>
    <contour>
      <point x="526" y="209" type="curve" smooth="yes"/>
      <point x="526" y="345"/>
      <point x="430" y="420"/>
      <point x="238" y="434" type="curve"/>
      <point x="243" y="477"/>
      <point x="246" y="522"/>
      <point x="249" y="565" type="curve"/>
      <point x="499" y="565" type="line"/>
      <point x="499" y="693" type="line"/>
      <point x="10" y="693" type="line"/>
      <point x="10" y="565" type="line"/>
      <point x="104" y="565" type="line"/>
      <point x="99" y="485"/>
      <point x="91" y="415"/>
      <point x="80" y="320" type="curve"/>
      <point x="303" y="320"/>
      <point x="369" y="280"/>
      <point x="369" y="204" type="curve" smooth="yes"/>
      <point x="369" y="159"/>
      <point x="337" y="118"/>
      <point x="240" y="118" type="curve" smooth="yes"/>
      <point x="168" y="118"/>
      <point x="108" y="142"/>
      <point x="72" y="158" type="curve"/>
      <point x="41" y="27" type="line"/>
      <point x="68" y="13"/>
      <point x="163" y="-14"/>
      <point x="243" y="-14" type="curve" smooth="yes"/>
      <point x="443" y="-14"/>
      <point x="526" y="80"/>
    </contour>
  </outline>
</glyph>
<glyph name="uni01BE" format="2">
  <advance width="489"/>
  <unicode hex="01BE"/>
  <outline>
    <contour>
      <point x="444" y="144" type="curve" smooth="yes"/>
      <point x="444" y="251"/>
      <point x="383" y="281"/>
      <point x="282" y="318" type="curve" smooth="yes"/>
      <point x="227" y="338"/>
      <point x="210" y="355"/>
      <point x="210" y="390" type="curve" smooth="yes"/>
      <point x="210" y="404" type="line"/>
      <point x="389" y="404" type="line"/>
      <point x="389" y="526" type="line"/>
      <point x="210" y="526" type="line"/>
      <point x="210" y="681" type="line"/>
      <point x="61" y="657" type="line"/>
      <point x="61" y="391" type="line" smooth="yes"/>
      <point x="61" y="271"/>
      <point x="123" y="240"/>
      <point x="211" y="208" type="curve" smooth="yes"/>
      <point x="275" y="184"/>
      <point x="296" y="171"/>
      <point x="296" y="146" type="curve" smooth="yes"/>
      <point x="296" y="115"/>
      <point x="276" y="107"/>
      <point x="221" y="107" type="curve" smooth="yes"/>
      <point x="169" y="107"/>
      <point x="115" y="119"/>
      <point x="64" y="139" type="curve"/>
      <point x="39" y="18" type="line"/>
      <point x="63" y="7"/>
      <point x="127" y="-14"/>
      <point x="220" y="-14" type="curve" smooth="yes"/>
      <point x="363" y="-14"/>
      <point x="444" y="40"/>
    </contour>
  </outline>
</glyph>
<glyph name="uni01E4" format="2">
	<unicode hex="01E4"/>
	<advance width="728"/>
	<outline>
		<contour>
			<point x="384" y="312" type="line"/>
			<point x="481" y="312" type="line"/>
			<point x="481" y="386" type="line"/>
			<point x="637" y="386" type="line"/>
			<point x="637" y="312" type="line"/>
			<point x="718" y="312" type="line"/>
			<point x="718" y="205" type="line"/>
			<point x="637" y="205" type="line"/>
			<point x="637" y="23" type="line"/>
			<point x="609" y="12"/>
			<point x="485" y="-13"/>
			<point x="394" y="-13" type="qcurve"/>
			<point x="316" y="-13"/>
			<point x="189" y="35"/>
			<point x="99" y="127"/>
			<point x="50" y="261"/>
			<point x="50" y="347" type="qcurve"/>
			<point x="50" y="434"/>
			<point x="104" y="568"/>
			<point x="198" y="661"/>
			<point x="325" y="709"/>
			<point x="397" y="709" type="qcurve"/>
			<point x="446" y="709"/>
			<point x="525" y="696"/>
			<point x="582" y="679"/>
			<point x="619" y="661"/>
			<point x="627" y="656" type="qcurve"/>
			<point x="582" y="531" type="line"/>
			<point x="550" y="548"/>
			<point x="467" y="573"/>
			<point x="418" y="573" type="qcurve"/>
			<point x="309" y="573"/>
			<point x="212" y="452"/>
			<point x="212" y="347" type="qcurve"/>
			<point x="212" y="296"/>
			<point x="236" y="213"/>
			<point x="284" y="153"/>
			<point x="356" y="120"/>
			<point x="404" y="120" type="qcurve"/>
			<point x="430" y="120"/>
			<point x="467" y="122"/>
			<point x="481" y="125" type="qcurve"/>
			<point x="481" y="205" type="line"/>
			<point x="384" y="205" type="line"/>
		</contour>
	</outline>
</glyph>
<glyph name="uni01EA" format="2">
	<unicode hex="01EA"/>
	<advance width="790"/>
	<outline>
		<contour>
			<point x="449" y="-221" type="qcurve"/>
			<point x="382" y="-221"/>
			<point x="324" y="-171"/>
			<point x="324" y="-130" type="qcurve"/>
			<point x="324" y="-109"/>
			<point x="342" y="-69"/>
			<point x="357" y="-50" type="qcurve"/>
			<point x="374" y="-28"/>
			<point x="391" y="-14" type="qcurve"/>
			<point x="320" y="-13"/>
			<point x="196" y="33"/>
			<point x="104" y="124"/>
			<point x="50" y="258"/>
			<point x="50" y="347" type="qcurve"/>
			<point x="50" y="436"/>
			<point x="106" y="571"/>
			<point x="201" y="663"/>
			<point x="326" y="709"/>
			<point x="395" y="709" type="qcurve"/>
			<point x="466" y="709"/>
			<point x="592" y="663"/>
			<point x="686" y="571"/>
			<point x="740" y="436"/>
			<point x="740" y="347" type="qcurve"/>
			<point x="740" y="243"/>
			<point x="671" y="100"/>
			<point x="608" y="52" type="qcurve"/>
			<point x="592" y="40"/>
			<point x="560" y="19"/>
			<point x="529" y="-2"/>
			<point x="498" y="-25"/>
			<point x="483" y="-41" type="qcurve"/>
			<point x="470" y="-54"/>
			<point x="455" y="-77"/>
			<point x="455" y="-88" type="qcurve"/>
			<point x="455" y="-99"/>
			<point x="468" y="-113"/>
			<point x="485" y="-113" type="qcurve"/>
			<point x="494" y="-113"/>
			<point x="519" y="-110"/>
			<point x="536" y="-105" type="qcurve"/>
			<point x="548" y="-205" type="line"/>
			<point x="528" y="-213"/>
			<point x="472" y="-221"/>
		</contour>
		<contour>
			<point x="211" y="347" type="qcurve"/>
			<point x="211" y="296"/>
			<point x="236" y="214"/>
			<point x="283" y="155"/>
			<point x="351" y="123"/>
			<point x="395" y="123" type="qcurve"/>
			<point x="438" y="123"/>
			<point x="507" y="155"/>
			<point x="554" y="214"/>
			<point x="579" y="296"/>
			<point x="579" y="347" type="qcurve"/>
			<point x="579" y="398"/>
			<point x="554" y="481"/>
			<point x="507" y="540"/>
			<point x="438" y="572"/>
			<point x="395" y="572" type="qcurve"/>
			<point x="351" y="572"/>
			<point x="283" y="539"/>
			<point x="236" y="480"/>
			<point x="211" y="397"/>
		</contour>
	</outline>
</glyph>
<glyph name="uni01F7" format="2">
	<unicode hex="01F7"/>
	<advance width="671"/>
	<outline>
		<contour>
			<point x="236" y="-185" type="line"/>
			<point x="80" y="-185" type="line"/>
			<point x="80" y="648" type="line"/>
			<point x="101" y="656"/>
			<point x="157" y="674"/>
			<point x="221" y="689"/>
			<point x="290" y="699"/>
			<point x="324" y="699" type="qcurve"/>
			<point x="470" y="699"/>
			<point x="631" y="564"/>
			<point x="631" y="435" type="qcurve"/>
			<point x="631" y="352"/>
			<point x="571" y="219"/>
			<point x="464" y="114"/>
			<point x="320" y="32"/>
			<point x="236" y="0" type="qcurve"/>
		</contour>
		<contour>
			<point x="236" y="146" type="line"/>
			<point x="287" y="169"/>
			<point x="373" y="223"/>
			<point x="435" y="292"/>
			<point x="469" y="381"/>
			<point x="469" y="439" type="qcurve"/>
			<point x="469" y="500"/>
			<point x="392" y="566"/>
			<point x="325" y="566" type="qcurve"/>
			<point x="296" y="566"/>
			<point x="252" y="560"/>
			<point x="236" y="556" type="qcurve"/>
		</contour>
	</outline>
</glyph>
<glyph name="uni021D" format="2">
  <advance width="477"/>
  <unicode hex="021D"/>
  <outline>
    <contour>
      <point x="177" y="540" type="curve" smooth="yes"/>
      <point x="115" y="540"/>
      <point x="50" y="523"/>
      <point x="18" y="512" type="curve"/>
      <point x="48" y="390" type="line"/>
      <point x="87" y="405"/>
      <point x="130" y="413"/>
      <point x="177" y="413" type="curve" smooth="yes"/>
      <point x="233" y="413"/>
      <point x="261" y="390"/>
      <point x="261" y="350" type="curve" smooth="yes"/>
      <point x="261" y="293"/>
      <point x="216" y="265"/>
      <point x="116" y="265" type="curve"/>
      <point x="116" y="144" type="line"/>
      <point x="142" y="144" type="line" smooth="yes"/>
      <point x="218" y="144"/>
      <point x="278" y="125"/>
      <point x="278" y="59" type="curve" smooth="yes"/>
      <point x="278" y="-38"/>
      <point x="143" y="-55"/>
      <point x="10" y="-60" type="curve"/>
      <point x="19" y="-186" type="line"/>
      <point x="246" y="-183"/>
      <point x="434" y="-123"/>
      <point x="434" y="57" type="curve" smooth="yes"/>
      <point x="434" y="133"/>
      <point x="389" y="193"/>
      <point x="314" y="220" type="curve"/>
      <point x="386" y="259"/>
      <point x="414" y="310"/>
      <point x="414" y="362" type="curve" smooth="yes"/>
      <point x="414" y="487"/>
      <point x="313" y="540"/>
    </contour>
  </outline>
</glyph>
<glyph name="uni0223" format="2">
	<unicode hex="0223"/>
	<advance width="598"/>
	<outline>
		<contour>
			<point x="299" y="489" type="qcurve"/>
			<point x="338" y="489"/>
			<point x="382" y="551"/>
			<point x="382" y="610" type="qcurve"/>
			<point x="382" y="639"/>
			<point x="378" y="729"/>
			<point x="371" y="776" type="qcurve"/>
			<point x="511" y="776" type="line"/>
			<point x="519" y="736"/>
			<point x="528" y="655"/>
			<point x="528" y="612" type="qcurve"/>
			<point x="528" y="550"/>
			<point x="489" y="463"/>
			<point x="438" y="435" type="qcurve"/>
			<point x="500" y="405"/>
			<point x="558" y="294"/>
			<point x="558" y="230" type="qcurve"/>
			<point x="558" y="174"/>
			<point x="520" y="83"/>
			<point x="451" y="20"/>
			<point x="356" y="-14"/>
			<point x="299" y="-14" type="qcurve"/>
			<point x="242" y="-14"/>
			<point x="147" y="20"/>
			<point x="78" y="83"/>
			<point x="40" y="174"/>
			<point x="40" y="230" type="qcurve"/>
			<point x="40" y="294"/>
			<point x="98" y="405"/>
			<point x="160" y="435" type="qcurve"/>
			<point x="109" y="463"/>
			<point x="70" y="550"/>
			<point x="70" y="612" type="qcurve"/>
			<point x="70" y="655"/>
			<point x="79" y="736"/>
			<point x="87" y="776" type="qcurve"/>
			<point x="227" y="776" type="line"/>
			<point x="220" y="729"/>
			<point x="216" y="639"/>
			<point x="216" y="610" type="qcurve"/>
			<point x="216" y="551"/>
			<point x="260" y="489"/>
		</contour>
		<contour>
			<point x="299" y="114" type="qcurve"/>
			<point x="348" y="114"/>
			<point x="406" y="177"/>
			<point x="406" y="236" type="qcurve"/>
			<point x="406" y="293"/>
			<point x="348" y="361"/>
			<point x="299" y="361" type="qcurve"/>
			<point x="250" y="361"/>
			<point x="192" y="293"/>
			<point x="192" y="236" type="qcurve"/>
			<point x="192" y="177"/>
			<point x="250" y="114"/>
		</contour>
	</outline>
</glyph>
<glyph name="uni0225" format="2">
	<unicode hex="0225"/>
	<advance width="500"/>
	<outline>
		<contour>
			<point x="465" y="426" type="line"/>
			<point x="447" y="406"/>
			<point x="386" y="338"/>
			<point x="316" y="256"/>
			<point x="245" y="166"/>
			<point x="216" y="124" type="qcurve"/>
			<point x="470" y="124" type="line"/>
			<point x="470" y="-22" type="line"/>
			<point x="470" y="-104"/>
			<point x="381" y="-185"/>
			<point x="301" y="-185" type="qcurve"/>
			<point x="288" y="-185"/>
			<point x="236" y="-180"/>
			<point x="213" y="-172" type="qcurve"/>
			<point x="232" y="-66" type="line"/>
			<point x="246" y="-71"/>
			<point x="270" y="-74"/>
			<point x="288" y="-74" type="qcurve"/>
			<point x="314" y="-74"/>
			<point x="346" y="-50"/>
			<point x="346" y="-24" type="qcurve"/>
			<point x="346" y="0" type="line"/>
			<point x="35" y="0" type="line"/>
			<point x="35" y="88" type="line"/>
			<point x="56" y="124"/>
			<point x="115" y="207"/>
			<point x="180" y="291"/>
			<point x="244" y="370"/>
			<point x="271" y="402" type="qcurve"/>
			<point x="47" y="402" type="line"/>
			<point x="47" y="526" type="line"/>
			<point x="465" y="526" type="line"/>
		</contour>
	</outline>
</glyph>
<glyph name="uni0229" format="2">
	<unicode hex="0229"/>
	<advance width="584"/>
	<outline>
		<contour>
			<point x="45" y="259" type="qcurve"/>
			<point x="45" y="329"/>
			<point x="88" y="434"/>
			<point x="158" y="504"/>
			<point x="249" y="540"/>
			<point x="297" y="540" type="qcurve"/>
			<point x="409" y="540"/>
			<point x="539" y="403"/>
			<point x="539" y="270" type="qcurve"/>
			<point x="539" y="257"/>
			<point x="537" y="226"/>
			<point x="536" y="214" type="qcurve"/>
			<point x="198" y="214" type="line"/>
			<point x="203" y="168"/>
			<point x="279" y="114"/>
			<point x="343" y="114" type="qcurve"/>
			<point x="384" y="114"/>
			<point x="463" y="129"/>
			<point x="488" y="140" type="qcurve"/>
			<point x="508" y="19" type="line"/>
			<point x="488" y="8"/>
			<point x="402" y="-10"/>
			<point x="354" y="-13" type="qcurve"/>
			<point x="350" y="-21"/>
			<point x="344" y="-35"/>
			<point x="342" y="-40" type="qcurve"/>
			<point x="374" y="-56"/>
			<point x="398" y="-100"/>
			<point x="398" y="-123" type="qcurve"/>
			<point x="398" y="-171"/>
			<point x="322" y="-221"/>
			<point x="260" y="-221" type="qcurve"/>
			<point x="238" y="-221"/>
			<point x="194" y="-214"/>
			<point x="172" y="-208" type="qcurve"/>
			<point x="190" y="-121" type="line"/>
			<point x="197" y="-123"/>
			<point x="234" y="-132"/>
			<point x="252" y="-132" type="qcurve"/>
			<point x="266" y="-132"/>
			<point x="287" y="-121"/>
			<point x="288" y="-107" type="qcurve"/>
			<point x="289" y="-95"/>
			<point x="268" y="-75"/>
			<point x="245" y="-70" type="qcurve"/>
			<point x="233" y="-67" type="line"/>
			<point x="237" y="-55"/>
			<point x="250" y="-22"/>
			<point x="257" y="-8" type="qcurve"/>
			<point x="203" y="1"/>
			<point x="123" y="48"/>
			<point x="70" y="119"/>
			<point x="45" y="208"/>
		</contour>
		<contour>
			<point x="395" y="316" type="line"/>
			<point x="394" y="335"/>
			<point x="383" y="371"/>
			<point x="360" y="399"/>
			<point x="325" y="417"/>
			<point x="299" y="417" type="qcurve"/>
			<point x="274" y="417"/>
			<point x="238" y="400"/>
			<point x="214" y="372"/>
			<point x="201" y="335"/>
			<point x="198" y="316" type="qcurve"/>
		</contour>
	</outline>
</glyph>
<glyph name="uni0234" format="2">
  <advance width="509"/>
  <unicode hex="0234"/>
  <outline>
    <contour>
      <point x="261" y="775" type="line"/>
      <point x="112" y="751" type="line"/>
      <point x="112" y="51" type="line" smooth="yes"/>
      <point x="112" y="44"/>
      <point x="112" y="37"/>
      <point x="113" y="28" type="curve"/>
      <point x="-5" y="-103" type="line"/>
      <point x="71" y="-175" type="line"/>
      <point x="147" y="-92" type="line"/>
      <point x="180" y="-151"/>
      <point x="237" y="-185"/>
      <point x="318" y="-185" type="curve" smooth="yes"/>
      <point x="418" y="-185"/>
      <point x="501" y="-129"/>
      <point x="501" y="-12" type="curve" smooth="yes"/>
      <point x="501" y="96"/>
      <point x="427" y="155"/>
      <point x="342" y="155" type="curve" smooth="yes"/>
      <point x="303" y="155"/>
      <point x="274" y="143"/>
      <point x="261" y="134" type="curve"/>
    </contour>
    <contour>
      <point x="260" y="19" type="line"/>
      <point x="273" y="32"/>
      <point x="297" y="42"/>
      <point x="318" y="42" type="curve" smooth="yes"/>
      <point x="353" y="42"/>
      <point x="373" y="15"/>
      <point x="373" y="-18" type="curve" smooth="yes"/>
      <point x="373" y="-46"/>
      <point x="354" y="-75"/>
      <point x="318" y="-75" type="curve" smooth="yes"/>
      <point x="275" y="-75"/>
      <point x="260" y="-43"/>
      <point x="260" y="-2" type="curve" smooth="yes"/>
    </contour>
  </outline>
</glyph>
<glyph name="uni0235" format="2">
	<unicode hex="0235"/>
	<advance width="772"/>
	<outline>
		<contour>
			<point x="375" y="279" type="line"/>
			<point x="375" y="351"/>
			<point x="337" y="411"/>
			<point x="285" y="411" type="qcurve"/>
			<point x="269" y="411"/>
			<point x="233" y="408"/>
			<point x="219" y="406" type="qcurve"/>
			<point x="219" y="0" type="line"/>
			<point x="70" y="0" type="line"/>
			<point x="70" y="508" type="line"/>
			<point x="108" y="519"/>
			<point x="228" y="538"/>
			<point x="294" y="538" type="qcurve"/>
			<point x="361" y="538"/>
			<point x="450" y="503"/>
			<point x="502" y="439"/>
			<point x="524" y="351"/>
			<point x="524" y="297" type="qcurve"/>
			<point x="524" y="134" type="line"/>
			<point x="535" y="139"/>
			<point x="576" y="155"/>
			<point x="605" y="155" type="qcurve"/>
			<point x="637" y="155"/>
			<point x="695" y="133"/>
			<point x="738" y="91"/>
			<point x="764" y="29"/>
			<point x="764" y="-12" type="qcurve"/>
			<point x="764" y="-56"/>
			<point x="735" y="-121"/>
			<point x="685" y="-164"/>
			<point x="618" y="-185"/>
			<point x="581" y="-185" type="qcurve"/>
			<point x="520" y="-185"/>
			<point x="435" y="-136"/>
			<point x="410" y="-92" type="qcurve"/>
			<point x="334" y="-175" type="line"/>
			<point x="258" y="-103" type="line"/>
			<point x="376" y="28" type="line"/>
			<point x="375" y="41"/>
			<point x="375" y="51" type="qcurve"/>
		</contour>
		<contour>
			<point x="523" y="-2" type="line"/>
			<point x="523" y="-33"/>
			<point x="549" y="-75"/>
			<point x="581" y="-75" type="qcurve"/>
			<point x="608" y="-75"/>
			<point x="636" y="-39"/>
			<point x="636" y="-18" type="qcurve"/>
			<point x="636" y="7"/>
			<point x="607" y="42"/>
			<point x="581" y="42" type="qcurve"/>
			<point x="565" y="42"/>
			<point x="533" y="30"/>
			<point x="523" y="19" type="qcurve"/>
		</contour>
	</outline>
</glyph>
<glyph name="uni0236" format="2">
  <advance width="509"/>
  <unicode hex="0236"/>
  <outline>
    <contour>
      <point x="318" y="-185" type="curve" smooth="yes"/>
      <point x="418" y="-185"/>
      <point x="501" y="-129"/>
      <point x="501" y="-12" type="curve" smooth="yes"/>
      <point x="501" y="96"/>
      <point x="427" y="155"/>
      <point x="342" y="155" type="curve" smooth="yes"/>
      <point x="303" y="155"/>
      <point x="276" y="141"/>
      <point x="261" y="134" type="curve"/>
      <point x="261" y="402" type="line"/>
      <point x="440" y="402" type="line"/>
      <point x="440" y="526" type="line"/>
      <point x="261" y="526" type="line"/>
      <point x="261" y="681" type="line"/>
      <point x="112" y="657" type="line"/>
      <point x="112" y="51" type="line" smooth="yes"/>
      <point x="112" y="44"/>
      <point x="112" y="37"/>
      <point x="113" y="28" type="curve"/>
      <point x="-5" y="-103" type="line"/>
      <point x="71" y="-175" type="line"/>
      <point x="147" y="-92" type="line"/>
      <point x="180" y="-151"/>
      <point x="237" y="-185"/>
    </contour>
    <contour>
      <point x="318" y="-76" type="curve" smooth="yes"/>
      <point x="275" y="-76"/>
      <point x="260" y="-44"/>
      <point x="260" y="-3" type="curve" smooth="yes"/>
      <point x="260" y="18" type="line"/>
      <point x="273" y="33"/>
      <point x="297" y="41"/>
      <point x="318" y="41" type="curve" smooth="yes"/>
      <point x="353" y="41"/>
      <point x="373" y="14"/>
      <point x="373" y="-19" type="curve" smooth="yes"/>
      <point x="373" y="-47"/>
      <point x="354" y="-76"/>
    </contour>
  </outline>
</glyph>
<glyph name="dotlessj" format="2">
  <advance width="289"/>
  <unicode hex="0237"/>
  <outline>
    <contour>
      <point x="21" y="-185" type="curve" smooth="yes"/>
      <point x="149" y="-185"/>
      <point x="219" y="-120"/>
      <point x="219" y="19" type="curve" smooth="yes"/>
      <point x="219" y="526" type="line"/>
      <point x="70" y="526" type="line"/>
      <point x="70" y="23" type="line" smooth="yes"/>
      <point x="70" y="-30"/>
      <point x="54" y="-59"/>
      <point x="7" y="-59" type="curve" smooth="yes"/>
      <point x="-18" y="-59"/>
      <point x="-32" y="-57"/>
      <point x="-52" y="-50" type="curve"/>
      <point x="-72" y="-171" type="line"/>
      <point x="-40" y="-182"/>
      <point x="2" y="-185"/>
    </contour>
  </outline>
</glyph>
<glyph name="uni0239" format="2">
  <advance width="919"/>
  <unicode hex="0239"/>
  <outline>
    <contour>
      <point x="197" y="259" type="curve" smooth="yes"/>
      <point x="197" y="351"/>
      <point x="239" y="411"/>
      <point x="320" y="411" type="curve" smooth="yes"/>
      <point x="347" y="411"/>
      <point x="370" y="409"/>
      <point x="385" y="406" type="curve"/>
      <point x="385" y="137" type="line"/>
      <point x="366" y="125"/>
      <point x="334" y="116"/>
      <point x="303" y="116" type="curve" smooth="yes"/>
      <point x="232" y="116"/>
      <point x="197" y="164"/>
    </contour>
    <contour>
      <point x="459" y="511" type="curve"/>
      <point x="414" y="526"/>
      <point x="363" y="538"/>
      <point x="319" y="538" type="curve" smooth="yes"/>
      <point x="146" y="538"/>
      <point x="45" y="426"/>
      <point x="45" y="263" type="curve" smooth="yes"/>
      <point x="45" y="95"/>
      <point x="126" y="-10"/>
      <point x="275" y="-10" type="curve" smooth="yes"/>
      <point x="316" y="-10"/>
      <point x="352" y="-2"/>
      <point x="385" y="13" type="curve"/>
      <point x="385" y="-185" type="line"/>
      <point x="534" y="-185" type="line"/>
      <point x="534" y="13" type="line"/>
      <point x="567" y="-2"/>
      <point x="603" y="-10"/>
      <point x="644" y="-10" type="curve" smooth="yes"/>
      <point x="793" y="-10"/>
      <point x="874" y="101"/>
      <point x="874" y="263" type="curve" smooth="yes"/>
      <point x="874" y="431"/>
      <point x="773" y="538"/>
      <point x="600" y="538" type="curve" smooth="yes"/>
      <point x="555" y="538"/>
      <point x="504" y="526"/>
    </contour>
    <contour>
      <point x="722" y="259" type="curve" smooth="yes"/>
      <point x="722" y="164"/>
      <point x="687" y="116"/>
      <point x="616" y="116" type="curve" smooth="yes"/>
      <point x="585" y="116"/>
      <point x="553" y="125"/>
      <point x="534" y="137" type="curve"/>
      <point x="534" y="406" type="line"/>
      <point x="549" y="409"/>
      <point x="572" y="411"/>
      <point x="599" y="411" type="curve" smooth="yes"/>
      <point x="680" y="411"/>
      <point x="722" y="351"/>
    </contour>
  </outline>
</glyph>
<glyph name="uni023F" format="2">
	<unicode hex="023F"/>
	<advance width="485"/>
	<outline>
		<contour>
			<point x="222" y="107" type="qcurve"/>
			<point x="263" y="107"/>
			<point x="296" y="124"/>
			<point x="296" y="146" type="qcurve"/>
			<point x="296" y="164"/>
			<point x="254" y="191"/>
			<point x="209" y="208" type="qcurve"/>
			<point x="174" y="221"/>
			<point x="117" y="249"/>
			<point x="76" y="288"/>
			<point x="53" y="342"/>
			<point x="53" y="380" type="qcurve"/>
			<point x="53" y="454"/>
			<point x="163" y="540"/>
			<point x="259" y="540" type="qcurve"/>
			<point x="307" y="540"/>
			<point x="395" y="523"/>
			<point x="421" y="513" type="qcurve"/>
			<point x="395" y="397" type="line"/>
			<point x="369" y="406"/>
			<point x="308" y="420"/>
			<point x="270" y="420" type="qcurve"/>
			<point x="200" y="420"/>
			<point x="200" y="381" type="qcurve"/>
			<point x="200" y="362"/>
			<point x="236" y="337"/>
			<point x="281" y="320" type="qcurve"/>
			<point x="330" y="302"/>
			<point x="393" y="267"/>
			<point x="430" y="227"/>
			<point x="444" y="177"/>
			<point x="444" y="144" type="qcurve"/>
			<point x="444" y="75"/>
			<point x="348" y="0"/>
			<point x="263" y="0" type="qcurve"/>
			<point x="256" y="0"/>
			<point x="243" y="0"/>
			<point x="236" y="1" type="qcurve"/>
			<point x="255" y="-18"/>
			<point x="283" y="-43"/>
			<point x="308" y="-58"/>
			<point x="334" y="-65"/>
			<point x="350" y="-65" type="qcurve"/>
			<point x="372" y="-65"/>
			<point x="411" y="-59" type="qcurve"/>
			<point x="425" y="-173" type="line"/>
			<point x="400" y="-180"/>
			<point x="346" y="-185"/>
			<point x="333" y="-185" type="qcurve"/>
			<point x="295" y="-185"/>
			<point x="236" y="-161"/>
			<point x="187" y="-122"/>
			<point x="147" y="-74"/>
			<point x="107" y="-26"/>
			<point x="65" y="16"/>
			<point x="40" y="30" type="qcurve"/>
			<point x="80" y="133" type="line"/>
			<point x="118" y="118"/>
			<point x="183" y="107"/>
		</contour>
	</outline>
</glyph>
<glyph name="uni0240" format="2">
  <advance width="500"/>
  <unicode hex="0240"/>
  <outline>
    <contour>
      <point x="465" y="526" type="line"/>
      <point x="47" y="526" type="line"/>
      <point x="47" y="402" type="line"/>
      <point x="271" y="402" type="line"/>
      <point x="200" y="317"/>
      <point x="91" y="184"/>
      <point x="35" y="88" type="curve"/>
      <point x="35" y="0" type="line"/>
      <point x="68" y="0" type="line" smooth="yes"/>
      <point x="232" y="0"/>
      <point x="269" y="-185"/>
      <point x="418" y="-185" type="curve" smooth="yes"/>
      <point x="434" y="-185"/>
      <point x="477" y="-182"/>
      <point x="510" y="-173" type="curve"/>
      <point x="496" y="-55" type="line"/>
      <point x="475" y="-59"/>
      <point x="453" y="-61"/>
      <point x="430" y="-61" type="curve" smooth="yes"/>
      <point x="346" y="-61"/>
      <point x="297" y="56"/>
      <point x="196" y="91" type="curve"/>
      <point x="268" y="203"/>
      <point x="417" y="374"/>
      <point x="465" y="426" type="curve"/>
    </contour>
  </outline>
</glyph>
<glyph name="uni0247" format="2">
  <advance width="597"/>
  <unicode hex="0247"/>
  <outline>
    <contour>
      <point x="45" y="259" type="curve" smooth="yes"/>
      <point x="45" y="150"/>
      <point x="88" y="57"/>
      <point x="179" y="14" type="curve"/>
      <point x="154" y="-64" type="line"/>
      <point x="231" y="-90" type="line"/>
      <point x="258" y="-6" type="line"/>
      <point x="283" y="-11"/>
      <point x="309" y="-14"/>
      <point x="340" y="-14" type="curve" smooth="yes"/>
      <point x="415" y="-14"/>
      <point x="489" y="3"/>
      <point x="521" y="19" type="curve"/>
      <point x="501" y="140" type="line"/>
      <point x="468" y="125"/>
      <point x="415" y="114"/>
      <point x="360" y="114" type="curve" smooth="yes"/>
      <point x="337" y="114"/>
      <point x="317" y="116"/>
      <point x="300" y="121" type="curve"/>
      <point x="331" y="217" type="line"/>
      <point x="549" y="217" type="line"/>
      <point x="550" y="233"/>
      <point x="552" y="253"/>
      <point x="552" y="270" type="curve" smooth="yes"/>
      <point x="552" y="395"/>
      <point x="508" y="478"/>
      <point x="428" y="517" type="curve"/>
      <point x="452" y="589" type="line"/>
      <point x="373" y="614" type="line"/>
      <point x="348" y="536" type="line"/>
      <point x="333" y="539"/>
      <point x="315" y="540"/>
      <point x="294" y="540" type="curve" smooth="yes"/>
      <point x="170" y="540"/>
      <point x="45" y="445"/>
    </contour>
    <contour>
      <point x="188" y="309" type="line"/>
      <point x="196" y="364"/>
      <point x="227" y="420"/>
      <point x="296" y="420" type="curve" smooth="yes"/>
      <point x="301" y="420"/>
      <point x="305" y="419"/>
      <point x="310" y="419" type="curve"/>
      <point x="274" y="309" type="line"/>
    </contour>
    <contour>
      <point x="361" y="309" type="line"/>
      <point x="388" y="393" type="line"/>
      <point x="409" y="370"/>
      <point x="418" y="338"/>
      <point x="421" y="309" type="curve"/>
    </contour>
    <contour>
      <point x="244" y="217" type="line"/>
      <point x="222" y="149" type="line"/>
      <point x="203" y="166"/>
      <point x="194" y="190"/>
      <point x="191" y="217" type="curve"/>
    </contour>
  </outline>
</glyph>
<glyph name="uni0248" format="2">
  <advance width="550"/>
  <unicode hex="0248"/>
  <outline>
    <contour>
      <point x="459" y="693" type="line"/>
      <point x="303" y="693" type="line"/>
      <point x="303" y="421" type="line"/>
      <point x="182" y="421" type="line"/>
      <point x="182" y="311" type="line"/>
      <point x="303" y="311" type="line"/>
      <point x="303" y="241" type="line" smooth="yes"/>
      <point x="303" y="153"/>
      <point x="272" y="119"/>
      <point x="196" y="119" type="curve" smooth="yes"/>
      <point x="144" y="119"/>
      <point x="101" y="139"/>
      <point x="62" y="162" type="curve"/>
      <point x="10" y="41" type="line"/>
      <point x="53" y="12"/>
      <point x="117" y="-14"/>
      <point x="208" y="-14" type="curve" smooth="yes"/>
      <point x="405" y="-14"/>
      <point x="459" y="97"/>
      <point x="459" y="233" type="curve" smooth="yes"/>
      <point x="459" y="311" type="line"/>
      <point x="540" y="311" type="line"/>
      <point x="540" y="421" type="line"/>
      <point x="459" y="421" type="line"/>
    </contour>
  </outline>
</glyph>
<glyph name="uni024B" format="2">
  <advance width="604"/>
  <unicode hex="024B"/>
  <outline>
    <contour>
      <point x="197" y="259" type="curve" smooth="yes"/>
      <point x="197" y="351"/>
      <point x="239" y="411"/>
      <point x="320" y="411" type="curve" smooth="yes"/>
      <point x="347" y="411"/>
      <point x="370" y="409"/>
      <point x="385" y="406" type="curve"/>
      <point x="385" y="137" type="line"/>
      <point x="366" y="125"/>
      <point x="334" y="116"/>
      <point x="303" y="116" type="curve" smooth="yes"/>
      <point x="232" y="116"/>
      <point x="197" y="164"/>
    </contour>
    <contour>
      <point x="534" y="508" type="line"/>
      <point x="481" y="524"/>
      <point x="391" y="538"/>
      <point x="319" y="538" type="curve" smooth="yes"/>
      <point x="146" y="538"/>
      <point x="45" y="426"/>
      <point x="45" y="263" type="curve" smooth="yes"/>
      <point x="45" y="95"/>
      <point x="126" y="-10"/>
      <point x="275" y="-10" type="curve" smooth="yes"/>
      <point x="316" y="-10"/>
      <point x="352" y="-2"/>
      <point x="385" y="13" type="curve"/>
      <point x="385" y="-17" type="line" smooth="yes"/>
      <point x="385" y="-137"/>
      <point x="440" y="-185"/>
      <point x="551" y="-185" type="curve" smooth="yes"/>
      <point x="570" y="-185"/>
      <point x="622" y="-181"/>
      <point x="654" y="-170" type="curve"/>
      <point x="633" y="-55" type="line"/>
      <point x="616" y="-59"/>
      <point x="600" y="-62"/>
      <point x="581" y="-62" type="curve" smooth="yes"/>
      <point x="542" y="-62"/>
      <point x="534" y="-32"/>
      <point x="534" y="11" type="curve" smooth="yes"/>
    </contour>
  </outline>
</glyph>
<glyph name="uni024C" format="2">
  <advance width="678"/>
  <unicode hex="024C"/>
  <outline>
    <contour>
      <point x="10" y="253" type="line"/>
      <point x="91" y="253" type="line"/>
      <point x="91" y="0" type="line"/>
      <point x="247" y="0" type="line"/>
      <point x="247" y="253" type="line"/>
      <point x="324" y="253" type="line"/>
      <point x="377" y="190"/>
      <point x="432" y="91"/>
      <point x="483" y="0" type="curve"/>
      <point x="658" y="0" type="line"/>
      <point x="610" y="102"/>
      <point x="543" y="213"/>
      <point x="486" y="283" type="curve"/>
      <point x="570" y="318"/>
      <point x="616" y="376"/>
      <point x="616" y="473" type="curve" smooth="yes"/>
      <point x="616" y="629"/>
      <point x="502" y="701"/>
      <point x="294" y="701" type="curve" smooth="yes"/>
      <point x="237" y="701"/>
      <point x="159" y="696"/>
      <point x="91" y="683" type="curve"/>
      <point x="91" y="377" type="line"/>
      <point x="10" y="377" type="line"/>
    </contour>
    <contour>
      <point x="303" y="568" type="curve" smooth="yes"/>
      <point x="403" y="568"/>
      <point x="455" y="542"/>
      <point x="455" y="474" type="curve" smooth="yes"/>
      <point x="455" y="403"/>
      <point x="408" y="377"/>
      <point x="291" y="377" type="curve" smooth="yes"/>
      <point x="247" y="377" type="line"/>
      <point x="247" y="565" type="line"/>
      <point x="263" y="566"/>
      <point x="280" y="568"/>
    </contour>
  </outline>
</glyph>
<glyph name="uni024F" format="2">
	<unicode hex="024F"/>
	<advance width="563"/>
	<outline>
		<contour>
			<point x="461" y="270" type="line"/>
			<point x="434" y="194"/>
			<point x="376" y="52"/>
			<point x="344" y="-17" type="qcurve"/>
			<point x="323" y="-62"/>
			<point x="281" y="-125"/>
			<point x="231" y="-166"/>
			<point x="168" y="-185"/>
			<point x="126" y="-185" type="qcurve"/>
			<point x="91" y="-185"/>
			<point x="32" y="-172"/>
			<point x="13" y="-164" type="qcurve"/>
			<point x="39" y="-45" type="line"/>
			<point x="62" y="-53"/>
			<point x="98" y="-59"/>
			<point x="118" y="-59" type="qcurve"/>
			<point x="158" y="-59"/>
			<point x="201" y="-16"/>
			<point x="216" y="22" type="qcurve"/>
			<point x="189" y="76"/>
			<point x="133" y="199"/>
			<point x="105" y="270" type="qcurve"/>
			<point x="10" y="270" type="line"/>
			<point x="10" y="363" type="line"/>
			<point x="71" y="363" type="line"/>
			<point x="57" y="401"/>
			<point x="31" y="483"/>
			<point x="18" y="526" type="qcurve"/>
			<point x="174" y="526" type="line"/>
			<point x="182" y="492"/>
			<point x="205" y="408"/>
			<point x="219" y="363" type="qcurve"/>
			<point x="351" y="363" type="line"/>
			<point x="363" y="408"/>
			<point x="384" y="492"/>
			<point x="393" y="526" type="qcurve"/>
			<point x="545" y="526" type="line"/>
			<point x="532" y="484"/>
			<point x="507" y="402"/>
			<point x="494" y="363" type="qcurve"/>
			<point x="553" y="363" type="line"/>
			<point x="553" y="270" type="line"/>
		</contour>
		<contour>
			<point x="288" y="150" type="qcurve"/>
			<point x="297" y="174"/>
			<point x="316" y="235"/>
			<point x="326" y="270" type="qcurve"/>
			<point x="247" y="270" type="line"/>
			<point x="258" y="235"/>
			<point x="278" y="174"/>
		</contour>
	</outline>
</glyph>
<glyph name="breve" format="2">
	<unicode hex="02D8"/>
	<advance width="410"/>
	<outline>
		<contour>
			<point x="205" y="598" type="qcurve"/>
			<point x="170" y="598"/>
			<point x="111" y="620"/>
			<point x="68" y="660"/>
			<point x="43" y="719"/>
			<point x="43" y="756" type="qcurve"/>
			<point x="43" y="764" type="line"/>
			<point x="144" y="764" type="line"/>
			<point x="147" y="722"/>
			<point x="181" y="693"/>
			<point x="205" y="693" type="qcurve"/>
			<point x="229" y="693"/>
			<point x="263" y="722"/>
			<point x="266" y="764" type="qcurve"/>
			<point x="367" y="764" type="line"/>
			<point x="367" y="756" type="line"/>
			<point x="367" y="719"/>
			<point x="342" y="660"/>
			<point x="299" y="620"/>
			<point x="239" y="598"/>
		</contour>
	</outline>
</glyph>
<glyph name="tilde" format="2">
  <advance width="373"/>
  <unicode hex="02DC"/>
  <outline>
    <contour>
      <point x="301" y="757" type="line"/>
      <point x="290" y="734"/>
      <point x="274" y="714"/>
      <point x="247" y="714" type="curve" smooth="yes"/>
      <point x="203" y="714"/>
      <point x="170" y="749"/>
      <point x="122" y="749" type="curve" smooth="yes"/>
      <point x="60" y="749"/>
      <point x="20" y="688"/>
      <point x="4" y="647" type="curve"/>
      <point x="77" y="599" type="line"/>
      <point x="88" y="622"/>
      <point x="104" y="642"/>
      <point x="131" y="642" type="curve" smooth="yes"/>
      <point x="174" y="642"/>
      <point x="209" y="607"/>
      <point x="256" y="607" type="curve" smooth="yes"/>
      <point x="318" y="607"/>
      <point x="358" y="668"/>
      <point x="374" y="709" type="curve"/>
    </contour>
  </outline>
</glyph>
<glyph name="Lambda" format="2">
  <advance width="722"/>
  <unicode hex="039B"/>
  <outline>
    <contour>
      <point x="10" y="0" type="curve"/>
      <point x="176" y="0" type="line"/>
      <point x="229" y="159"/>
      <point x="305" y="387"/>
      <point x="358" y="509" type="curve"/>
      <point x="409" y="386"/>
      <point x="487" y="159"/>
      <point x="540" y="0" type="curve"/>
      <point x="712" y="0" type="line"/>
      <point x="651" y="176"/>
      <point x="545" y="461"/>
      <point x="436" y="693" type="curve"/>
      <point x="286" y="693" type="line"/>
      <point x="177" y="462"/>
      <point x="69" y="176"/>
    </contour>
  </outline>
</glyph>
<glyph name="Sigma" format="2">
  <advance width="595"/>
  <unicode hex="03A3"/>
  <outline>
    <contour>
      <point x="247" y="350" type="curve"/>
      <point x="176" y="271"/>
      <point x="94" y="184"/>
      <point x="31" y="108" type="curve"/>
      <point x="31" y="0" type="line"/>
      <point x="555" y="0" type="line"/>
      <point x="555" y="131" type="line"/>
      <point x="226" y="131" type="line"/>
      <point x="271" y="187"/>
      <point x="383" y="302"/>
      <point x="423" y="350" type="curve"/>
      <point x="372" y="417"/>
      <point x="309" y="494"/>
      <point x="253" y="562" type="curve"/>
      <point x="555" y="562" type="line"/>
      <point x="555" y="693" type="line"/>
      <point x="46" y="693" type="line"/>
      <point x="46" y="592" type="line"/>
      <point x="99" y="530"/>
      <point x="186" y="432"/>
    </contour>
  </outline>
</glyph>
<glyph name="Psi" format="2">
	<unicode hex="03A8"/>
	<advance width="845"/>
	<outline>
		<contour>
			<point x="496" y="0" type="line"/>
			<point x="349" y="0" type="line"/>
			<point x="349" y="165" type="line"/>
			<point x="276" y="169"/>
			<point x="169" y="213"/>
			<point x="99" y="288"/>
			<point x="65" y="391"/>
			<point x="65" y="453" type="qcurve"/>
			<point x="65" y="693" type="line"/>
			<point x="216" y="693" type="line"/>
			<point x="216" y="471" type="line"/>
			<point x="216" y="381"/>
			<point x="282" y="297"/>
			<point x="347" y="291" type="qcurve"/>
			<point x="347" y="693" type="line"/>
			<point x="498" y="693" type="line"/>
			<point x="498" y="291" type="line"/>
			<point x="563" y="297"/>
			<point x="629" y="381"/>
			<point x="629" y="471" type="qcurve"/>
			<point x="629" y="693" type="line"/>
			<point x="780" y="693" type="line"/>
			<point x="780" y="453" type="line"/>
			<point x="780" y="391"/>
			<point x="746" y="288"/>
			<point x="676" y="213"/>
			<point x="569" y="169"/>
			<point x="496" y="165" type="qcurve"/>
		</contour>
	</outline>
</glyph>
<glyph name="beta" format="2">
  <advance width="637"/>
  <unicode hex="03B2"/>
  <outline>
    <contour>
      <point x="544" y="586" type="curve" smooth="yes"/>
      <point x="544" y="692"/>
      <point x="467" y="776"/>
      <point x="311" y="776" type="curve" smooth="yes"/>
      <point x="152" y="776"/>
      <point x="70" y="680"/>
      <point x="70" y="538" type="curve" smooth="yes"/>
      <point x="70" y="-186" type="line"/>
      <point x="219" y="-186" type="line"/>
      <point x="219" y="11" type="line"/>
      <point x="256" y="-4"/>
      <point x="295" y="-11"/>
      <point x="337" y="-11" type="curve" smooth="yes"/>
      <point x="487" y="-11"/>
      <point x="594" y="58"/>
      <point x="594" y="228" type="curve" smooth="yes"/>
      <point x="594" y="317"/>
      <point x="558" y="389"/>
      <point x="457" y="429" type="curve"/>
      <point x="520" y="464"/>
      <point x="544" y="514"/>
    </contour>
    <contour>
      <point x="219" y="536" type="line"/>
      <point x="219" y="609"/>
      <point x="251" y="646"/>
      <point x="316" y="646" type="curve" smooth="yes"/>
      <point x="367" y="646"/>
      <point x="396" y="607"/>
      <point x="396" y="562" type="curve" smooth="yes"/>
      <point x="396" y="489"/>
      <point x="354" y="465"/>
      <point x="303" y="465" type="curve" smooth="yes"/>
      <point x="291" y="465" type="line"/>
      <point x="291" y="345" type="line"/>
      <point x="310" y="345" type="line" smooth="yes"/>
      <point x="407" y="345"/>
      <point x="442" y="298"/>
      <point x="442" y="229" type="curve" smooth="yes"/>
      <point x="442" y="154"/>
      <point x="395" y="117"/>
      <point x="327" y="117" type="curve" smooth="yes"/>
      <point x="288" y="117"/>
      <point x="252" y="125"/>
      <point x="219" y="142" type="curve"/>
    </contour>
  </outline>
</glyph>
<glyph name="epsilon" format="2">
	<unicode hex="03B5"/>
	<advance width="515"/>
	<outline>
		<contour>
			<point x="290" y="540" type="qcurve"/>
			<point x="314" y="540"/>
			<point x="365" y="535"/>
			<point x="412" y="526"/>
			<point x="449" y="515"/>
			<point x="460" y="510" type="qcurve"/>
			<point x="436" y="399" type="line"/>
			<point x="402" y="413"/>
			<point x="328" y="423"/>
			<point x="299" y="423" type="qcurve"/>
			<point x="261" y="423"/>
			<point x="210" y="400"/>
			<point x="210" y="374" type="qcurve"/>
			<point x="210" y="357"/>
			<point x="223" y="337"/>
			<point x="244" y="327"/>
			<point x="269" y="324"/>
			<point x="280" y="324" type="qcurve"/>
			<point x="381" y="324" type="line"/>
			<point x="381" y="215" type="line"/>
			<point x="278" y="215" type="line"/>
			<point x="262" y="215"/>
			<point x="232" y="211"/>
			<point x="209" y="200"/>
			<point x="195" y="179"/>
			<point x="195" y="161" type="qcurve"/>
			<point x="195" y="132"/>
			<point x="241" y="106"/>
			<point x="291" y="106" type="qcurve"/>
			<point x="345" y="106"/>
			<point x="437" y="126"/>
			<point x="458" y="134" type="qcurve"/>
			<point x="490" y="22" type="line"/>
			<point x="467" y="11"/>
			<point x="354" y="-14"/>
			<point x="273" y="-14" type="qcurve"/>
			<point x="235" y="-14"/>
			<point x="152" y="-1"/>
			<point x="83" y="36"/>
			<point x="37" y="101"/>
			<point x="37" y="153" type="qcurve"/>
			<point x="37" y="188"/>
			<point x="73" y="253"/>
			<point x="114" y="275" type="qcurve"/>
			<point x="85" y="292"/>
			<point x="54" y="344"/>
			<point x="54" y="377" type="qcurve"/>
			<point x="54" y="417"/>
			<point x="89" y="478"/>
			<point x="151" y="519"/>
			<point x="238" y="540"/>
		</contour>
	</outline>
</glyph>
<glyph name="zeta" format="2">
	<unicode hex="03B6"/>
	<advance width="500"/>
	<outline>
		<contour>
			<point x="505" y="-41" type="qcurve"/>
			<point x="505" y="-82"/>
			<point x="473" y="-156"/>
			<point x="449" y="-191" type="qcurve"/>
			<point x="323" y="-148" type="line"/>
			<point x="339" y="-119"/>
			<point x="357" y="-80"/>
			<point x="357" y="-61" type="qcurve"/>
			<point x="357" y="-48"/>
			<point x="349" y="-27"/>
			<point x="327" y="-9"/>
			<point x="289" y="7"/>
			<point x="258" y="15" type="qcurve"/>
			<point x="211" y="28"/>
			<point x="137" y="63"/>
			<point x="86" y="117"/>
			<point x="60" y="192"/>
			<point x="60" y="245" type="qcurve"/>
			<point x="60" y="308"/>
			<point x="109" y="424"/>
			<point x="182" y="526"/>
			<point x="264" y="612"/>
			<point x="297" y="645" type="qcurve"/>
			<point x="86" y="645" type="line"/>
			<point x="86" y="769" type="line"/>
			<point x="487" y="769" type="line"/>
			<point x="487" y="659" type="line"/>
			<point x="455" y="630"/>
			<point x="361" y="546"/>
			<point x="274" y="442"/>
			<point x="212" y="321"/>
			<point x="212" y="256" type="qcurve"/>
			<point x="212" y="233"/>
			<point x="223" y="196"/>
			<point x="250" y="165"/>
			<point x="295" y="141"/>
			<point x="329" y="131" type="qcurve"/>
			<point x="379" y="116"/>
			<point x="447" y="84"/>
			<point x="488" y="43"/>
			<point x="505" y="-8"/>
		</contour>
	</outline>
</glyph>
<glyph name="eta" format="2">
  <advance width="589"/>
  <unicode hex="03B7"/>
  <anchor x="295" y="526" name="top"/>
  <outline>
    <contour>
      <point x="375" y="-185" type="line"/>
      <point x="524" y="-185" type="line"/>
      <point x="524" y="297" type="line" smooth="yes"/>
      <point x="524" y="440"/>
      <point x="473" y="538"/>
      <point x="294" y="538" type="curve" smooth="yes"/>
      <point x="206" y="538"/>
      <point x="121" y="523"/>
      <point x="70" y="508" type="curve"/>
      <point x="70" y="0" type="line"/>
      <point x="219" y="0" type="line"/>
      <point x="219" y="406" type="line"/>
      <point x="238" y="409"/>
      <point x="264" y="411"/>
      <point x="285" y="411" type="curve" smooth="yes"/>
      <point x="354" y="411"/>
      <point x="375" y="375"/>
      <point x="375" y="279" type="curve" smooth="yes"/>
    </contour>
  </outline>
</glyph>
<glyph name="theta" format="2">
  <advance width="615"/>
  <unicode hex="03B8"/>
  <outline>
    <contour>
      <point x="308" y="-14" type="curve" smooth="yes"/>
      <point x="469" y="-14"/>
      <point x="567" y="115"/>
      <point x="567" y="382" type="curve" smooth="yes"/>
      <point x="567" y="647"/>
      <point x="469" y="776"/>
      <point x="308" y="776" type="curve" smooth="yes"/>
      <point x="147" y="776"/>
      <point x="48" y="647"/>
      <point x="48" y="382" type="curve" smooth="yes"/>
      <point x="48" y="115"/>
      <point x="147" y="-14"/>
    </contour>
    <contour>
      <point x="308" y="114" type="curve" smooth="yes"/>
      <point x="236" y="114"/>
      <point x="200" y="191"/>
      <point x="197" y="320" type="curve"/>
      <point x="417" y="320" type="line"/>
      <point x="414" y="191"/>
      <point x="380" y="114"/>
    </contour>
    <contour>
      <point x="197" y="444" type="line"/>
      <point x="200" y="573"/>
      <point x="236" y="648"/>
      <point x="308" y="648" type="curve" smooth="yes"/>
      <point x="380" y="648"/>
      <point x="414" y="573"/>
      <point x="417" y="444" type="curve"/>
    </contour>
  </outline>
</glyph>
<glyph name="lambda" format="2">
  <advance width="547"/>
  <unicode hex="03BB"/>
  <outline>
    <contour>
      <point x="544" y="0" type="line"/>
      <point x="504" y="148"/>
      <point x="414" y="441"/>
      <point x="321" y="639" type="curve" smooth="yes"/>
      <point x="273" y="741"/>
      <point x="217" y="776"/>
      <point x="125" y="776" type="curve" smooth="yes"/>
      <point x="78" y="776"/>
      <point x="44" y="767"/>
      <point x="19" y="759" type="curve"/>
      <point x="45" y="639" type="line"/>
      <point x="66" y="647"/>
      <point x="83" y="649"/>
      <point x="100" y="649" type="curve" smooth="yes"/>
      <point x="162" y="649"/>
      <point x="180" y="606"/>
      <point x="212" y="523" type="curve"/>
      <point x="145" y="391"/>
      <point x="71" y="205"/>
      <point x="11" y="0" type="curve"/>
      <point x="164" y="0" type="line"/>
      <point x="191" y="104"/>
      <point x="242" y="273"/>
      <point x="279" y="368" type="curve"/>
      <point x="313" y="273"/>
      <point x="358" y="104"/>
      <point x="385" y="0" type="curve"/>
    </contour>
  </outline>
</glyph>
<glyph name="rho" format="2">
  <advance width="612"/>
  <unicode hex="03C1"/>
  <outline>
    <contour>
      <point x="329" y="-10" type="curve" smooth="yes"/>
      <point x="478" y="-10"/>
      <point x="567" y="101"/>
      <point x="567" y="263" type="curve" smooth="yes"/>
      <point x="567" y="434"/>
      <point x="481" y="538"/>
      <point x="310" y="538" type="curve" smooth="yes"/>
      <point x="161" y="538"/>
      <point x="70" y="441"/>
      <point x="70" y="293" type="curve" smooth="yes"/>
      <point x="70" y="-185" type="line"/>
      <point x="219" y="-185" type="line"/>
      <point x="219" y="15" type="line"/>
      <point x="246" y="0"/>
      <point x="281" y="-10"/>
    </contour>
    <contour>
      <point x="219" y="289" type="line"/>
      <point x="219" y="376"/>
      <point x="264" y="411"/>
      <point x="315" y="411" type="curve" smooth="yes"/>
      <point x="384" y="411"/>
      <point x="415" y="367"/>
      <point x="415" y="264" type="curve" smooth="yes"/>
      <point x="415" y="156"/>
      <point x="372" y="116"/>
      <point x="301" y="116" type="curve" smooth="yes"/>
      <point x="266" y="116"/>
      <point x="238" y="124"/>
      <point x="219" y="135" type="curve"/>
    </contour>
  </outline>
</glyph>
<glyph name="sigma1" format="2">
	<unicode hex="03C2"/>
	<advance width="500"/>
	<outline>
		<contour>
			<point x="227" y="14" type="qcurve"/>
			<point x="186" y="26"/>
			<point x="119" y="62"/>
			<point x="71" y="121"/>
			<point x="45" y="205"/>
			<point x="45" y="265" type="qcurve"/>
			<point x="45" y="324"/>
			<point x="82" y="425"/>
			<point x="152" y="498"/>
			<point x="252" y="540"/>
			<point x="316" y="540" type="qcurve"/>
			<point x="358" y="540"/>
			<point x="429" y="525"/>
			<point x="462" y="511" type="qcurve"/>
			<point x="429" y="392" type="line"/>
			<point x="408" y="400"/>
			<point x="359" y="412"/>
			<point x="328" y="412" type="qcurve"/>
			<point x="262" y="412"/>
			<point x="197" y="336"/>
			<point x="197" y="269" type="qcurve"/>
			<point x="197" y="239"/>
			<point x="207" y="194"/>
			<point x="230" y="161"/>
			<point x="269" y="137"/>
			<point x="298" y="129" type="qcurve"/>
			<point x="346" y="115"/>
			<point x="411" y="83"/>
			<point x="450" y="42"/>
			<point x="467" y="-9"/>
			<point x="467" y="-41" type="qcurve"/>
			<point x="467" y="-82"/>
			<point x="435" y="-156"/>
			<point x="411" y="-191" type="qcurve"/>
			<point x="285" y="-148" type="line"/>
			<point x="301" y="-119"/>
			<point x="319" y="-80"/>
			<point x="319" y="-61" type="qcurve"/>
			<point x="319" y="-49"/>
			<point x="312" y="-28"/>
			<point x="291" y="-10"/>
			<point x="255" y="6"/>
		</contour>
	</outline>
</glyph>
<glyph name="sigma" format="2">
	<unicode hex="03C3"/>
	<advance width="631"/>
	<outline>
		<contour>
			<point x="558" y="241" type="qcurve"/>
			<point x="558" y="185"/>
			<point x="522" y="92"/>
			<point x="456" y="24"/>
			<point x="362" y="-14"/>
			<point x="304" y="-14" type="qcurve"/>
			<point x="246" y="-14"/>
			<point x="151" y="25"/>
			<point x="83" y="96"/>
			<point x="45" y="197"/>
			<point x="45" y="259" type="qcurve"/>
			<point x="45" y="323"/>
			<point x="86" y="423"/>
			<point x="161" y="491"/>
			<point x="267" y="526"/>
			<point x="331" y="526" type="qcurve"/>
			<point x="621" y="526" type="line"/>
			<point x="621" y="402" type="line"/>
			<point x="501" y="402" type="line"/>
			<point x="533" y="368"/>
			<point x="558" y="280"/>
		</contour>
		<contour>
			<point x="408" y="250" type="qcurve"/>
			<point x="408" y="299"/>
			<point x="380" y="379"/>
			<point x="351" y="402" type="qcurve"/>
			<point x="331" y="402" type="line"/>
			<point x="272" y="402"/>
			<point x="197" y="335"/>
			<point x="197" y="259" type="qcurve"/>
			<point x="197" y="190"/>
			<point x="253" y="114"/>
			<point x="304" y="114" type="qcurve"/>
			<point x="355" y="114"/>
			<point x="408" y="192"/>
		</contour>
	</outline>
</glyph>
<glyph name="tau" format="2">
	<unicode hex="03C4"/>
	<advance width="483"/>
	<outline>
		<contour>
			<point x="436" y="3" type="line"/>
			<point x="412" y="-4"/>
			<point x="360" y="-12"/>
			<point x="326" y="-12" type="qcurve"/>
			<point x="269" y="-12"/>
			<point x="199" y="20"/>
			<point x="159" y="78"/>
			<point x="145" y="161"/>
			<point x="145" y="212" type="qcurve"/>
			<point x="145" y="402" type="line"/>
			<point x="10" y="402" type="line"/>
			<point x="10" y="526" type="line"/>
			<point x="453" y="526" type="line"/>
			<point x="453" y="402" type="line"/>
			<point x="294" y="402" type="line"/>
			<point x="294" y="200" type="line"/>
			<point x="294" y="153"/>
			<point x="318" y="114"/>
			<point x="355" y="114" type="qcurve"/>
			<point x="374" y="114"/>
			<point x="404" y="117"/>
			<point x="423" y="121" type="qcurve"/>
		</contour>
	</outline>
</glyph>
<glyph name="phi" format="2">
  <advance width="790"/>
  <unicode hex="03C6"/>
  <outline>
    <contour>
      <point x="395" y="540" type="curve" smooth="yes"/>
      <point x="171" y="540"/>
      <point x="45" y="424"/>
      <point x="45" y="264" type="curve" smooth="yes"/>
      <point x="45" y="123"/>
      <point x="142" y="12"/>
      <point x="322" y="-9" type="curve"/>
      <point x="322" y="-185" type="line"/>
      <point x="467" y="-185" type="line"/>
      <point x="467" y="-9" type="line"/>
      <point x="648" y="12"/>
      <point x="745" y="122"/>
      <point x="745" y="264" type="curve" smooth="yes"/>
      <point x="745" y="424"/>
      <point x="619" y="540"/>
    </contour>
    <contour>
      <point x="595" y="264" type="curve" smooth="yes"/>
      <point x="595" y="181"/>
      <point x="554" y="129"/>
      <point x="467" y="116" type="curve"/>
      <point x="467" y="410" type="line"/>
      <point x="554" y="397"/>
      <point x="595" y="345"/>
    </contour>
    <contour>
      <point x="195" y="264" type="curve" smooth="yes"/>
      <point x="195" y="345"/>
      <point x="237" y="397"/>
      <point x="322" y="410" type="curve"/>
      <point x="322" y="116" type="line"/>
      <point x="237" y="129"/>
      <point x="195" y="181"/>
    </contour>
  </outline>
</glyph>
<glyph name="chi" format="2">
  <advance width="540"/>
  <unicode hex="03C7"/>
  <outline>
    <contour>
      <point x="3" y="-184" type="curve"/>
      <point x="155" y="-184" type="line"/>
      <point x="188" y="-108"/>
      <point x="217" y="-35"/>
      <point x="264" y="67" type="curve"/>
      <point x="313" y="-30"/>
      <point x="349" y="-110"/>
      <point x="377" y="-184" type="curve"/>
      <point x="537" y="-184" type="line"/>
      <point x="487" y="-68"/>
      <point x="435" y="30"/>
      <point x="348" y="177" type="curve"/>
      <point x="530" y="526" type="line"/>
      <point x="376" y="526" type="line"/>
      <point x="274" y="291" type="line"/>
      <point x="168" y="526" type="line"/>
      <point x="7" y="526" type="line"/>
      <point x="190" y="181" type="line"/>
      <point x="108" y="34"/>
      <point x="42" y="-90"/>
    </contour>
  </outline>
</glyph>
<glyph name="afii10053" format="2">
  <advance width="686"/>
  <unicode hex="0404"/>
  <outline>
    <contour>
      <point x="400" y="-14" type="curve" smooth="yes"/>
      <point x="492" y="-14"/>
      <point x="565" y="6"/>
      <point x="641" y="45" type="curve"/>
      <point x="591" y="170" type="line"/>
      <point x="553" y="154"/>
      <point x="490" y="122"/>
      <point x="403" y="122" type="curve" smooth="yes"/>
      <point x="296" y="122"/>
      <point x="231" y="178"/>
      <point x="215" y="286" type="curve"/>
      <point x="505" y="286" type="line"/>
      <point x="505" y="418" type="line"/>
      <point x="218" y="418" type="line"/>
      <point x="234" y="525"/>
      <point x="296" y="574"/>
      <point x="403" y="574" type="curve" smooth="yes"/>
      <point x="482" y="574"/>
      <point x="551" y="550"/>
      <point x="588" y="531" type="curve"/>
      <point x="634" y="653" type="line"/>
      <point x="558" y="693"/>
      <point x="476" y="710"/>
      <point x="397" y="710" type="curve" smooth="yes"/>
      <point x="203" y="710"/>
      <point x="50" y="595"/>
      <point x="50" y="347" type="curve" smooth="yes"/>
      <point x="50" y="92"/>
      <point x="207" y="-14"/>
    </contour>
  </outline>
</glyph>
<glyph name="afii10026" format="2">
  <advance width="756"/>
  <unicode hex="0418"/>
  <anchor x="736" y="0" name="bottomright"/>
  <anchor x="378" y="693" name="top"/>
  <outline>
    <contour>
      <point x="80" y="0" type="line"/>
      <point x="211" y="0" type="line"/>
      <point x="300" y="159"/>
      <point x="405" y="317"/>
      <point x="522" y="454" type="curve"/>
      <point x="522" y="0" type="line"/>
      <point x="676" y="0" type="line"/>
      <point x="676" y="693" type="line"/>
      <point x="549" y="693" type="line"/>
      <point x="460" y="604"/>
      <point x="331" y="429"/>
      <point x="235" y="284" type="curve"/>
      <point x="235" y="693" type="line"/>
      <point x="80" y="693" type="line"/>
    </contour>
  </outline>
</glyph>
<glyph name="afii10029" format="2">
	<unicode hex="041B"/>
	<advance width="789"/>
	<outline>
		<contour>
			<point x="383" y="561" type="line"/>
			<point x="380" y="494"/>
			<point x="371" y="359"/>
			<point x="348" y="233"/>
			<point x="305" y="123"/>
			<point x="230" y="39"/>
			<point x="118" y="-11"/>
			<point x="37" y="-14" type="qcurve"/>
			<point x="20" y="122" type="line"/>
			<point x="92" y="130"/>
			<point x="170" y="187"/>
			<point x="190" y="246" type="qcurve"/>
			<point x="215" y="319"/>
			<point x="236" y="550"/>
			<point x="236" y="693" type="qcurve"/>
			<point x="709" y="693" type="line"/>
			<point x="709" y="0" type="line"/>
			<point x="553" y="0" type="line"/>
			<point x="553" y="561" type="line"/>
		</contour>
	</outline>
</glyph>
<glyph name="afii10044" format="2">
  <advance width="773"/>
  <unicode hex="042A"/>
  <outline>
    <contour>
      <point x="728" y="227" type="curve" smooth="yes"/>
      <point x="728" y="388"/>
      <point x="619" y="464"/>
      <point x="394" y="464" type="curve" smooth="yes"/>
      <point x="379" y="464"/>
      <point x="366" y="464"/>
      <point x="349" y="463" type="curve"/>
      <point x="349" y="693" type="line"/>
      <point x="20" y="693" type="line"/>
      <point x="20" y="561" type="line"/>
      <point x="193" y="561" type="line"/>
      <point x="193" y="16" type="line"/>
      <point x="265" y="-1"/>
      <point x="344" y="-9"/>
      <point x="401" y="-9" type="curve" smooth="yes"/>
      <point x="608" y="-9"/>
      <point x="728" y="71"/>
    </contour>
    <contour>
      <point x="380" y="332" type="curve" smooth="yes"/>
      <point x="495" y="332"/>
      <point x="567" y="309"/>
      <point x="567" y="227" type="curve" smooth="yes"/>
      <point x="567" y="147"/>
      <point x="492" y="123"/>
      <point x="408" y="123" type="curve" smooth="yes"/>
      <point x="381" y="123"/>
      <point x="364" y="123"/>
      <point x="349" y="124" type="curve"/>
      <point x="349" y="331" type="line"/>
      <point x="360" y="332"/>
      <point x="373" y="332"/>
    </contour>
  </outline>
</glyph>
<glyph name="afii10046" format="2">
	<unicode hex="042C"/>
	<advance width="659"/>
	<outline>
		<contour>
			<point x="614" y="227" type="qcurve"/>
			<point x="614" y="111"/>
			<point x="442" y="-9"/>
			<point x="288" y="-9" type="qcurve"/>
			<point x="245" y="-9"/>
			<point x="134" y="3"/>
			<point x="80" y="16" type="qcurve"/>
			<point x="80" y="693" type="line"/>
			<point x="236" y="693" type="line"/>
			<point x="236" y="463" type="line"/>
			<point x="249" y="464"/>
			<point x="270" y="464"/>
			<point x="281" y="464" type="qcurve"/>
			<point x="450" y="464"/>
			<point x="614" y="348"/>
		</contour>
		<contour>
			<point x="267" y="332" type="qcurve"/>
			<point x="262" y="332"/>
			<point x="244" y="332"/>
			<point x="236" y="331" type="qcurve"/>
			<point x="236" y="124" type="line"/>
			<point x="247" y="123"/>
			<point x="275" y="123"/>
			<point x="295" y="123" type="qcurve"/>
			<point x="326" y="123"/>
			<point x="384" y="133"/>
			<point x="428" y="157"/>
			<point x="454" y="197"/>
			<point x="454" y="227" type="qcurve"/>
			<point x="454" y="258"/>
			<point x="428" y="298"/>
			<point x="379" y="322"/>
			<point x="310" y="332"/>
		</contour>
	</outline>
</glyph>
<glyph name="afii10066" format="2">
  <advance width="601"/>
  <unicode hex="0431"/>
  <outline>
    <contour>
      <point x="304" y="-14" type="curve" smooth="yes"/>
      <point x="442" y="-14"/>
      <point x="556" y="74"/>
      <point x="556" y="254" type="curve" smooth="yes"/>
      <point x="556" y="422"/>
      <point x="457" y="508"/>
      <point x="330" y="508" type="curve" smooth="yes"/>
      <point x="289" y="508"/>
      <point x="247" y="498"/>
      <point x="204" y="477" type="curve"/>
      <point x="225" y="580"/>
      <point x="311" y="616"/>
      <point x="391" y="629" type="curve" smooth="yes"/>
      <point x="438" y="637"/>
      <point x="480" y="638"/>
      <point x="529" y="649" type="curve"/>
      <point x="512" y="776" type="line"/>
      <point x="465" y="765"/>
      <point x="421" y="763"/>
      <point x="377" y="754" type="curve" smooth="yes"/>
      <point x="126" y="702"/>
      <point x="45" y="573"/>
      <point x="45" y="319" type="curve" smooth="yes"/>
      <point x="45" y="100"/>
      <point x="119" y="-14"/>
    </contour>
    <contour>
      <point x="305" y="113" type="curve" smooth="yes"/>
      <point x="228" y="113"/>
      <point x="198" y="174"/>
      <point x="198" y="291" type="curve" smooth="yes"/>
      <point x="198" y="310"/>
      <point x="198" y="336"/>
      <point x="201" y="355" type="curve"/>
      <point x="228" y="376"/>
      <point x="269" y="383"/>
      <point x="304" y="383" type="curve" smooth="yes"/>
      <point x="373" y="383"/>
      <point x="406" y="320"/>
      <point x="406" y="253" type="curve" smooth="yes"/>
      <point x="406" y="168"/>
      <point x="370" y="113"/>
    </contour>
  </outline>
</glyph>
<glyph name="afii10068" format="2">
  <advance width="453"/>
  <unicode hex="0433"/>
  <anchor x="433" y="0" name="bottomright"/>
  <anchor x="227" y="526" name="top"/>
  <outline>
    <contour>
      <point x="70" y="0" type="line"/>
      <point x="219" y="0" type="line"/>
      <point x="219" y="404" type="line"/>
      <point x="443" y="404" type="line"/>
      <point x="443" y="526" type="line"/>
      <point x="70" y="526" type="line"/>
    </contour>
  </outline>
</glyph>
<glyph name="afii10072" format="2">
  <advance width="849"/>
  <unicode hex="0436"/>
  <anchor x="829" y="0" name="bottomright"/>
  <anchor x="425" y="526" name="top"/>
  <outline>
    <contour>
      <point x="10" y="0" type="curve"/>
      <point x="176" y="0" type="line"/>
      <point x="220" y="67"/>
      <point x="284" y="147"/>
      <point x="352" y="238" type="curve"/>
      <point x="352" y="0" type="line"/>
      <point x="497" y="0" type="line"/>
      <point x="497" y="238" type="line"/>
      <point x="564" y="155"/>
      <point x="623" y="75"/>
      <point x="673" y="0" type="curve"/>
      <point x="839" y="0" type="line"/>
      <point x="772" y="108"/>
      <point x="720" y="181"/>
      <point x="624" y="282" type="curve"/>
      <point x="713" y="370"/>
      <point x="779" y="450"/>
      <point x="828" y="526" type="curve"/>
      <point x="656" y="526" type="line"/>
      <point x="621" y="478"/>
      <point x="578" y="415"/>
      <point x="497" y="318" type="curve"/>
      <point x="497" y="526" type="line"/>
      <point x="352" y="526" type="line"/>
      <point x="352" y="318" type="line"/>
      <point x="273" y="417"/>
      <point x="229" y="477"/>
      <point x="194" y="526" type="curve"/>
      <point x="20" y="526" type="line"/>
      <point x="73" y="453"/>
      <point x="142" y="368"/>
      <point x="226" y="281" type="curve"/>
      <point x="146" y="196"/>
      <point x="77" y="108"/>
    </contour>
  </outline>
</glyph>
<glyph name="afii10074" format="2">
	<unicode hex="0438"/>
	<advance width="619"/>
	<outline>
		<contour>
			<point x="549" y="526" type="line"/>
			<point x="549" y="0" type="line"/>
			<point x="399" y="0" type="line"/>
			<point x="399" y="50"/>
			<point x="401" y="149"/>
			<point x="403" y="233"/>
			<point x="406" y="296"/>
			<point x="406" y="311" type="qcurve"/>
			<point x="377" y="270"/>
			<point x="319" y="186"/>
			<point x="266" y="105"/>
			<point x="219" y="31"/>
			<point x="201" y="0" type="qcurve"/>
			<point x="70" y="0" type="line"/>
			<point x="70" y="526" type="line"/>
			<point x="219" y="526" type="line"/>
			<point x="219" y="476"/>
			<point x="218" y="385"/>
			<point x="216" y="311"/>
			<point x="214" y="256"/>
			<point x="214" y="241" type="qcurve"/>
			<point x="274" y="329"/>
			<point x="375" y="469"/>
			<point x="423" y="526" type="qcurve"/>
		</contour>
	</outline>
</glyph>
<glyph name="afii10078" format="2">
  <advance width="761"/>
  <unicode hex="043C"/>
  <outline>
    <contour>
      <point x="328" y="62" type="line"/>
      <point x="431" y="62" type="line"/>
      <point x="541" y="304" type="line"/>
      <point x="545" y="208"/>
      <point x="550" y="104"/>
      <point x="553" y="0" type="curve"/>
      <point x="701" y="0" type="line"/>
      <point x="696" y="147"/>
      <point x="679" y="383"/>
      <point x="660" y="526" type="curve"/>
      <point x="534" y="526" type="line"/>
      <point x="491" y="458"/>
      <point x="436" y="344"/>
      <point x="380" y="216" type="curve"/>
      <point x="327" y="336"/>
      <point x="282" y="433"/>
      <point x="225" y="526" type="curve"/>
      <point x="101" y="526" type="line"/>
      <point x="85" y="383"/>
      <point x="65" y="147"/>
      <point x="60" y="0" type="curve"/>
      <point x="205" y="0" type="line"/>
      <point x="208" y="74"/>
      <point x="213" y="210"/>
      <point x="218" y="303" type="curve"/>
    </contour>
  </outline>
</glyph>
<glyph name="afii10079" format="2">
  <advance width="593"/>
  <unicode hex="043D"/>
  <anchor x="573" y="0" name="bottomright"/>
  <outline>
    <contour>
      <point x="70" y="0" type="line"/>
      <point x="219" y="0" type="line"/>
      <point x="219" y="208" type="line"/>
      <point x="374" y="208" type="line"/>
      <point x="374" y="0" type="line"/>
      <point x="523" y="0" type="line"/>
      <point x="523" y="526" type="line"/>
      <point x="374" y="526" type="line"/>
      <point x="374" y="330" type="line"/>
      <point x="219" y="330" type="line"/>
      <point x="219" y="526" type="line"/>
      <point x="70" y="526" type="line"/>
    </contour>
  </outline>
</glyph>
<glyph name="afii10081" format="2">
  <advance width="593"/>
  <unicode hex="043F"/>
  <anchor x="573" y="0" name="bottomright"/>
  <outline>
    <contour>
      <point x="70" y="0" type="line"/>
      <point x="219" y="0" type="line"/>
      <point x="219" y="402" type="line"/>
      <point x="374" y="402" type="line"/>
      <point x="374" y="0" type="line"/>
      <point x="523" y="0" type="line"/>
      <point x="523" y="526" type="line"/>
      <point x="70" y="526" type="line"/>
    </contour>
  </outline>
</glyph>
<glyph name="afii10084" format="2">
  <advance width="525"/>
  <unicode hex="0442"/>
  <outline>
    <contour>
      <point x="505" y="526" type="line"/>
      <point x="20" y="526" type="line"/>
      <point x="20" y="404" type="line"/>
      <point x="188" y="404" type="line"/>
      <point x="188" y="0" type="line"/>
      <point x="337" y="0" type="line"/>
      <point x="337" y="404" type="line"/>
      <point x="505" y="404" type="line"/>
    </contour>
  </outline>
</glyph>
<glyph name="afii10086" format="2">
  <advance width="794"/>
  <unicode hex="0444"/>
  <outline>
    <contour>
      <point x="324" y="124" type="line"/>
      <point x="241" y="133"/>
      <point x="195" y="171"/>
      <point x="195" y="259" type="curve" smooth="yes"/>
      <point x="195" y="350"/>
      <point x="244" y="390"/>
      <point x="324" y="397" type="curve"/>
    </contour>
    <contour>
      <point x="469" y="397" type="line"/>
      <point x="530" y="394"/>
      <point x="598" y="364"/>
      <point x="598" y="260" type="curve" smooth="yes"/>
      <point x="598" y="157"/>
      <point x="530" y="124"/>
      <point x="469" y="124" type="curve"/>
    </contour>
    <contour>
      <point x="469" y="-2" type="line"/>
      <point x="621" y="11"/>
      <point x="749" y="89"/>
      <point x="749" y="260" type="curve" smooth="yes"/>
      <point x="749" y="427"/>
      <point x="619" y="508"/>
      <point x="469" y="521" type="curve"/>
      <point x="469" y="776" type="line"/>
      <point x="324" y="751" type="line"/>
      <point x="324" y="521" type="line"/>
      <point x="131" y="500"/>
      <point x="45" y="395"/>
      <point x="45" y="261" type="curve" smooth="yes"/>
      <point x="45" y="122"/>
      <point x="139" y="11"/>
      <point x="324" y="-2" type="curve"/>
      <point x="324" y="-185" type="line"/>
      <point x="469" y="-185" type="line"/>
    </contour>
  </outline>
</glyph>
<glyph name="afii10089" format="2">
  <advance width="568"/>
  <unicode hex="0447"/>
  <outline>
    <contour>
      <point x="45" y="526" type="line"/>
      <point x="45" y="355" type="line" smooth="yes"/>
      <point x="45" y="211"/>
      <point x="134" y="166"/>
      <point x="270" y="166" type="curve" smooth="yes"/>
      <point x="286" y="166"/>
      <point x="322" y="169"/>
      <point x="349" y="173" type="curve"/>
      <point x="349" y="0" type="line"/>
      <point x="498" y="0" type="line"/>
      <point x="498" y="526" type="line"/>
      <point x="349" y="526" type="line"/>
      <point x="349" y="293" type="line"/>
      <point x="329" y="290"/>
      <point x="299" y="288"/>
      <point x="287" y="288" type="curve" smooth="yes"/>
      <point x="228" y="288"/>
      <point x="194" y="305"/>
      <point x="194" y="356" type="curve" smooth="yes"/>
      <point x="194" y="526" type="line"/>
    </contour>
  </outline>
</glyph>
<glyph name="afii10090" format="2">
	<unicode hex="0448"/>
	<advance width="860"/>
	<outline>
		<contour>
			<point x="70" y="0" type="line"/>
			<point x="70" y="526" type="line"/>
			<point x="219" y="526" type="line"/>
			<point x="219" y="122" type="line"/>
			<point x="356" y="122" type="line"/>
			<point x="356" y="526" type="line"/>
			<point x="505" y="526" type="line"/>
			<point x="505" y="122" type="line"/>
			<point x="641" y="122" type="line"/>
			<point x="641" y="526" type="line"/>
			<point x="790" y="526" type="line"/>
			<point x="790" y="0" type="line"/>
		</contour>
	</outline>
</glyph>
<glyph name="afii10094" format="2">
  <advance width="564"/>
  <unicode hex="044C"/>
  <outline>
    <contour>
      <point x="303" y="-11" type="curve" smooth="yes"/>
      <point x="439" y="-11"/>
      <point x="529" y="43"/>
      <point x="529" y="166" type="curve" smooth="yes"/>
      <point x="529" y="290"/>
      <point x="432" y="348"/>
      <point x="307" y="348" type="curve" smooth="yes"/>
      <point x="268" y="348"/>
      <point x="238" y="344"/>
      <point x="219" y="339" type="curve"/>
      <point x="219" y="526" type="line"/>
      <point x="70" y="526" type="line"/>
      <point x="70" y="16" type="line"/>
      <point x="146" y="-3"/>
      <point x="215" y="-11"/>
    </contour>
    <contour>
      <point x="293" y="104" type="curve" smooth="yes"/>
      <point x="264" y="104"/>
      <point x="235" y="105"/>
      <point x="219" y="108" type="curve"/>
      <point x="219" y="228" type="line"/>
      <point x="231" y="231"/>
      <point x="259" y="234"/>
      <point x="279" y="234" type="curve" smooth="yes"/>
      <point x="335" y="234"/>
      <point x="381" y="219"/>
      <point x="381" y="170" type="curve" smooth="yes"/>
      <point x="381" y="123"/>
      <point x="348" y="104"/>
    </contour>
  </outline>
</glyph>
<glyph name="afii10097" format="2">
  <advance width="584"/>
  <unicode hex="044F"/>
  <anchor x="292" y="526" name="top"/>
  <outline>
    <contour>
      <point x="30" y="0" type="curve"/>
      <point x="183" y="0" type="line"/>
      <point x="214" y="60"/>
      <point x="245" y="124"/>
      <point x="288" y="187" type="curve"/>
      <point x="296" y="187"/>
      <point x="304" y="187"/>
      <point x="312" y="187" type="curve"/>
      <point x="365" y="187" type="line"/>
      <point x="365" y="0" type="line"/>
      <point x="514" y="0" type="line"/>
      <point x="514" y="511" type="line"/>
      <point x="463" y="524"/>
      <point x="361" y="537"/>
      <point x="294" y="537" type="curve" smooth="yes"/>
      <point x="145" y="537"/>
      <point x="55" y="472"/>
      <point x="55" y="355" type="curve" smooth="yes"/>
      <point x="55" y="286"/>
      <point x="91" y="241"/>
      <point x="147" y="212" type="curve"/>
      <point x="110" y="160"/>
      <point x="69" y="87"/>
    </contour>
    <contour>
      <point x="293" y="293" type="line" smooth="yes"/>
      <point x="250" y="293"/>
      <point x="203" y="308"/>
      <point x="203" y="357" type="curve" smooth="yes"/>
      <point x="203" y="396"/>
      <point x="225" y="423"/>
      <point x="298" y="423" type="curve" smooth="yes"/>
      <point x="318" y="423"/>
      <point x="352" y="420"/>
      <point x="365" y="419" type="curve"/>
      <point x="365" y="293" type="line"/>
    </contour>
  </outline>
</glyph>
<glyph name="afii10108" format="2">
  <advance width="599"/>
  <unicode hex="045B"/>
  <outline>
    <contour>
      <point x="80" y="0" type="line"/>
      <point x="229" y="0" type="line"/>
      <point x="229" y="385" type="line"/>
      <point x="248" y="390"/>
      <point x="271" y="396"/>
      <point x="298" y="396" type="curve" smooth="yes"/>
      <point x="365" y="396"/>
      <point x="385" y="360"/>
      <point x="385" y="264" type="curve" smooth="yes"/>
      <point x="385" y="0" type="line"/>
      <point x="534" y="0" type="line"/>
      <point x="534" y="282" type="line" smooth="yes"/>
      <point x="534" y="425"/>
      <point x="484" y="523"/>
      <point x="313" y="523" type="curve" smooth="yes"/>
      <point x="284" y="523"/>
      <point x="249" y="516"/>
      <point x="229" y="509" type="curve"/>
      <point x="229" y="596" type="line"/>
      <point x="372" y="596" type="line"/>
      <point x="372" y="689" type="line"/>
      <point x="229" y="689" type="line"/>
      <point x="229" y="776" type="line"/>
      <point x="80" y="752" type="line"/>
      <point x="80" y="689" type="line"/>
      <point x="18" y="689" type="line"/>
      <point x="18" y="596" type="line"/>
      <point x="80" y="596" type="line"/>
    </contour>
  </outline>
</glyph>
<glyph name="uni0473" format="2">
  <advance width="607"/>
  <unicode hex="0473"/>
  <outline>
    <contour>
      <point x="304" y="-14" type="curve" smooth="yes"/>
      <point x="461" y="-14"/>
      <point x="562" y="98"/>
      <point x="562" y="264" type="curve" smooth="yes"/>
      <point x="562" y="411"/>
      <point x="471" y="540"/>
      <point x="304" y="540" type="curve" smooth="yes"/>
      <point x="155" y="540"/>
      <point x="45" y="429"/>
      <point x="45" y="264" type="curve" smooth="yes"/>
      <point x="45" y="112"/>
      <point x="135" y="-14"/>
    </contour>
    <contour>
      <point x="304" y="106" type="curve" smooth="yes"/>
      <point x="239" y="106"/>
      <point x="198" y="159"/>
      <point x="190" y="236" type="curve"/>
      <point x="203" y="243"/>
      <point x="216" y="247"/>
      <point x="230" y="247" type="curve" smooth="yes"/>
      <point x="263" y="247"/>
      <point x="308" y="203"/>
      <point x="354" y="203" type="curve" smooth="yes"/>
      <point x="369" y="203"/>
      <point x="392" y="208"/>
      <point x="415" y="221" type="curve"/>
      <point x="404" y="149"/>
      <point x="364" y="106"/>
    </contour>
    <contour>
      <point x="372" y="285" type="curve" smooth="yes"/>
      <point x="339" y="285"/>
      <point x="294" y="329"/>
      <point x="248" y="329" type="curve" smooth="yes"/>
      <point x="233" y="329"/>
      <point x="212" y="324"/>
      <point x="193" y="311" type="curve"/>
      <point x="205" y="380"/>
      <point x="244" y="420"/>
      <point x="304" y="420" type="curve" smooth="yes"/>
      <point x="380" y="420"/>
      <point x="407" y="356"/>
      <point x="415" y="299" type="curve"/>
      <point x="400" y="290"/>
      <point x="386" y="285"/>
    </contour>
  </outline>
</glyph>
<glyph name="uni0475" format="2">
  <advance width="597"/>
  <unicode hex="0475"/>
  <anchor x="299" y="526" name="top"/>
  <outline>
    <contour>
      <point x="213" y="0" type="curve"/>
      <point x="337" y="0" type="line"/>
      <point x="384" y="125"/>
      <point x="432" y="249"/>
      <point x="479" y="374" type="curve"/>
      <point x="491" y="405"/>
      <point x="508" y="415"/>
      <point x="532" y="415" type="curve" smooth="yes"/>
      <point x="543" y="415"/>
      <point x="556" y="414"/>
      <point x="576" y="405" type="curve"/>
      <point x="607" y="514" type="line"/>
      <point x="572" y="529"/>
      <point x="533" y="534"/>
      <point x="504" y="534" type="curve" smooth="yes"/>
      <point x="416" y="534"/>
      <point x="383" y="494"/>
      <point x="356" y="417" type="curve"/>
      <point x="330" y="338"/>
      <point x="303" y="259"/>
      <point x="277" y="180" type="curve"/>
      <point x="242" y="271"/>
      <point x="195" y="425"/>
      <point x="168" y="526" type="curve"/>
      <point x="10" y="526" type="line"/>
      <point x="70" y="322"/>
      <point x="148" y="136"/>
    </contour>
  </outline>
</glyph>
<glyph name="uni048B" format="2">
	<unicode hex="048B"/>
	<advance width="630"/>
	<outline>
		<contour>
			<point x="529" y="526" type="line"/>
			<point x="529" y="122" type="line"/>
			<point x="619" y="122" type="line"/>
			<point x="620" y="80"/>
			<point x="602" y="-1"/>
			<point x="569" y="-76"/>
			<point x="522" y="-141"/>
			<point x="494" y="-166" type="qcurve"/>
			<point x="402" y="-108" type="line"/>
			<point x="426" y="-79"/>
			<point x="455" y="-31"/>
			<point x="465" y="0" type="qcurve"/>
			<point x="379" y="0" type="line"/>
			<point x="379" y="50"/>
			<point x="381" y="149"/>
			<point x="383" y="233"/>
			<point x="386" y="296"/>
			<point x="386" y="311" type="qcurve"/>
			<point x="357" y="270"/>
			<point x="299" y="186"/>
			<point x="246" y="105"/>
			<point x="199" y="31"/>
			<point x="181" y="0" type="qcurve"/>
			<point x="50" y="0" type="line"/>
			<point x="50" y="526" type="line"/>
			<point x="199" y="526" type="line"/>
			<point x="199" y="476"/>
			<point x="198" y="385"/>
			<point x="196" y="311"/>
			<point x="194" y="256"/>
			<point x="194" y="241" type="qcurve"/>
			<point x="254" y="329"/>
			<point x="355" y="469"/>
			<point x="403" y="526" type="qcurve"/>
		</contour>
		<contour>
			<point x="294" y="598" type="qcurve"/>
			<point x="262" y="598"/>
			<point x="203" y="617"/>
			<point x="155" y="654"/>
			<point x="124" y="707"/>
			<point x="121" y="741" type="qcurve"/>
			<point x="224" y="768" type="line"/>
			<point x="232" y="730"/>
			<point x="269" y="698"/>
			<point x="294" y="698" type="qcurve"/>
			<point x="320" y="698"/>
			<point x="357" y="727"/>
			<point x="365" y="767" type="qcurve"/>
			<point x="467" y="740" type="line"/>
			<point x="464" y="706"/>
			<point x="433" y="653"/>
			<point x="386" y="617"/>
			<point x="326" y="598"/>
		</contour>
	</outline>
</glyph>
<glyph name="uni048D" format="2">
	<unicode hex="048D"/>
	<advance width="566"/>
	<outline>
		<contour>
			<point x="10" y="487" type="line"/>
			<point x="72" y="487" type="line"/>
			<point x="72" y="546" type="line"/>
			<point x="221" y="546" type="line"/>
			<point x="221" y="487" type="line"/>
			<point x="364" y="487" type="line"/>
			<point x="364" y="394" type="line"/>
			<point x="221" y="394" type="line"/>
			<point x="221" y="329" type="line"/>
			<point x="235" y="333"/>
			<point x="280" y="338"/>
			<point x="309" y="338" type="qcurve"/>
			<point x="352" y="338"/>
			<point x="432" y="319"/>
			<point x="494" y="278"/>
			<point x="531" y="212"/>
			<point x="531" y="166" type="qcurve"/>
			<point x="531" y="120"/>
			<point x="499" y="53"/>
			<point x="439" y="10"/>
			<point x="356" y="-11"/>
			<point x="305" y="-11" type="qcurve"/>
			<point x="239" y="-11"/>
			<point x="129" y="2"/>
			<point x="72" y="16" type="qcurve"/>
			<point x="72" y="394" type="line"/>
			<point x="10" y="394" type="line"/>
		</contour>
		<contour>
			<point x="295" y="104" type="qcurve"/>
			<point x="336" y="104"/>
			<point x="383" y="135"/>
			<point x="383" y="170" type="qcurve"/>
			<point x="383" y="188"/>
			<point x="367" y="213"/>
			<point x="339" y="228"/>
			<point x="302" y="234"/>
			<point x="281" y="234" type="qcurve"/>
			<point x="266" y="234"/>
			<point x="230" y="230"/>
			<point x="221" y="228" type="qcurve"/>
			<point x="221" y="108" type="line"/>
			<point x="233" y="106"/>
			<point x="273" y="104"/>
		</contour>
	</outline>
</glyph>
<glyph name="uni048F" format="2">
  <advance width="614"/>
  <unicode hex="048F"/>
  <outline>
    <contour>
      <point x="70" y="-185" type="line"/>
      <point x="219" y="-185" type="line"/>
      <point x="219" y="13" type="line"/>
      <point x="252" y="-2"/>
      <point x="298" y="-10"/>
      <point x="339" y="-10" type="curve" smooth="yes"/>
      <point x="352" y="-10"/>
      <point x="365" y="-8"/>
      <point x="377" y="-7" type="curve"/>
      <point x="437" y="-112" type="line"/>
      <point x="531" y="-60" type="line"/>
      <point x="477" y="33" type="line"/>
      <point x="537" y="80"/>
      <point x="569" y="160"/>
      <point x="569" y="263" type="curve" smooth="yes"/>
      <point x="569" y="431"/>
      <point x="468" y="538"/>
      <point x="295" y="538" type="curve" smooth="yes"/>
      <point x="223" y="538"/>
      <point x="123" y="524"/>
      <point x="70" y="508" type="curve"/>
    </contour>
    <contour>
      <point x="310" y="106" type="curve"/>
      <point x="279" y="106"/>
      <point x="238" y="115"/>
      <point x="219" y="127" type="curve"/>
      <point x="219" y="406" type="line"/>
      <point x="234" y="409"/>
      <point x="267" y="411"/>
      <point x="294" y="411" type="curve" smooth="yes"/>
      <point x="375" y="411"/>
      <point x="417" y="351"/>
      <point x="417" y="259" type="curve" smooth="yes"/>
      <point x="417" y="220"/>
      <point x="412" y="189"/>
      <point x="401" y="166" type="curve"/>
      <point x="348" y="258" type="line"/>
      <point x="255" y="205" type="line"/>
      <point x="312" y="106" type="line"/>
      <point x="311" y="106"/>
      <point x="311" y="106"/>
    </contour>
  </outline>
</glyph>
<glyph name="afii10050" format="2">
  <advance width="573"/>
  <unicode hex="0490"/>
  <outline>
    <contour>
      <point x="80" y="0" type="line"/>
      <point x="236" y="0" type="line"/>
      <point x="236" y="561" type="line"/>
      <point x="553" y="561" type="line"/>
      <point x="553" y="825" type="line"/>
      <point x="403" y="825" type="line"/>
      <point x="403" y="693" type="line"/>
      <point x="80" y="693" type="line"/>
    </contour>
  </outline>
</glyph>
<glyph name="afii10098" format="2">
  <advance width="463"/>
  <unicode hex="0491"/>
  <outline>
    <contour>
      <point x="70" y="0" type="line"/>
      <point x="219" y="0" type="line"/>
      <point x="219" y="404" type="line"/>
      <point x="443" y="404" type="line"/>
      <point x="443" y="650" type="line"/>
      <point x="316" y="650" type="line"/>
      <point x="316" y="526" type="line"/>
      <point x="70" y="526" type="line"/>
    </contour>
  </outline>
</glyph>
<glyph name="uni0492" format="2">
  <advance width="634"/>
  <unicode hex="0492"/>
  <outline>
    <contour>
      <point x="141" y="0" type="line"/>
      <point x="297" y="0" type="line"/>
      <point x="297" y="293" type="line"/>
      <point x="465" y="293" type="line"/>
      <point x="465" y="403" type="line"/>
      <point x="297" y="403" type="line"/>
      <point x="297" y="561" type="line"/>
      <point x="614" y="561" type="line"/>
      <point x="614" y="693" type="line"/>
      <point x="141" y="693" type="line"/>
      <point x="141" y="403" type="line"/>
      <point x="60" y="403" type="line"/>
      <point x="60" y="293" type="line"/>
      <point x="141" y="293" type="line"/>
    </contour>
  </outline>
</glyph>
<glyph name="uni0493" format="2">
  <advance width="525"/>
  <unicode hex="0493"/>
  <outline>
    <contour>
      <point x="132" y="0" type="line"/>
      <point x="281" y="0" type="line"/>
      <point x="281" y="182" type="line"/>
      <point x="414" y="182" type="line"/>
      <point x="414" y="275" type="line"/>
      <point x="281" y="275" type="line"/>
      <point x="281" y="404" type="line"/>
      <point x="505" y="404" type="line"/>
      <point x="505" y="526" type="line"/>
      <point x="132" y="526" type="line"/>
      <point x="132" y="275" type="line"/>
      <point x="50" y="275" type="line"/>
      <point x="50" y="182" type="line"/>
      <point x="132" y="182" type="line"/>
    </contour>
  </outline>
</glyph>
<glyph name="uni0495" format="2">
	<unicode hex="0495"/>
	<advance width="569"/>
	<outline>
		<contour>
			<point x="468" y="404" type="line"/>
			<point x="219" y="404" type="line"/>
			<point x="219" y="315" type="line"/>
			<point x="237" y="318"/>
			<point x="280" y="321"/>
			<point x="297" y="321" type="qcurve"/>
			<point x="349" y="321"/>
			<point x="437" y="290"/>
			<point x="499" y="226"/>
			<point x="534" y="129"/>
			<point x="534" y="62" type="qcurve"/>
			<point x="534" y="-4"/>
			<point x="499" y="-98"/>
			<point x="436" y="-158"/>
			<point x="350" y="-186"/>
			<point x="298" y="-186" type="qcurve"/>
			<point x="270" y="-186"/>
			<point x="240" y="-183" type="qcurve"/>
			<point x="248" y="-71" type="line"/>
			<point x="260" y="-72"/>
			<point x="284" y="-73"/>
			<point x="295" y="-73" type="qcurve"/>
			<point x="349" y="-73"/>
			<point x="399" y="-2"/>
			<point x="399" y="59" type="qcurve"/>
			<point x="399" y="102"/>
			<point x="381" y="158"/>
			<point x="347" y="192"/>
			<point x="299" y="206"/>
			<point x="270" y="206" type="qcurve"/>
			<point x="265" y="206"/>
			<point x="250" y="205"/>
			<point x="235" y="204"/>
			<point x="222" y="202"/>
			<point x="219" y="202" type="qcurve"/>
			<point x="219" y="0" type="line"/>
			<point x="70" y="0" type="line"/>
			<point x="70" y="526" type="line"/>
			<point x="468" y="526" type="line"/>
		</contour>
	</outline>
</glyph>
<glyph name="uni0498" format="2">
	<unicode hex="0498"/>
	<advance width="610"/>
	<outline>
		<contour>
			<point x="142" y="423" type="line"/>
			<point x="247" y="423" type="line"/>
			<point x="274" y="423"/>
			<point x="321" y="431"/>
			<point x="356" y="451"/>
			<point x="376" y="483"/>
			<point x="376" y="507" type="qcurve"/>
			<point x="376" y="541"/>
			<point x="322" y="575"/>
			<point x="273" y="575" type="qcurve"/>
			<point x="218" y="575"/>
			<point x="136" y="550"/>
			<point x="99" y="529" type="qcurve"/>
			<point x="49" y="652" type="line"/>
			<point x="89" y="677"/>
			<point x="202" y="708"/>
			<point x="274" y="708" type="qcurve"/>
			<point x="330" y="708"/>
			<point x="426" y="683"/>
			<point x="496" y="634"/>
			<point x="535" y="559"/>
			<point x="535" y="509" type="qcurve"/>
			<point x="535" y="471"/>
			<point x="494" y="396"/>
			<point x="452" y="370" type="qcurve"/>
			<point x="475" y="358"/>
			<point x="516" y="326"/>
			<point x="547" y="284"/>
			<point x="565" y="231"/>
			<point x="565" y="198" type="qcurve"/>
			<point x="565" y="102"/>
			<point x="451" y="2"/>
			<point x="345" y="-10" type="qcurve"/>
			<point x="336" y="-26"/>
			<point x="331" y="-40" type="qcurve"/>
			<point x="363" y="-56"/>
			<point x="387" y="-100"/>
			<point x="387" y="-123" type="qcurve"/>
			<point x="387" y="-171"/>
			<point x="311" y="-221"/>
			<point x="249" y="-221" type="qcurve"/>
			<point x="227" y="-221"/>
			<point x="183" y="-214"/>
			<point x="161" y="-208" type="qcurve"/>
			<point x="179" y="-121" type="line"/>
			<point x="186" y="-123"/>
			<point x="223" y="-132"/>
			<point x="241" y="-132" type="qcurve"/>
			<point x="255" y="-132"/>
			<point x="276" y="-121"/>
			<point x="277" y="-107" type="qcurve"/>
			<point x="278" y="-95"/>
			<point x="257" y="-75"/>
			<point x="234" y="-70" type="qcurve"/>
			<point x="222" y="-67" type="line"/>
			<point x="226" y="-56"/>
			<point x="237" y="-27"/>
			<point x="244" y="-13" type="qcurve"/>
			<point x="180" y="-10"/>
			<point x="63" y="22"/>
			<point x="25" y="42" type="qcurve"/>
			<point x="71" y="164" type="line"/>
			<point x="85" y="158"/>
			<point x="126" y="143"/>
			<point x="176" y="129"/>
			<point x="230" y="119"/>
			<point x="257" y="119" type="qcurve"/>
			<point x="323" y="119"/>
			<point x="404" y="157"/>
			<point x="404" y="204" type="qcurve"/>
			<point x="404" y="233"/>
			<point x="378" y="269"/>
			<point x="333" y="288"/>
			<point x="272" y="295"/>
			<point x="236" y="295" type="qcurve"/>
			<point x="142" y="295" type="line"/>
		</contour>
	</outline>
</glyph>
<glyph name="uni049A" format="2">
  <advance width="737"/>
  <unicode hex="049A"/>
  <outline>
    <contour>
      <point x="717" y="-185" type="line"/>
      <point x="717" y="132" type="line"/>
      <point x="585" y="132" type="line"/>
      <point x="514" y="228"/>
      <point x="441" y="310"/>
      <point x="365" y="374" type="curve"/>
      <point x="470" y="479"/>
      <point x="563" y="581"/>
      <point x="658" y="693" type="curve"/>
      <point x="473" y="693" type="line"/>
      <point x="402" y="614"/>
      <point x="317" y="516"/>
      <point x="236" y="431" type="curve"/>
      <point x="236" y="693" type="line"/>
      <point x="80" y="693" type="line"/>
      <point x="80" y="0" type="line"/>
      <point x="236" y="0" type="line"/>
      <point x="236" y="293" type="line"/>
      <point x="332" y="219"/>
      <point x="433" y="90"/>
      <point x="489" y="0" type="curve"/>
      <point x="567" y="0" type="line"/>
      <point x="567" y="-185" type="line"/>
    </contour>
  </outline>
</glyph>
<glyph name="uni049C" format="2">
  <advance width="784"/>
  <unicode hex="049C"/>
  <outline>
    <contour>
      <point x="284" y="567" type="line"/>
      <point x="284" y="418" type="line"/>
      <point x="236" y="418" type="line"/>
      <point x="236" y="693" type="line"/>
      <point x="80" y="693" type="line"/>
      <point x="80" y="0" type="line"/>
      <point x="236" y="0" type="line"/>
      <point x="236" y="306" type="line"/>
      <point x="284" y="306" type="line"/>
      <point x="284" y="159" type="line"/>
      <point x="381" y="159" type="line"/>
      <point x="381" y="302" type="line"/>
      <point x="453" y="233"/>
      <point x="543" y="92"/>
      <point x="589" y="0" type="curve"/>
      <point x="774" y="0" type="line"/>
      <point x="695" y="159"/>
      <point x="613" y="279"/>
      <point x="505" y="374" type="curve"/>
      <point x="612" y="484"/>
      <point x="680" y="562"/>
      <point x="768" y="693" type="curve"/>
      <point x="583" y="693" type="line"/>
      <point x="514" y="587"/>
      <point x="461" y="515"/>
      <point x="381" y="425" type="curve"/>
      <point x="381" y="567" type="line"/>
    </contour>
  </outline>
</glyph>
<glyph name="uni049E" format="2">
	<unicode hex="049E"/>
	<advance width="708"/>
	<outline>
		<contour>
			<point x="499" y="0" type="line"/>
			<point x="478" y="34"/>
			<point x="421" y="107"/>
			<point x="354" y="178"/>
			<point x="282" y="245"/>
			<point x="246" y="273" type="qcurve"/>
			<point x="246" y="0" type="line"/>
			<point x="90" y="0" type="line"/>
			<point x="90" y="558" type="line"/>
			<point x="9" y="558" type="line"/>
			<point x="9" y="658" type="line"/>
			<point x="90" y="658" type="line"/>
			<point x="90" y="738" type="line"/>
			<point x="246" y="738" type="line"/>
			<point x="246" y="658" type="line"/>
			<point x="332" y="658" type="line"/>
			<point x="332" y="558" type="line"/>
			<point x="246" y="558" type="line"/>
			<point x="246" y="411" type="line"/>
			<point x="279" y="443"/>
			<point x="351" y="515"/>
			<point x="422" y="589"/>
			<point x="487" y="661"/>
			<point x="513" y="693" type="qcurve"/>
			<point x="698" y="693" type="line"/>
			<point x="659" y="644"/>
			<point x="585" y="557"/>
			<point x="508" y="476"/>
			<point x="424" y="396"/>
			<point x="375" y="354" type="qcurve"/>
			<point x="458" y="285"/>
			<point x="613" y="115"/>
			<point x="684" y="0" type="qcurve"/>
		</contour>
	</outline>
</glyph>
<glyph name="uni049F" format="2">
	<unicode hex="049F"/>
	<advance width="606"/>
	<outline>
		<contour>
			<point x="2" y="526" type="line"/>
			<point x="72" y="526" type="line"/>
			<point x="72" y="571" type="line"/>
			<point x="221" y="571" type="line"/>
			<point x="221" y="526" type="line"/>
			<point x="296" y="526" type="line"/>
			<point x="296" y="453" type="line"/>
			<point x="221" y="453" type="line"/>
			<point x="221" y="309" type="line"/>
			<point x="271" y="358"/>
			<point x="376" y="472"/>
			<point x="419" y="526" type="qcurve"/>
			<point x="596" y="526" type="line"/>
			<point x="534" y="449"/>
			<point x="411" y="322"/>
			<point x="350" y="268" type="qcurve"/>
			<point x="380" y="239"/>
			<point x="448" y="173"/>
			<point x="512" y="104"/>
			<point x="566" y="33"/>
			<point x="584" y="0" type="qcurve"/>
			<point x="413" y="0" type="line"/>
			<point x="397" y="26"/>
			<point x="352" y="81"/>
			<point x="300" y="133"/>
			<point x="246" y="183"/>
			<point x="221" y="204" type="qcurve"/>
			<point x="221" y="0" type="line"/>
			<point x="72" y="0" type="line"/>
			<point x="72" y="453" type="line"/>
			<point x="2" y="453" type="line"/>
		</contour>
	</outline>
</glyph>
<glyph name="uni04A0" format="2">
  <advance width="797"/>
  <unicode hex="04A0"/>
  <outline>
    <contour>
      <point x="20" y="561" type="line"/>
      <point x="193" y="561" type="line"/>
      <point x="193" y="0" type="line"/>
      <point x="349" y="0" type="line"/>
      <point x="349" y="293" type="line"/>
      <point x="445" y="219"/>
      <point x="546" y="90"/>
      <point x="602" y="0" type="curve"/>
      <point x="787" y="0" type="line"/>
      <point x="692" y="153"/>
      <point x="589" y="282"/>
      <point x="478" y="374" type="curve"/>
      <point x="583" y="479"/>
      <point x="676" y="581"/>
      <point x="771" y="693" type="curve"/>
      <point x="586" y="693" type="line"/>
      <point x="515" y="614"/>
      <point x="430" y="516"/>
      <point x="349" y="431" type="curve"/>
      <point x="349" y="693" type="line"/>
      <point x="20" y="693" type="line"/>
    </contour>
  </outline>
</glyph>
<glyph name="uni04A2" format="2">
	<unicode hex="04A2"/>
	<advance width="807"/>
	<outline>
		<contour>
			<point x="498" y="693" type="line"/>
			<point x="654" y="693" type="line"/>
			<point x="654" y="132" type="line"/>
			<point x="787" y="132" type="line"/>
			<point x="787" y="-185" type="line"/>
			<point x="637" y="-185" type="line"/>
			<point x="637" y="0" type="line"/>
			<point x="498" y="0" type="line"/>
			<point x="498" y="294" type="line"/>
			<point x="236" y="294" type="line"/>
			<point x="236" y="0" type="line"/>
			<point x="80" y="0" type="line"/>
			<point x="80" y="693" type="line"/>
			<point x="236" y="693" type="line"/>
			<point x="236" y="428" type="line"/>
			<point x="498" y="428" type="line"/>
		</contour>
	</outline>
</glyph>
<glyph name="uni04A3" format="2">
  <advance width="635"/>
  <unicode hex="04A3"/>
  <outline>
    <contour>
      <point x="488" y="-145" type="line"/>
      <point x="615" y="-145" type="line"/>
      <point x="615" y="122" type="line"/>
      <point x="523" y="122" type="line"/>
      <point x="523" y="526" type="line"/>
      <point x="374" y="526" type="line"/>
      <point x="374" y="330" type="line"/>
      <point x="219" y="330" type="line"/>
      <point x="219" y="526" type="line"/>
      <point x="70" y="526" type="line"/>
      <point x="70" y="0" type="line"/>
      <point x="219" y="0" type="line"/>
      <point x="219" y="208" type="line"/>
      <point x="374" y="208" type="line"/>
      <point x="374" y="0" type="line"/>
      <point x="488" y="0" type="line"/>
    </contour>
  </outline>
</glyph>
<glyph name="uni04A6" format="2">
  <advance width="1109"/>
  <unicode hex="04A6"/>
  <outline>
    <contour>
      <point x="80" y="693" type="line"/>
      <point x="80" y="0" type="line"/>
      <point x="236" y="0" type="line"/>
      <point x="236" y="561" type="line"/>
      <point x="494" y="561" type="line"/>
      <point x="494" y="0" type="line"/>
      <point x="650" y="0" type="line"/>
      <point x="650" y="306" type="line"/>
      <point x="678" y="309"/>
      <point x="706" y="310"/>
      <point x="734" y="310" type="curve" smooth="yes"/>
      <point x="841" y="310"/>
      <point x="916" y="272"/>
      <point x="916" y="133" type="curve" smooth="yes"/>
      <point x="916" y="20"/>
      <point x="869" y="-65"/>
      <point x="760" y="-65" type="curve" smooth="yes"/>
      <point x="736" y="-65"/>
      <point x="728" y="-63"/>
      <point x="717" y="-62" type="curve"/>
      <point x="714" y="-181" type="line"/>
      <point x="731" y="-184"/>
      <point x="744" y="-185"/>
      <point x="777" y="-185" type="curve" smooth="yes"/>
      <point x="958" y="-185"/>
      <point x="1064" y="-56"/>
      <point x="1064" y="133" type="curve" smooth="yes"/>
      <point x="1064" y="325"/>
      <point x="950" y="437"/>
      <point x="770" y="437" type="curve" smooth="yes"/>
      <point x="731" y="437"/>
      <point x="690" y="434"/>
      <point x="650" y="429" type="curve"/>
      <point x="650" y="693" type="line"/>
    </contour>
  </outline>
</glyph>
<glyph name="uni04A8" format="2">
  <advance width="800"/>
  <unicode hex="04A8"/>
  <outline>
    <contour>
      <point x="722" y="-185" type="curve"/>
      <point x="742" y="-59" type="line"/>
      <point x="742" y="-59"/>
      <point x="742" y="-59"/>
      <point x="742" y="-59" type="curve"/>
      <point x="660" y="-50"/>
      <point x="589" y="-33"/>
      <point x="543" y="5" type="curve"/>
      <point x="700" y="45"/>
      <point x="765" y="158"/>
      <point x="765" y="273" type="curve" smooth="yes"/>
      <point x="765" y="402"/>
      <point x="699" y="499"/>
      <point x="555" y="499" type="curve" smooth="yes"/>
      <point x="398" y="499"/>
      <point x="312" y="394"/>
      <point x="312" y="234" type="curve" smooth="yes"/>
      <point x="312" y="199"/>
      <point x="313" y="167"/>
      <point x="320" y="135" type="curve"/>
      <point x="320" y="135"/>
      <point x="320" y="135"/>
      <point x="320" y="135" type="curve"/>
      <point x="233" y="162"/>
      <point x="212" y="232"/>
      <point x="212" y="329" type="curve" smooth="yes"/>
      <point x="212" y="478"/>
      <point x="265" y="578"/>
      <point x="433" y="578" type="curve" smooth="yes"/>
      <point x="472" y="578"/>
      <point x="513" y="569"/>
      <point x="542" y="554" type="curve"/>
      <point x="579" y="678" type="line"/>
      <point x="536" y="697"/>
      <point x="479" y="709"/>
      <point x="430" y="709" type="curve" smooth="yes"/>
      <point x="150" y="709"/>
      <point x="50" y="528"/>
      <point x="50" y="348" type="curve" smooth="yes"/>
      <point x="50" y="177"/>
      <point x="132" y="7"/>
      <point x="375" y="-7" type="curve"/>
      <point x="375" y="-7"/>
      <point x="375" y="-7"/>
      <point x="375" y="-7" type="curve"/>
      <point x="435" y="-99"/>
      <point x="547" y="-167"/>
      <point x="722" y="-185" type="curve"/>
      <point x="722" y="-185"/>
      <point x="722" y="-185"/>
    </contour>
    <contour>
      <point x="473" y="125" type="curve"/>
      <point x="468" y="152"/>
      <point x="465" y="183"/>
      <point x="465" y="220" type="curve" smooth="yes"/>
      <point x="465" y="335"/>
      <point x="509" y="365"/>
      <point x="549" y="365" type="curve" smooth="yes"/>
      <point x="589" y="365"/>
      <point x="616" y="331"/>
      <point x="616" y="268" type="curve" smooth="yes"/>
      <point x="616" y="200"/>
      <point x="585" y="138"/>
    </contour>
  </outline>
</glyph>
